STARTFONT 2.1
FONT -FreeType-Consolas-Medium-R-Normal--19-140-100-100-P-84-ISO10646-1
SIZE 14 100 100
FONTBOUNDINGBOX 19 27 -6 -6
STARTPROPERTIES 19
FOUNDRY "FreeType"
FAMILY_NAME "Consolas"
WEIGHT_NAME "Medium"
SLANT "R"
SETWIDTH_NAME "Normal"
ADD_STYLE_NAME ""
PIXEL_SIZE 19
POINT_SIZE 140
RESOLUTION_X 100
RESOLUTION_Y 100
SPACING "P"
AVERAGE_WIDTH 84
CHARSET_REGISTRY "ISO10646"
CHARSET_ENCODING "1"
FONT_ASCENT 14
FONT_DESCENT 4
COPYRIGHT " 2008 Microsoft Corporation. All Rights Reserved."
_OTF_FONTFILE "Consolas-Regular.ttf"
_OTF_PSNAME "Consolas"
ENDPROPERTIES
CHARS 2215
STARTCHAR 0000
ENCODING 0
SWIDTH 514 0
DWIDTH 10 0
BBX 0 0 0 0
BITMAP
ENDCHAR
STARTCHAR 000D
ENCODING 13
SWIDTH 0 0
DWIDTH 0 0
BBX 0 0 0 0
BITMAP
ENDCHAR
STARTCHAR 0020
ENCODING 32
SWIDTH 514 0
DWIDTH 10 0
BBX 0 0 0 0
BITMAP
ENDCHAR
STARTCHAR 0021
ENCODING 33
SWIDTH 514 0
DWIDTH 10 0
BBX 2 13 4 0
BITMAP
C0
C0
C0
C0
C0
C0
C0
C0
C0
C0
00
C0
C0
ENDCHAR
STARTCHAR 0022
ENCODING 34
SWIDTH 514 0
DWIDTH 10 0
BBX 6 4 2 9
BITMAP
CC
CC
4C
4C
ENDCHAR
STARTCHAR 0023
ENCODING 35
SWIDTH 514 0
DWIDTH 10 0
BBX 10 12 0 0
BITMAP
1900
1100
1100
7FC0
1100
1300
1300
1300
FFC0
3200
3200
2200
ENDCHAR
STARTCHAR 0024
ENCODING 36
SWIDTH 514 0
DWIDTH 10 0
BBX 8 16 1 -2
BITMAP
0C
0C
3E
68
C8
C8
E8
78
1E
1B
11
13
93
7C
10
30
ENDCHAR
STARTCHAR 0025
ENCODING 37
SWIDTH 514 0
DWIDTH 10 0
BBX 10 13 0 0
BITMAP
70C0
4880
C980
CB00
4A00
7600
0C00
0B80
1EC0
3640
2640
66C0
4380
ENDCHAR
STARTCHAR 0026
ENCODING 38
SWIDTH 514 0
DWIDTH 10 0
BBX 9 13 1 0
BITMAP
3C00
6600
4600
4600
6400
7C00
3000
F900
DD00
8D00
8700
C700
7D80
ENDCHAR
STARTCHAR 0027
ENCODING 39
SWIDTH 514 0
DWIDTH 10 0
BBX 2 4 4 9
BITMAP
C0
C0
C0
C0
ENDCHAR
STARTCHAR 0028
ENCODING 40
SWIDTH 514 0
DWIDTH 10 0
BBX 5 18 3 -4
BITMAP
08
18
30
60
40
C0
C0
C0
80
80
C0
C0
C0
40
60
30
18
08
ENDCHAR
STARTCHAR 0029
ENCODING 41
SWIDTH 514 0
DWIDTH 10 0
BBX 5 18 3 -4
BITMAP
80
C0
60
60
30
30
10
18
18
18
18
10
30
30
60
60
C0
80
ENDCHAR
STARTCHAR 002A
ENCODING 42
SWIDTH 514 0
DWIDTH 10 0
BBX 7 8 2 5
BITMAP
10
92
DE
78
38
DE
92
10
ENDCHAR
STARTCHAR 002B
ENCODING 43
SWIDTH 514 0
DWIDTH 10 0
BBX 9 9 1 0
BITMAP
1800
1800
1800
1800
FF80
1800
1800
1800
1800
ENDCHAR
STARTCHAR 002C
ENCODING 44
SWIDTH 514 0
DWIDTH 10 0
BBX 5 6 2 -3
BITMAP
30
38
38
10
30
E0
ENDCHAR
STARTCHAR 002D
ENCODING 45
SWIDTH 514 0
DWIDTH 10 0
BBX 6 1 2 4
BITMAP
FC
ENDCHAR
STARTCHAR 002E
ENCODING 46
SWIDTH 514 0
DWIDTH 10 0
BBX 3 3 4 0
BITMAP
C0
E0
C0
ENDCHAR
STARTCHAR 002F
ENCODING 47
SWIDTH 514 0
DWIDTH 10 0
BBX 8 15 1 -2
BITMAP
03
02
06
04
04
0C
08
18
10
30
30
20
60
40
C0
ENDCHAR
STARTCHAR 0030
ENCODING 48
SWIDTH 514 0
DWIDTH 10 0
BBX 9 12 1 0
BITMAP
3C00
6200
C300
C300
C580
8980
9180
A180
C100
C300
6200
3C00
ENDCHAR
STARTCHAR 0031
ENCODING 49
SWIDTH 514 0
DWIDTH 10 0
BBX 7 12 2 0
BITMAP
38
D8
98
18
18
18
18
18
18
18
18
FE
ENDCHAR
STARTCHAR 0032
ENCODING 50
SWIDTH 514 0
DWIDTH 10 0
BBX 8 12 1 0
BITMAP
3C
46
03
03
03
06
06
0C
18
30
60
FF
ENDCHAR
STARTCHAR 0033
ENCODING 51
SWIDTH 514 0
DWIDTH 10 0
BBX 7 12 2 0
BITMAP
F8
0C
06
04
0C
78
06
06
06
06
0C
F8
ENDCHAR
STARTCHAR 0034
ENCODING 52
SWIDTH 514 0
DWIDTH 10 0
BBX 10 12 0 0
BITMAP
0700
0700
0F00
1B00
1300
3300
6300
4300
FFC0
0300
0300
0300
ENDCHAR
STARTCHAR 0035
ENCODING 53
SWIDTH 514 0
DWIDTH 10 0
BBX 7 12 2 0
BITMAP
FC
80
80
80
80
F8
0E
06
06
06
0C
F8
ENDCHAR
STARTCHAR 0036
ENCODING 54
SWIDTH 514 0
DWIDTH 10 0
BBX 8 12 1 0
BITMAP
1F
30
60
40
C0
DE
E3
C1
C1
41
63
3E
ENDCHAR
STARTCHAR 0037
ENCODING 55
SWIDTH 514 0
DWIDTH 10 0
BBX 8 12 1 0
BITMAP
FF
03
03
06
06
0C
0C
08
18
10
30
20
ENDCHAR
STARTCHAR 0038
ENCODING 56
SWIDTH 514 0
DWIDTH 10 0
BBX 8 12 1 0
BITMAP
3E
63
C3
C3
63
76
1C
67
C1
C1
E3
3E
ENDCHAR
STARTCHAR 0039
ENCODING 57
SWIDTH 514 0
DWIDTH 10 0
BBX 8 12 1 0
BITMAP
3C
62
C3
C1
C1
C3
7D
03
03
02
0E
78
ENDCHAR
STARTCHAR 003A
ENCODING 58
SWIDTH 514 0
DWIDTH 10 0
BBX 3 9 4 0
BITMAP
C0
E0
C0
00
00
00
C0
E0
C0
ENDCHAR
STARTCHAR 003B
ENCODING 59
SWIDTH 514 0
DWIDTH 10 0
BBX 5 12 2 -3
BITMAP
30
38
30
00
00
00
30
38
38
18
30
E0
ENDCHAR
STARTCHAR 003C
ENCODING 60
SWIDTH 514 0
DWIDTH 10 0
BBX 6 10 2 0
BITMAP
04
0C
38
60
C0
C0
60
38
0C
04
ENDCHAR
STARTCHAR 003D
ENCODING 61
SWIDTH 514 0
DWIDTH 10 0
BBX 8 4 1 3
BITMAP
FF
00
00
FF
ENDCHAR
STARTCHAR 003E
ENCODING 62
SWIDTH 514 0
DWIDTH 10 0
BBX 7 10 2 0
BITMAP
C0
60
30
18
0E
0E
18
30
60
C0
ENDCHAR
STARTCHAR 003F
ENCODING 63
SWIDTH 514 0
DWIDTH 10 0
BBX 6 13 3 0
BITMAP
E0
30
18
0C
0C
18
70
40
40
40
00
E0
E0
ENDCHAR
STARTCHAR 0040
ENCODING 64
SWIDTH 514 0
DWIDTH 10 0
BBX 10 17 0 -4
BITMAP
0F00
1180
20C0
6040
4040
4F40
DB40
D340
9240
9240
9240
96C0
DF80
4000
4000
6100
1E00
ENDCHAR
STARTCHAR 0041
ENCODING 65
SWIDTH 514 0
DWIDTH 10 0
BBX 10 12 0 0
BITMAP
0E00
0E00
1A00
1300
1300
3100
3180
2180
7F80
60C0
40C0
C0C0
ENDCHAR
STARTCHAR 0042
ENCODING 66
SWIDTH 514 0
DWIDTH 10 0
BBX 8 12 1 0
BITMAP
FE
C3
C3
C3
C2
FE
C3
C1
C1
C1
C3
FC
ENDCHAR
STARTCHAR 0043
ENCODING 67
SWIDTH 514 0
DWIDTH 10 0
BBX 8 12 1 0
BITMAP
1E
61
40
C0
C0
C0
C0
C0
C0
40
61
1E
ENDCHAR
STARTCHAR 0044
ENCODING 68
SWIDTH 514 0
DWIDTH 10 0
BBX 9 12 1 0
BITMAP
FC00
C600
C300
C100
C180
C180
C180
C180
C100
C300
C600
FC00
ENDCHAR
STARTCHAR 0045
ENCODING 69
SWIDTH 514 0
DWIDTH 10 0
BBX 7 12 2 0
BITMAP
FE
C0
C0
C0
C0
FE
C0
C0
C0
C0
C0
FE
ENDCHAR
STARTCHAR 0046
ENCODING 70
SWIDTH 514 0
DWIDTH 10 0
BBX 7 12 2 0
BITMAP
FE
C0
C0
C0
C0
C0
FC
C0
C0
C0
C0
C0
ENDCHAR
STARTCHAR 0047
ENCODING 71
SWIDTH 514 0
DWIDTH 10 0
BBX 8 12 1 0
BITMAP
1F
61
40
C0
80
80
8F
81
C1
C1
61
3F
ENDCHAR
STARTCHAR 0048
ENCODING 72
SWIDTH 514 0
DWIDTH 10 0
BBX 8 12 1 0
BITMAP
C1
C1
C1
C1
C1
FF
C1
C1
C1
C1
C1
C1
ENDCHAR
STARTCHAR 0049
ENCODING 73
SWIDTH 514 0
DWIDTH 10 0
BBX 7 12 2 0
BITMAP
FE
30
30
30
30
30
30
30
30
30
30
FE
ENDCHAR
STARTCHAR 004A
ENCODING 74
SWIDTH 514 0
DWIDTH 10 0
BBX 6 12 2 0
BITMAP
FC
0C
0C
0C
0C
0C
0C
0C
0C
0C
8C
F0
ENDCHAR
STARTCHAR 004B
ENCODING 75
SWIDTH 514 0
DWIDTH 10 0
BBX 8 12 1 0
BITMAP
C3
C6
C4
CC
D8
D0
F0
D8
CC
C6
C6
C3
ENDCHAR
STARTCHAR 004C
ENCODING 76
SWIDTH 514 0
DWIDTH 10 0
BBX 7 12 2 0
BITMAP
C0
C0
C0
C0
C0
C0
C0
C0
C0
C0
C0
FE
ENDCHAR
STARTCHAR 004D
ENCODING 77
SWIDTH 514 0
DWIDTH 10 0
BBX 10 12 0 0
BITMAP
6180
6180
51C0
52C0
52C0
4AC0
4CC0
4CC0
40C0
40C0
40C0
C0C0
ENDCHAR
STARTCHAR 004E
ENCODING 78
SWIDTH 514 0
DWIDTH 10 0
BBX 8 12 1 0
BITMAP
C1
E1
E1
F1
D1
D9
C9
CD
C5
C7
C7
C3
ENDCHAR
STARTCHAR 004F
ENCODING 79
SWIDTH 514 0
DWIDTH 10 0
BBX 9 12 1 0
BITMAP
3E00
6300
C100
C180
8180
8180
8180
8180
C180
C100
6300
3C00
ENDCHAR
STARTCHAR 0050
ENCODING 80
SWIDTH 514 0
DWIDTH 10 0
BBX 8 12 1 0
BITMAP
FC
C3
C3
C1
C1
C3
C2
FC
C0
C0
C0
C0
ENDCHAR
STARTCHAR 0051
ENCODING 81
SWIDTH 514 0
DWIDTH 10 0
BBX 9 15 1 -3
BITMAP
3E00
6300
C100
C180
8180
8180
8180
8180
C180
C100
6300
3C00
1800
0C80
0780
ENDCHAR
STARTCHAR 0052
ENCODING 82
SWIDTH 514 0
DWIDTH 10 0
BBX 8 12 2 0
BITMAP
F8
86
86
86
8C
F8
98
8C
8C
86
86
83
ENDCHAR
STARTCHAR 0053
ENCODING 83
SWIDTH 514 0
DWIDTH 10 0
BBX 8 12 1 0
BITMAP
3E
61
C0
C0
E0
78
0E
03
01
03
83
7C
ENDCHAR
STARTCHAR 0054
ENCODING 84
SWIDTH 514 0
DWIDTH 10 0
BBX 9 12 1 0
BITMAP
FF80
1800
1800
1800
1800
1800
1800
1800
1800
1800
1800
1800
ENDCHAR
STARTCHAR 0055
ENCODING 85
SWIDTH 514 0
DWIDTH 10 0
BBX 8 12 1 0
BITMAP
C1
C1
C1
C1
C1
C1
C1
C1
C1
C1
43
3C
ENDCHAR
STARTCHAR 0056
ENCODING 86
SWIDTH 514 0
DWIDTH 10 0
BBX 10 12 0 0
BITMAP
C0C0
40C0
60C0
6080
2180
3180
3100
1300
1A00
1A00
0E00
0C00
ENDCHAR
STARTCHAR 0057
ENCODING 87
SWIDTH 514 0
DWIDTH 10 0
BBX 10 12 0 0
BITMAP
C040
40C0
40C0
40C0
4CC0
4CC0
4EC0
4AC0
5280
7380
7180
6180
ENDCHAR
STARTCHAR 0058
ENCODING 88
SWIDTH 514 0
DWIDTH 10 0
BBX 10 12 0 0
BITMAP
60C0
6180
3300
1B00
1E00
0C00
0E00
1E00
3300
3180
6180
E0C0
ENDCHAR
STARTCHAR 0059
ENCODING 89
SWIDTH 514 0
DWIDTH 10 0
BBX 10 12 0 0
BITMAP
C0C0
60C0
6180
3180
3300
1A00
0E00
0C00
0C00
0C00
0C00
0C00
ENDCHAR
STARTCHAR 005A
ENCODING 90
SWIDTH 514 0
DWIDTH 10 0
BBX 8 12 1 0
BITMAP
FF
03
06
04
0C
08
18
10
30
60
40
FF
ENDCHAR
STARTCHAR 005B
ENCODING 91
SWIDTH 514 0
DWIDTH 10 0
BBX 5 17 3 -4
BITMAP
F8
C0
C0
C0
C0
C0
C0
C0
C0
C0
C0
C0
C0
C0
C0
C0
F8
ENDCHAR
STARTCHAR 005C
ENCODING 92
SWIDTH 514 0
DWIDTH 10 0
BBX 7 15 2 -2
BITMAP
80
C0
40
60
60
20
30
10
18
08
08
0C
04
06
02
ENDCHAR
STARTCHAR 005D
ENCODING 93
SWIDTH 514 0
DWIDTH 10 0
BBX 4 17 3 -4
BITMAP
F0
10
10
10
10
10
10
10
10
10
10
10
10
10
10
10
F0
ENDCHAR
STARTCHAR 005E
ENCODING 94
SWIDTH 514 0
DWIDTH 10 0
BBX 8 6 1 6
BITMAP
18
1C
24
26
43
C1
ENDCHAR
STARTCHAR 005F
ENCODING 95
SWIDTH 514 0
DWIDTH 10 0
BBX 10 1 0 -4
BITMAP
FFC0
ENDCHAR
STARTCHAR 0060
ENCODING 96
SWIDTH 514 0
DWIDTH 10 0
BBX 4 2 2 9
BITMAP
E0
30
ENDCHAR
STARTCHAR 0061
ENCODING 97
SWIDTH 514 0
DWIDTH 10 0
BBX 8 9 1 0
BITMAP
3E
43
03
03
3F
43
C3
C7
7B
ENDCHAR
STARTCHAR 0062
ENCODING 98
SWIDTH 514 0
DWIDTH 10 0
BBX 8 13 1 0
BITMAP
C0
C0
C0
C0
DE
F3
C1
C1
C1
C1
C3
C2
7C
ENDCHAR
STARTCHAR 0063
ENCODING 99
SWIDTH 514 0
DWIDTH 10 0
BBX 8 9 1 0
BITMAP
1E
31
60
40
C0
40
60
61
1E
ENDCHAR
STARTCHAR 0064
ENCODING 100
SWIDTH 514 0
DWIDTH 10 0
BBX 8 13 1 0
BITMAP
03
03
03
03
3F
63
C3
C3
C3
C3
C3
47
3B
ENDCHAR
STARTCHAR 0065
ENCODING 101
SWIDTH 514 0
DWIDTH 10 0
BBX 8 9 1 0
BITMAP
3E
63
C3
C1
FF
C0
C0
60
3F
ENDCHAR
STARTCHAR 0066
ENCODING 102
SWIDTH 514 0
DWIDTH 10 0
BBX 9 13 1 0
BITMAP
0F80
1800
1000
1000
1000
FF00
1000
1000
1000
1000
1000
1000
1000
ENDCHAR
STARTCHAR 0067
ENCODING 103
SWIDTH 514 0
DWIDTH 10 0
BBX 9 13 1 -4
BITMAP
3F80
6600
C300
C300
6600
7C00
C000
C000
7F00
C180
C180
C300
7E00
ENDCHAR
STARTCHAR 0068
ENCODING 104
SWIDTH 514 0
DWIDTH 10 0
BBX 8 13 1 0
BITMAP
C0
C0
C0
C0
DE
E3
C3
C3
C3
C3
C3
C3
C3
ENDCHAR
STARTCHAR 0069
ENCODING 105
SWIDTH 514 0
DWIDTH 10 0
BBX 7 13 2 0
BITMAP
30
30
00
00
F0
10
10
10
10
10
10
10
FE
ENDCHAR
STARTCHAR 006A
ENCODING 106
SWIDTH 514 0
DWIDTH 10 0
BBX 7 17 1 -4
BITMAP
06
06
00
00
7E
06
06
06
06
06
06
06
06
06
06
8C
78
ENDCHAR
STARTCHAR 006B
ENCODING 107
SWIDTH 514 0
DWIDTH 10 0
BBX 7 13 2 0
BITMAP
80
80
80
80
86
8C
98
B0
F0
98
9C
8C
86
ENDCHAR
STARTCHAR 006C
ENCODING 108
SWIDTH 514 0
DWIDTH 10 0
BBX 7 13 2 0
BITMAP
F0
10
10
10
10
10
10
10
10
10
10
10
FE
ENDCHAR
STARTCHAR 006D
ENCODING 109
SWIDTH 514 0
DWIDTH 10 0
BBX 9 9 1 0
BITMAP
B300
DD80
D980
9980
9980
9980
9980
9980
9980
ENDCHAR
STARTCHAR 006E
ENCODING 110
SWIDTH 514 0
DWIDTH 10 0
BBX 8 9 1 0
BITMAP
DE
E3
C3
C3
C3
C3
C3
C3
C3
ENDCHAR
STARTCHAR 006F
ENCODING 111
SWIDTH 514 0
DWIDTH 10 0
BBX 9 9 1 0
BITMAP
3E00
6300
C100
C180
C180
C100
C100
6300
3C00
ENDCHAR
STARTCHAR 0070
ENCODING 112
SWIDTH 514 0
DWIDTH 10 0
BBX 8 13 1 -4
BITMAP
DE
F3
C1
C1
C1
C1
C3
C2
FC
C0
C0
C0
C0
ENDCHAR
STARTCHAR 0071
ENCODING 113
SWIDTH 514 0
DWIDTH 10 0
BBX 8 13 1 -4
BITMAP
3F
63
C3
C3
C3
C3
C3
47
3B
03
03
03
03
ENDCHAR
STARTCHAR 0072
ENCODING 114
SWIDTH 514 0
DWIDTH 10 0
BBX 8 9 2 0
BITMAP
9E
E2
C3
C0
C0
C0
C0
C0
C0
ENDCHAR
STARTCHAR 0073
ENCODING 115
SWIDTH 514 0
DWIDTH 10 0
BBX 7 9 2 0
BITMAP
78
C4
80
E0
7C
0E
06
86
78
ENDCHAR
STARTCHAR 0074
ENCODING 116
SWIDTH 514 0
DWIDTH 10 0
BBX 8 12 1 0
BITMAP
30
30
30
FF
30
30
30
30
30
30
10
1F
ENDCHAR
STARTCHAR 0075
ENCODING 117
SWIDTH 514 0
DWIDTH 10 0
BBX 8 9 1 0
BITMAP
C3
C3
C3
C3
C3
C3
43
67
39
ENDCHAR
STARTCHAR 0076
ENCODING 118
SWIDTH 514 0
DWIDTH 10 0
BBX 9 9 1 0
BITMAP
C180
C300
4300
6200
6600
2600
3400
1C00
1800
ENDCHAR
STARTCHAR 0077
ENCODING 119
SWIDTH 514 0
DWIDTH 10 0
BBX 10 9 0 0
BITMAP
C0C0
40C0
4CC0
4CC0
4E80
6A80
7280
7380
3180
ENDCHAR
STARTCHAR 0078
ENCODING 120
SWIDTH 514 0
DWIDTH 10 0
BBX 8 9 1 0
BITMAP
C3
63
36
1C
18
3C
26
63
C3
ENDCHAR
STARTCHAR 0079
ENCODING 121
SWIDTH 514 0
DWIDTH 10 0
BBX 9 13 1 -4
BITMAP
C180
C300
4300
6200
6600
2400
3400
1C00
1800
1800
1000
3000
E000
ENDCHAR
STARTCHAR 007A
ENCODING 122
SWIDTH 514 0
DWIDTH 10 0
BBX 7 9 2 0
BITMAP
FE
0C
08
18
30
20
60
C0
FE
ENDCHAR
STARTCHAR 007B
ENCODING 123
SWIDTH 514 0
DWIDTH 10 0
BBX 7 17 1 -4
BITMAP
0E
08
18
18
18
18
18
10
E0
10
18
18
18
18
18
18
0E
ENDCHAR
STARTCHAR 007C
ENCODING 124
SWIDTH 514 0
DWIDTH 10 0
BBX 2 19 4 -4
BITMAP
C0
C0
C0
C0
C0
C0
C0
C0
C0
C0
C0
C0
C0
C0
C0
C0
C0
C0
C0
ENDCHAR
STARTCHAR 007D
ENCODING 125
SWIDTH 514 0
DWIDTH 10 0
BBX 7 17 2 -4
BITMAP
E0
30
10
10
10
10
10
18
06
18
10
10
10
10
10
30
E0
ENDCHAR
STARTCHAR 007E
ENCODING 126
SWIDTH 514 0
DWIDTH 10 0
BBX 9 4 1 3
BITMAP
7000
9980
8980
0700
ENDCHAR
STARTCHAR 00A0
ENCODING 160
SWIDTH 514 0
DWIDTH 10 0
BBX 0 0 0 0
BITMAP
ENDCHAR
STARTCHAR 00A1
ENCODING 161
SWIDTH 514 0
DWIDTH 10 0
BBX 2 13 4 -4
BITMAP
C0
C0
00
40
C0
C0
C0
C0
C0
C0
C0
C0
C0
ENDCHAR
STARTCHAR 00A2
ENCODING 162
SWIDTH 514 0
DWIDTH 10 0
BBX 7 16 1 -2
BITMAP
04
04
04
1E
6E
4C
CC
C8
C8
C8
6A
3E
18
18
10
10
ENDCHAR
STARTCHAR 00A3
ENCODING 163
SWIDTH 514 0
DWIDTH 10 0
BBX 8 12 1 0
BITMAP
1E
31
20
60
60
60
FE
60
60
60
60
FF
ENDCHAR
STARTCHAR 00A4
ENCODING 164
SWIDTH 514 0
DWIDTH 10 0
BBX 8 12 1 0
BITMAP
41
C3
7F
66
63
43
43
62
66
7F
C3
81
ENDCHAR
STARTCHAR 00A5
ENCODING 165
SWIDTH 514 0
DWIDTH 10 0
BBX 9 12 1 0
BITMAP
C180
C300
6300
2600
3400
1C00
1800
7F00
1800
1800
7F00
1800
ENDCHAR
STARTCHAR 00A6
ENCODING 166
SWIDTH 514 0
DWIDTH 10 0
BBX 2 19 4 -4
BITMAP
C0
C0
C0
C0
C0
C0
C0
C0
00
00
00
C0
C0
C0
C0
C0
C0
C0
C0
ENDCHAR
STARTCHAR 00A7
ENCODING 167
SWIDTH 514 0
DWIDTH 10 0
BBX 8 15 1 -2
BITMAP
1E
20
60
60
78
4E
C7
C3
61
3B
0E
06
02
06
7C
ENDCHAR
STARTCHAR 00A8
ENCODING 168
SWIDTH 514 0
DWIDTH 10 0
BBX 6 2 2 9
BITMAP
CC
CC
ENDCHAR
STARTCHAR 00A9
ENCODING 169
SWIDTH 514 0
DWIDTH 10 0
BBX 10 12 0 0
BITMAP
1E00
2180
4080
4E40
D840
9040
9040
D840
4E40
4080
2180
1E00
ENDCHAR
STARTCHAR 00AA
ENCODING 170
SWIDTH 514 0
DWIDTH 10 0
BBX 6 9 2 3
BITMAP
78
4C
0C
7C
CC
7C
00
00
FC
ENDCHAR
STARTCHAR 00AB
ENCODING 171
SWIDTH 514 0
DWIDTH 10 0
BBX 7 8 2 1
BITMAP
66
66
CC
88
88
CC
66
66
ENDCHAR
STARTCHAR 00AC
ENCODING 172
SWIDTH 514 0
DWIDTH 10 0
BBX 8 4 1 1
BITMAP
FF
03
03
03
ENDCHAR
STARTCHAR 00AD
ENCODING 173
SWIDTH 514 0
DWIDTH 10 0
BBX 6 1 2 4
BITMAP
FC
ENDCHAR
STARTCHAR 00AE
ENCODING 174
SWIDTH 514 0
DWIDTH 10 0
BBX 8 8 1 5
BITMAP
3C
43
9D
95
99
95
43
3C
ENDCHAR
STARTCHAR 00AF
ENCODING 175
SWIDTH 514 0
DWIDTH 10 0
BBX 5 1 3 9
BITMAP
F8
ENDCHAR
STARTCHAR 00B0
ENCODING 176
SWIDTH 514 0
DWIDTH 10 0
BBX 6 6 2 7
BITMAP
78
CC
C4
C4
CC
78
ENDCHAR
STARTCHAR 00B1
ENCODING 177
SWIDTH 514 0
DWIDTH 10 0
BBX 8 11 1 0
BITMAP
18
18
18
18
FF
18
18
18
18
00
FF
ENDCHAR
STARTCHAR 00B2
ENCODING 178
SWIDTH 514 0
DWIDTH 10 0
BBX 6 7 2 6
BITMAP
78
4C
0C
18
38
60
FC
ENDCHAR
STARTCHAR 00B3
ENCODING 179
SWIDTH 514 0
DWIDTH 10 0
BBX 5 7 3 6
BITMAP
F0
18
10
70
18
18
F0
ENDCHAR
STARTCHAR 00B4
ENCODING 180
SWIDTH 514 0
DWIDTH 10 0
BBX 3 2 5 9
BITMAP
60
C0
ENDCHAR
STARTCHAR 00B5
ENCODING 181
SWIDTH 514 0
DWIDTH 10 0
BBX 9 13 1 -4
BITMAP
C300
C300
C300
C300
C300
C300
C300
E700
F980
C000
C000
C000
C000
ENDCHAR
STARTCHAR 00B6
ENCODING 182
SWIDTH 514 0
DWIDTH 10 0
BBX 8 15 1 -2
BITMAP
3F
79
F9
F9
F9
F9
79
39
01
01
01
01
03
23
3C
ENDCHAR
STARTCHAR 00B7
ENCODING 183
SWIDTH 514 0
DWIDTH 10 0
BBX 3 3 4 4
BITMAP
C0
E0
C0
ENDCHAR
STARTCHAR 00B8
ENCODING 184
SWIDTH 514 0
DWIDTH 10 0
BBX 2 3 4 -3
BITMAP
40
C0
C0
ENDCHAR
STARTCHAR 00B9
ENCODING 185
SWIDTH 514 0
DWIDTH 10 0
BBX 6 7 2 6
BITMAP
30
70
D0
10
10
10
FC
ENDCHAR
STARTCHAR 00BA
ENCODING 186
SWIDTH 514 0
DWIDTH 10 0
BBX 6 9 2 3
BITMAP
78
CC
C4
C4
CC
78
00
00
FC
ENDCHAR
STARTCHAR 00BB
ENCODING 187
SWIDTH 514 0
DWIDTH 10 0
BBX 7 7 2 1
BITMAP
88
CC
44
26
44
CC
88
ENDCHAR
STARTCHAR 00BC
ENCODING 188
SWIDTH 514 0
DWIDTH 10 0
BBX 10 13 0 0
BITMAP
70C0
F080
3180
3300
3200
0600
0C00
0800
1980
3280
2680
67C0
4080
ENDCHAR
STARTCHAR 00BD
ENCODING 189
SWIDTH 514 0
DWIDTH 10 0
BBX 10 13 0 0
BITMAP
70C0
F080
3180
3300
3200
0600
0C00
0800
1B80
32C0
20C0
6100
43C0
ENDCHAR
STARTCHAR 00BE
ENCODING 190
SWIDTH 514 0
DWIDTH 10 0
BBX 9 13 1 0
BITMAP
E180
2100
E300
3600
E400
0C00
1800
1000
3300
6500
4D00
CF80
8100
ENDCHAR
STARTCHAR 00BF
ENCODING 191
SWIDTH 514 0
DWIDTH 10 0
BBX 6 13 2 -4
BITMAP
18
18
00
18
18
18
78
C0
C0
C0
C0
60
1C
ENDCHAR
STARTCHAR 00C0
ENCODING 192
SWIDTH 514 0
DWIDTH 10 0
BBX 10 15 0 0
BITMAP
1800
0C00
0000
0E00
0E00
1A00
1300
1300
3100
3180
2180
7F80
60C0
40C0
C0C0
ENDCHAR
STARTCHAR 00C1
ENCODING 193
SWIDTH 514 0
DWIDTH 10 0
BBX 10 15 0 0
BITMAP
0300
0600
0000
0E00
0E00
1A00
1300
1300
3100
3180
2180
7F80
60C0
40C0
C0C0
ENDCHAR
STARTCHAR 00C2
ENCODING 194
SWIDTH 514 0
DWIDTH 10 0
BBX 10 15 0 0
BITMAP
0E00
1B00
0000
0E00
0E00
1A00
1300
1300
3100
3180
2180
7F80
60C0
40C0
C0C0
ENDCHAR
STARTCHAR 00C3
ENCODING 195
SWIDTH 514 0
DWIDTH 10 0
BBX 10 15 0 0
BITMAP
3900
2700
0000
0E00
0E00
1A00
1300
1300
3100
3180
2180
7F80
60C0
40C0
C0C0
ENDCHAR
STARTCHAR 00C4
ENCODING 196
SWIDTH 514 0
DWIDTH 10 0
BBX 10 15 0 0
BITMAP
3300
3300
0000
0E00
0E00
1A00
1300
1300
3100
3180
2180
7F80
60C0
40C0
C0C0
ENDCHAR
STARTCHAR 00C5
ENCODING 197
SWIDTH 514 0
DWIDTH 10 0
BBX 10 16 0 0
BITMAP
0E00
1200
1200
0C00
0E00
0E00
1A00
1300
1300
3100
3180
2180
7F80
60C0
40C0
C0C0
ENDCHAR
STARTCHAR 00C6
ENCODING 198
SWIDTH 514 0
DWIDTH 10 0
BBX 10 12 0 0
BITMAP
0FC0
0E00
0E00
1600
1600
37C0
2600
6600
7E00
4600
C600
87C0
ENDCHAR
STARTCHAR 00C7
ENCODING 199
SWIDTH 514 0
DWIDTH 10 0
BBX 8 15 1 -3
BITMAP
1E
61
40
C0
C0
C0
C0
C0
C0
40
61
3E
08
18
18
ENDCHAR
STARTCHAR 00C8
ENCODING 200
SWIDTH 514 0
DWIDTH 10 0
BBX 7 15 2 0
BITMAP
60
30
00
FE
C0
C0
C0
C0
FE
C0
C0
C0
C0
C0
FE
ENDCHAR
STARTCHAR 00C9
ENCODING 201
SWIDTH 514 0
DWIDTH 10 0
BBX 7 15 2 0
BITMAP
0C
18
00
FE
C0
C0
C0
C0
FE
C0
C0
C0
C0
C0
FE
ENDCHAR
STARTCHAR 00CA
ENCODING 202
SWIDTH 514 0
DWIDTH 10 0
BBX 7 15 2 0
BITMAP
38
6C
00
FE
C0
C0
C0
C0
FE
C0
C0
C0
C0
C0
FE
ENDCHAR
STARTCHAR 00CB
ENCODING 203
SWIDTH 514 0
DWIDTH 10 0
BBX 7 15 2 0
BITMAP
CC
CC
00
FE
C0
C0
C0
C0
FE
C0
C0
C0
C0
C0
FE
ENDCHAR
STARTCHAR 00CC
ENCODING 204
SWIDTH 514 0
DWIDTH 10 0
BBX 7 15 2 0
BITMAP
60
30
00
FE
30
30
30
30
30
30
30
30
30
30
FE
ENDCHAR
STARTCHAR 00CD
ENCODING 205
SWIDTH 514 0
DWIDTH 10 0
BBX 7 15 2 0
BITMAP
0C
18
00
FE
30
30
30
30
30
30
30
30
30
30
FE
ENDCHAR
STARTCHAR 00CE
ENCODING 206
SWIDTH 514 0
DWIDTH 10 0
BBX 7 15 2 0
BITMAP
38
6C
00
FE
30
30
30
30
30
30
30
30
30
30
FE
ENDCHAR
STARTCHAR 00CF
ENCODING 207
SWIDTH 514 0
DWIDTH 10 0
BBX 7 15 2 0
BITMAP
CC
CC
00
FE
30
30
30
30
30
30
30
30
30
30
FE
ENDCHAR
STARTCHAR 00D0
ENCODING 208
SWIDTH 514 0
DWIDTH 10 0
BBX 10 12 0 0
BITMAP
7E00
6300
6180
6080
60C0
F8C0
60C0
60C0
6080
6180
6300
7E00
ENDCHAR
STARTCHAR 00D1
ENCODING 209
SWIDTH 514 0
DWIDTH 10 0
BBX 8 15 1 0
BITMAP
72
4E
00
C1
E1
E1
F1
D1
D9
C9
CD
C5
C7
C7
C3
ENDCHAR
STARTCHAR 00D2
ENCODING 210
SWIDTH 514 0
DWIDTH 10 0
BBX 9 15 1 0
BITMAP
3000
1800
0000
3E00
6300
C100
C180
8180
8180
8180
8180
C180
C100
6300
3C00
ENDCHAR
STARTCHAR 00D3
ENCODING 211
SWIDTH 514 0
DWIDTH 10 0
BBX 9 15 1 0
BITMAP
0600
0C00
0000
3E00
6300
C100
C180
8180
8180
8180
8180
C180
C100
6300
3C00
ENDCHAR
STARTCHAR 00D4
ENCODING 212
SWIDTH 514 0
DWIDTH 10 0
BBX 9 15 1 0
BITMAP
1C00
3600
0000
3E00
6300
C100
C180
8180
8180
8180
8180
C180
C100
6300
3C00
ENDCHAR
STARTCHAR 00D5
ENCODING 213
SWIDTH 514 0
DWIDTH 10 0
BBX 9 15 1 0
BITMAP
7200
4E00
0000
3E00
6300
C100
C180
8180
8180
8180
8180
C180
C100
6300
3C00
ENDCHAR
STARTCHAR 00D6
ENCODING 214
SWIDTH 514 0
DWIDTH 10 0
BBX 9 15 1 0
BITMAP
6600
6600
0000
3E00
6300
C100
C180
8180
8180
8180
8180
C180
C100
6300
3C00
ENDCHAR
STARTCHAR 00D7
ENCODING 215
SWIDTH 514 0
DWIDTH 10 0
BBX 8 8 1 1
BITMAP
41
63
76
3C
1C
3E
66
C3
ENDCHAR
STARTCHAR 00D8
ENCODING 216
SWIDTH 514 0
DWIDTH 10 0
BBX 9 16 1 -2
BITMAP
0200
0200
3E00
6700
C500
CD80
8980
8980
9980
9180
D180
D100
7300
3C00
2000
6000
ENDCHAR
STARTCHAR 00D9
ENCODING 217
SWIDTH 514 0
DWIDTH 10 0
BBX 8 15 1 0
BITMAP
30
18
00
C1
C1
C1
C1
C1
C1
C1
C1
C1
C1
43
3C
ENDCHAR
STARTCHAR 00DA
ENCODING 218
SWIDTH 514 0
DWIDTH 10 0
BBX 8 15 1 0
BITMAP
06
0C
00
C1
C1
C1
C1
C1
C1
C1
C1
C1
C1
43
3C
ENDCHAR
STARTCHAR 00DB
ENCODING 219
SWIDTH 514 0
DWIDTH 10 0
BBX 8 15 1 0
BITMAP
1C
36
00
C1
C1
C1
C1
C1
C1
C1
C1
C1
C1
43
3C
ENDCHAR
STARTCHAR 00DC
ENCODING 220
SWIDTH 514 0
DWIDTH 10 0
BBX 8 15 1 0
BITMAP
66
66
00
C1
C1
C1
C1
C1
C1
C1
C1
C1
C1
43
3C
ENDCHAR
STARTCHAR 00DD
ENCODING 221
SWIDTH 514 0
DWIDTH 10 0
BBX 10 15 0 0
BITMAP
0300
0600
0000
C0C0
60C0
6180
3180
3300
1A00
0E00
0C00
0C00
0C00
0C00
0C00
ENDCHAR
STARTCHAR 00DE
ENCODING 222
SWIDTH 514 0
DWIDTH 10 0
BBX 8 12 1 0
BITMAP
C0
C0
FC
C3
C3
C1
C1
C3
C2
FC
C0
C0
ENDCHAR
STARTCHAR 00DF
ENCODING 223
SWIDTH 514 0
DWIDTH 10 0
BBX 8 13 1 0
BITMAP
3C
62
43
C2
CE
C8
C8
CC
C7
C3
C1
C3
CE
ENDCHAR
STARTCHAR 00E0
ENCODING 224
SWIDTH 514 0
DWIDTH 10 0
BBX 8 13 1 0
BITMAP
70
18
00
00
3E
43
03
03
3F
43
C3
C7
7B
ENDCHAR
STARTCHAR 00E1
ENCODING 225
SWIDTH 514 0
DWIDTH 10 0
BBX 8 13 1 0
BITMAP
06
0C
00
00
3E
43
03
03
3F
43
C3
C7
7B
ENDCHAR
STARTCHAR 00E2
ENCODING 226
SWIDTH 514 0
DWIDTH 10 0
BBX 8 13 1 0
BITMAP
18
36
00
00
3E
43
03
03
3F
43
C3
C7
7B
ENDCHAR
STARTCHAR 00E3
ENCODING 227
SWIDTH 514 0
DWIDTH 10 0
BBX 8 13 1 0
BITMAP
72
4E
00
00
3E
43
03
03
3F
43
C3
C7
7B
ENDCHAR
STARTCHAR 00E4
ENCODING 228
SWIDTH 514 0
DWIDTH 10 0
BBX 8 13 1 0
BITMAP
66
66
00
00
3E
43
03
03
3F
43
C3
C7
7B
ENDCHAR
STARTCHAR 00E5
ENCODING 229
SWIDTH 514 0
DWIDTH 10 0
BBX 8 14 1 0
BITMAP
1C
24
24
1C
00
3E
43
03
03
3F
43
C3
C7
7B
ENDCHAR
STARTCHAR 00E6
ENCODING 230
SWIDTH 514 0
DWIDTH 10 0
BBX 10 9 0 0
BITMAP
3B80
4CC0
0CC0
0C40
7FC0
CC00
CC00
CE00
73C0
ENDCHAR
STARTCHAR 00E7
ENCODING 231
SWIDTH 514 0
DWIDTH 10 0
BBX 8 12 1 -3
BITMAP
1E
31
60
40
C0
40
60
61
3E
08
18
18
ENDCHAR
STARTCHAR 00E8
ENCODING 232
SWIDTH 514 0
DWIDTH 10 0
BBX 8 13 1 0
BITMAP
70
18
00
00
3E
63
C3
C1
FF
C0
C0
60
3F
ENDCHAR
STARTCHAR 00E9
ENCODING 233
SWIDTH 514 0
DWIDTH 10 0
BBX 8 13 1 0
BITMAP
06
0C
00
00
3E
63
C3
C1
FF
C0
C0
60
3F
ENDCHAR
STARTCHAR 00EA
ENCODING 234
SWIDTH 514 0
DWIDTH 10 0
BBX 8 13 1 0
BITMAP
18
36
00
00
3E
63
C3
C1
FF
C0
C0
60
3F
ENDCHAR
STARTCHAR 00EB
ENCODING 235
SWIDTH 514 0
DWIDTH 10 0
BBX 8 13 1 0
BITMAP
66
66
00
00
3E
63
C3
C1
FF
C0
C0
60
3F
ENDCHAR
STARTCHAR 00EC
ENCODING 236
SWIDTH 514 0
DWIDTH 10 0
BBX 7 13 2 0
BITMAP
E0
30
00
00
F0
10
10
10
10
10
10
10
FE
ENDCHAR
STARTCHAR 00ED
ENCODING 237
SWIDTH 514 0
DWIDTH 10 0
BBX 7 13 2 0
BITMAP
0C
18
00
00
F0
10
10
10
10
10
10
10
FE
ENDCHAR
STARTCHAR 00EE
ENCODING 238
SWIDTH 514 0
DWIDTH 10 0
BBX 7 13 2 0
BITMAP
30
6C
00
00
F0
10
10
10
10
10
10
10
FE
ENDCHAR
STARTCHAR 00EF
ENCODING 239
SWIDTH 514 0
DWIDTH 10 0
BBX 7 13 2 0
BITMAP
CC
CC
00
00
F0
10
10
10
10
10
10
10
FE
ENDCHAR
STARTCHAR 00F0
ENCODING 240
SWIDTH 514 0
DWIDTH 10 0
BBX 8 13 1 0
BITMAP
32
1C
6C
0E
3E
63
C3
C1
C1
C1
C3
62
3C
ENDCHAR
STARTCHAR 00F1
ENCODING 241
SWIDTH 514 0
DWIDTH 10 0
BBX 8 13 1 0
BITMAP
72
4E
00
00
DE
E3
C3
C3
C3
C3
C3
C3
C3
ENDCHAR
STARTCHAR 00F2
ENCODING 242
SWIDTH 514 0
DWIDTH 10 0
BBX 9 13 1 0
BITMAP
7000
1800
0000
0000
3E00
6300
C100
C180
C180
C100
C100
6300
3C00
ENDCHAR
STARTCHAR 00F3
ENCODING 243
SWIDTH 514 0
DWIDTH 10 0
BBX 9 13 1 0
BITMAP
0600
0C00
0000
0000
3E00
6300
C100
C180
C180
C100
C100
6300
3C00
ENDCHAR
STARTCHAR 00F4
ENCODING 244
SWIDTH 514 0
DWIDTH 10 0
BBX 9 13 1 0
BITMAP
1800
3600
0000
0000
3E00
6300
C100
C180
C180
C100
C100
6300
3C00
ENDCHAR
STARTCHAR 00F5
ENCODING 245
SWIDTH 514 0
DWIDTH 10 0
BBX 9 13 1 0
BITMAP
7200
4E00
0000
0000
3E00
6300
C100
C180
C180
C100
C100
6300
3C00
ENDCHAR
STARTCHAR 00F6
ENCODING 246
SWIDTH 514 0
DWIDTH 10 0
BBX 9 13 1 0
BITMAP
6600
6600
0000
0000
3E00
6300
C100
C180
C180
C100
C100
6300
3C00
ENDCHAR
STARTCHAR 00F7
ENCODING 247
SWIDTH 514 0
DWIDTH 10 0
BBX 9 9 1 0
BITMAP
1800
1800
0000
0000
FF80
0000
0000
1800
1800
ENDCHAR
STARTCHAR 00F8
ENCODING 248
SWIDTH 514 0
DWIDTH 10 0
BBX 9 13 1 -2
BITMAP
0200
0600
3E00
6700
CD00
C980
8980
D980
D100
7300
3C00
2000
6000
ENDCHAR
STARTCHAR 00F9
ENCODING 249
SWIDTH 514 0
DWIDTH 10 0
BBX 8 13 1 0
BITMAP
70
18
00
00
C3
C3
C3
C3
C3
C3
43
67
39
ENDCHAR
STARTCHAR 00FA
ENCODING 250
SWIDTH 514 0
DWIDTH 10 0
BBX 8 13 1 0
BITMAP
06
0C
00
00
C3
C3
C3
C3
C3
C3
43
67
39
ENDCHAR
STARTCHAR 00FB
ENCODING 251
SWIDTH 514 0
DWIDTH 10 0
BBX 8 13 1 0
BITMAP
18
36
00
00
C3
C3
C3
C3
C3
C3
43
67
39
ENDCHAR
STARTCHAR 00FC
ENCODING 252
SWIDTH 514 0
DWIDTH 10 0
BBX 8 13 1 0
BITMAP
66
66
00
00
C3
C3
C3
C3
C3
C3
43
67
39
ENDCHAR
STARTCHAR 00FD
ENCODING 253
SWIDTH 514 0
DWIDTH 10 0
BBX 9 17 1 -4
BITMAP
0600
0C00
0000
0000
C180
C300
4300
6200
6600
2400
3400
1C00
1800
1800
1000
3000
E000
ENDCHAR
STARTCHAR 00FE
ENCODING 254
SWIDTH 514 0
DWIDTH 10 0
BBX 8 17 1 -4
BITMAP
C0
C0
C0
C0
DE
F3
C1
C1
C1
C1
C3
C2
FC
C0
C0
C0
C0
ENDCHAR
STARTCHAR 00FF
ENCODING 255
SWIDTH 514 0
DWIDTH 10 0
BBX 9 17 1 -4
BITMAP
6600
6600
0000
0000
C180
C300
4300
6200
6600
2400
3400
1C00
1800
1800
1000
3000
E000
ENDCHAR
STARTCHAR 0100
ENCODING 256
SWIDTH 514 0
DWIDTH 10 0
BBX 10 15 0 0
BITMAP
1F00
0000
0000
0E00
0E00
1A00
1300
1300
3100
3180
2180
7F80
60C0
40C0
C0C0
ENDCHAR
STARTCHAR 0101
ENCODING 257
SWIDTH 514 0
DWIDTH 10 0
BBX 8 12 1 0
BITMAP
3E
00
00
3E
43
03
03
3F
43
C3
C7
7B
ENDCHAR
STARTCHAR 0102
ENCODING 258
SWIDTH 514 0
DWIDTH 10 0
BBX 10 15 0 0
BITMAP
1300
1E00
0000
0E00
0E00
1A00
1300
1300
3100
3180
2180
7F80
60C0
40C0
C0C0
ENDCHAR
STARTCHAR 0103
ENCODING 259
SWIDTH 514 0
DWIDTH 10 0
BBX 8 13 1 0
BITMAP
24
1C
00
00
3E
43
03
03
3F
43
C3
C7
7B
ENDCHAR
STARTCHAR 0104
ENCODING 260
SWIDTH 514 0
DWIDTH 10 0
BBX 11 16 0 -4
BITMAP
0E00
0E00
1A00
1300
1300
3100
3180
2180
7F80
60C0
40C0
C0C0
00C0
0080
0180
00E0
ENDCHAR
STARTCHAR 0105
ENCODING 261
SWIDTH 514 0
DWIDTH 10 0
BBX 8 13 1 -4
BITMAP
3E
43
03
03
3F
43
C3
C7
7B
03
06
06
03
ENDCHAR
STARTCHAR 0106
ENCODING 262
SWIDTH 514 0
DWIDTH 10 0
BBX 8 15 1 0
BITMAP
06
0C
00
1E
61
40
C0
C0
C0
C0
C0
C0
40
61
1E
ENDCHAR
STARTCHAR 0107
ENCODING 263
SWIDTH 514 0
DWIDTH 10 0
BBX 8 13 1 0
BITMAP
06
0C
00
00
1E
31
60
40
C0
40
60
61
1E
ENDCHAR
STARTCHAR 0108
ENCODING 264
SWIDTH 514 0
DWIDTH 10 0
BBX 8 15 1 0
BITMAP
1C
36
00
1E
61
40
C0
C0
C0
C0
C0
C0
40
61
1E
ENDCHAR
STARTCHAR 0109
ENCODING 265
SWIDTH 514 0
DWIDTH 10 0
BBX 8 13 1 0
BITMAP
1C
36
00
00
1E
31
60
40
C0
40
60
61
1E
ENDCHAR
STARTCHAR 010A
ENCODING 266
SWIDTH 514 0
DWIDTH 10 0
BBX 8 15 1 0
BITMAP
0C
0C
00
1E
61
40
C0
C0
C0
C0
C0
C0
40
61
1E
ENDCHAR
STARTCHAR 010B
ENCODING 267
SWIDTH 514 0
DWIDTH 10 0
BBX 8 13 1 0
BITMAP
0C
0C
00
00
1E
31
60
40
C0
40
60
61
1E
ENDCHAR
STARTCHAR 010C
ENCODING 268
SWIDTH 514 0
DWIDTH 10 0
BBX 8 15 1 0
BITMAP
36
1C
00
1E
61
40
C0
C0
C0
C0
C0
C0
40
61
1E
ENDCHAR
STARTCHAR 010D
ENCODING 269
SWIDTH 514 0
DWIDTH 10 0
BBX 8 13 1 0
BITMAP
36
0C
00
00
1E
31
60
40
C0
40
60
61
1E
ENDCHAR
STARTCHAR 010E
ENCODING 270
SWIDTH 514 0
DWIDTH 10 0
BBX 9 15 1 0
BITMAP
6C00
1800
0000
FC00
C600
C300
C100
C180
C180
C180
C180
C100
C300
C600
FC00
ENDCHAR
STARTCHAR 010F
ENCODING 271
SWIDTH 514 0
DWIDTH 10 0
BBX 10 14 1 0
BITMAP
0040
02C0
0280
0200
0200
3E00
4200
C200
8200
8200
8200
8600
CE00
7A00
ENDCHAR
STARTCHAR 0110
ENCODING 272
SWIDTH 514 0
DWIDTH 10 0
BBX 10 12 0 0
BITMAP
7E00
6300
6180
6080
60C0
F8C0
60C0
60C0
6080
6180
6300
7E00
ENDCHAR
STARTCHAR 0111
ENCODING 273
SWIDTH 514 0
DWIDTH 10 0
BBX 9 13 1 0
BITMAP
0300
0300
1F80
0300
3F00
6300
C300
C300
C300
C300
C300
4700
7B00
ENDCHAR
STARTCHAR 0112
ENCODING 274
SWIDTH 514 0
DWIDTH 10 0
BBX 7 15 2 0
BITMAP
7C
00
00
FE
C0
C0
C0
C0
FE
C0
C0
C0
C0
C0
FE
ENDCHAR
STARTCHAR 0113
ENCODING 275
SWIDTH 514 0
DWIDTH 10 0
BBX 8 12 1 0
BITMAP
3E
00
00
3E
63
C3
C1
FF
C0
C0
60
3F
ENDCHAR
STARTCHAR 0114
ENCODING 276
SWIDTH 514 0
DWIDTH 10 0
BBX 7 15 2 0
BITMAP
4C
78
00
FE
C0
C0
C0
C0
FE
C0
C0
C0
C0
C0
FE
ENDCHAR
STARTCHAR 0115
ENCODING 277
SWIDTH 514 0
DWIDTH 10 0
BBX 8 13 1 0
BITMAP
24
1C
00
00
3E
63
C3
C1
FF
C0
C0
60
3F
ENDCHAR
STARTCHAR 0116
ENCODING 278
SWIDTH 514 0
DWIDTH 10 0
BBX 7 15 2 0
BITMAP
30
30
00
FE
C0
C0
C0
C0
FE
C0
C0
C0
C0
C0
FE
ENDCHAR
STARTCHAR 0117
ENCODING 279
SWIDTH 514 0
DWIDTH 10 0
BBX 8 13 1 0
BITMAP
18
18
00
00
3E
63
C3
C1
FF
C0
C0
60
3F
ENDCHAR
STARTCHAR 0118
ENCODING 280
SWIDTH 514 0
DWIDTH 10 0
BBX 7 16 2 -4
BITMAP
FE
C0
C0
C0
C0
FE
C0
C0
C0
C0
C0
FE
04
0C
0C
06
ENDCHAR
STARTCHAR 0119
ENCODING 281
SWIDTH 514 0
DWIDTH 10 0
BBX 8 13 1 -4
BITMAP
3E
63
C3
C1
FF
C0
C0
60
3F
04
0C
0C
06
ENDCHAR
STARTCHAR 011A
ENCODING 282
SWIDTH 514 0
DWIDTH 10 0
BBX 7 15 2 0
BITMAP
6C
38
00
FE
C0
C0
C0
C0
FE
C0
C0
C0
C0
C0
FE
ENDCHAR
STARTCHAR 011B
ENCODING 283
SWIDTH 514 0
DWIDTH 10 0
BBX 8 13 1 0
BITMAP
36
18
00
00
3E
63
C3
C1
FF
C0
C0
60
3F
ENDCHAR
STARTCHAR 011C
ENCODING 284
SWIDTH 514 0
DWIDTH 10 0
BBX 8 15 1 0
BITMAP
1C
36
00
1F
61
40
C0
80
80
8F
81
C1
C1
61
3F
ENDCHAR
STARTCHAR 011D
ENCODING 285
SWIDTH 514 0
DWIDTH 10 0
BBX 9 17 1 -4
BITMAP
1800
3600
0000
0000
3F80
6600
C300
C300
6600
7C00
C000
C000
7F00
C180
C180
C300
7E00
ENDCHAR
STARTCHAR 011E
ENCODING 286
SWIDTH 514 0
DWIDTH 10 0
BBX 8 15 1 0
BITMAP
32
1E
00
1F
61
40
C0
80
80
8F
81
C1
C1
61
3F
ENDCHAR
STARTCHAR 011F
ENCODING 287
SWIDTH 514 0
DWIDTH 10 0
BBX 9 17 1 -4
BITMAP
2400
1C00
0000
0000
3F80
6600
C300
C300
6600
7C00
C000
C000
7F00
C180
C180
C300
7E00
ENDCHAR
STARTCHAR 0120
ENCODING 288
SWIDTH 514 0
DWIDTH 10 0
BBX 8 15 1 0
BITMAP
0C
0C
00
1F
61
40
C0
80
80
8F
81
C1
C1
61
3F
ENDCHAR
STARTCHAR 0121
ENCODING 289
SWIDTH 514 0
DWIDTH 10 0
BBX 9 17 1 -4
BITMAP
1800
1800
0000
0000
3F80
6600
C300
C300
6600
7C00
C000
C000
7F00
C180
C180
C300
7E00
ENDCHAR
STARTCHAR 0122
ENCODING 290
SWIDTH 514 0
DWIDTH 10 0
BBX 8 16 1 -4
BITMAP
1F
61
40
C0
80
80
8F
81
C1
C1
61
3F
00
08
18
18
ENDCHAR
STARTCHAR 0123
ENCODING 291
SWIDTH 514 0
DWIDTH 10 0
BBX 9 18 1 -4
BITMAP
0C00
0800
1800
0000
0000
3F80
6600
C300
C300
6600
7C00
C000
C000
7F00
C180
C180
C300
7E00
ENDCHAR
STARTCHAR 0124
ENCODING 292
SWIDTH 514 0
DWIDTH 10 0
BBX 8 15 1 0
BITMAP
1C
36
00
C1
C1
C1
C1
C1
FF
C1
C1
C1
C1
C1
C1
ENDCHAR
STARTCHAR 0125
ENCODING 293
SWIDTH 514 0
DWIDTH 10 0
BBX 8 16 1 0
BITMAP
1C
36
00
C0
C0
C0
C0
DE
E3
C3
C3
C3
C3
C3
C3
C3
ENDCHAR
STARTCHAR 0126
ENCODING 294
SWIDTH 514 0
DWIDTH 10 0
BBX 10 12 0 0
BITMAP
6180
6180
6180
FFC0
6180
6180
7F80
6180
6180
6180
6180
6180
ENDCHAR
STARTCHAR 0127
ENCODING 295
SWIDTH 514 0
DWIDTH 10 0
BBX 9 13 0 0
BITMAP
6000
FC00
6000
6000
6F00
7980
7180
6180
6180
6180
6180
6180
6180
ENDCHAR
STARTCHAR 0128
ENCODING 296
SWIDTH 514 0
DWIDTH 10 0
BBX 7 15 2 0
BITMAP
E4
9C
00
FE
30
30
30
30
30
30
30
30
30
30
FE
ENDCHAR
STARTCHAR 0129
ENCODING 297
SWIDTH 514 0
DWIDTH 10 0
BBX 7 13 2 0
BITMAP
E4
9C
00
00
F0
10
10
10
10
10
10
10
FE
ENDCHAR
STARTCHAR 012A
ENCODING 298
SWIDTH 514 0
DWIDTH 10 0
BBX 7 15 2 0
BITMAP
7C
00
00
FE
30
30
30
30
30
30
30
30
30
30
FE
ENDCHAR
STARTCHAR 012B
ENCODING 299
SWIDTH 514 0
DWIDTH 10 0
BBX 7 12 2 0
BITMAP
7C
00
00
F0
10
10
10
10
10
10
10
FE
ENDCHAR
STARTCHAR 012C
ENCODING 300
SWIDTH 514 0
DWIDTH 10 0
BBX 7 15 2 0
BITMAP
4C
78
00
FE
30
30
30
30
30
30
30
30
30
30
FE
ENDCHAR
STARTCHAR 012D
ENCODING 301
SWIDTH 514 0
DWIDTH 10 0
BBX 7 13 2 0
BITMAP
48
38
00
00
F0
10
10
10
10
10
10
10
FE
ENDCHAR
STARTCHAR 012E
ENCODING 302
SWIDTH 514 0
DWIDTH 10 0
BBX 7 16 2 -4
BITMAP
FE
30
30
30
30
30
30
30
30
30
30
FE
04
0C
0C
06
ENDCHAR
STARTCHAR 012F
ENCODING 303
SWIDTH 514 0
DWIDTH 10 0
BBX 8 16 2 -4
BITMAP
30
30
00
F0
10
10
10
10
10
10
10
FE
06
04
04
07
ENDCHAR
STARTCHAR 0130
ENCODING 304
SWIDTH 514 0
DWIDTH 10 0
BBX 7 15 2 0
BITMAP
30
30
00
FE
30
30
30
30
30
30
30
30
30
30
FE
ENDCHAR
STARTCHAR 0131
ENCODING 305
SWIDTH 514 0
DWIDTH 10 0
BBX 7 9 2 0
BITMAP
F0
10
10
10
10
10
10
10
FE
ENDCHAR
STARTCHAR 0132
ENCODING 306
SWIDTH 514 0
DWIDTH 10 0
BBX 8 12 1 0
BITMAP
C1
C1
C1
C1
C1
C1
C1
C1
C1
C1
C3
DE
ENDCHAR
STARTCHAR 0133
ENCODING 307
SWIDTH 514 0
DWIDTH 10 0
BBX 8 17 1 -4
BITMAP
C3
C3
00
00
C3
C3
C3
C3
C3
C3
C3
C3
C3
03
03
02
3C
ENDCHAR
STARTCHAR 0134
ENCODING 308
SWIDTH 514 0
DWIDTH 10 0
BBX 6 15 2 0
BITMAP
38
6C
00
FC
0C
0C
0C
0C
0C
0C
0C
0C
0C
8C
F0
ENDCHAR
STARTCHAR 0135
ENCODING 309
SWIDTH 514 0
DWIDTH 10 0
BBX 7 17 1 -4
BITMAP
18
36
00
00
7E
06
06
06
06
06
06
06
06
06
06
8C
78
ENDCHAR
STARTCHAR 0136
ENCODING 310
SWIDTH 514 0
DWIDTH 10 0
BBX 8 16 1 -4
BITMAP
C3
C6
C4
CC
D8
D0
F0
D8
CC
C6
C6
C3
00
08
18
18
ENDCHAR
STARTCHAR 0137
ENCODING 311
SWIDTH 514 0
DWIDTH 10 0
BBX 7 17 2 -4
BITMAP
80
80
80
80
86
8C
98
B0
F0
98
9C
8C
86
00
10
30
30
ENDCHAR
STARTCHAR 0138
ENCODING 312
SWIDTH 514 0
DWIDTH 10 0
BBX 7 9 2 0
BITMAP
86
8C
98
B0
F0
B8
98
8C
86
ENDCHAR
STARTCHAR 0139
ENCODING 313
SWIDTH 514 0
DWIDTH 10 0
BBX 7 15 2 0
BITMAP
0C
18
00
C0
C0
C0
C0
C0
C0
C0
C0
C0
C0
C0
FE
ENDCHAR
STARTCHAR 013A
ENCODING 314
SWIDTH 514 0
DWIDTH 10 0
BBX 7 16 2 0
BITMAP
0C
18
00
F0
10
10
10
10
10
10
10
10
10
10
10
FE
ENDCHAR
STARTCHAR 013B
ENCODING 315
SWIDTH 514 0
DWIDTH 10 0
BBX 7 16 2 -4
BITMAP
C0
C0
C0
C0
C0
C0
C0
C0
C0
C0
C0
FE
00
10
30
30
ENDCHAR
STARTCHAR 013C
ENCODING 316
SWIDTH 514 0
DWIDTH 10 0
BBX 7 17 2 -4
BITMAP
F0
10
10
10
10
10
10
10
10
10
10
10
FE
00
10
30
30
ENDCHAR
STARTCHAR 013D
ENCODING 317
SWIDTH 514 0
DWIDTH 10 0
BBX 7 14 2 0
BITMAP
06
06
C4
C0
C0
C0
C0
C0
C0
C0
C0
C0
C0
FE
ENDCHAR
STARTCHAR 013E
ENCODING 318
SWIDTH 514 0
DWIDTH 10 0
BBX 8 14 2 0
BITMAP
03
F3
12
10
10
10
10
10
10
10
10
10
10
FE
ENDCHAR
STARTCHAR 013F
ENCODING 319
SWIDTH 514 0
DWIDTH 10 0
BBX 8 12 2 0
BITMAP
80
80
80
80
80
83
87
83
80
80
80
FE
ENDCHAR
STARTCHAR 0140
ENCODING 320
SWIDTH 514 0
DWIDTH 10 0
BBX 11 13 1 0
BITMAP
F800
1800
1800
1800
1800
1800
18C0
18E0
18C0
1800
1800
1800
FF00
ENDCHAR
STARTCHAR 0141
ENCODING 321
SWIDTH 514 0
DWIDTH 10 0
BBX 9 12 0 0
BITMAP
3000
3000
3000
3200
3C00
3000
F000
3000
3000
3000
3000
3F80
ENDCHAR
STARTCHAR 0142
ENCODING 322
SWIDTH 514 0
DWIDTH 10 0
BBX 7 13 2 0
BITMAP
F0
10
10
12
1C
10
70
90
10
10
10
10
FE
ENDCHAR
STARTCHAR 0143
ENCODING 323
SWIDTH 514 0
DWIDTH 10 0
BBX 8 15 1 0
BITMAP
06
0C
00
C1
E1
E1
F1
D1
D9
C9
CD
C5
C7
C7
C3
ENDCHAR
STARTCHAR 0144
ENCODING 324
SWIDTH 514 0
DWIDTH 10 0
BBX 8 13 1 0
BITMAP
06
0C
00
00
DE
E3
C3
C3
C3
C3
C3
C3
C3
ENDCHAR
STARTCHAR 0145
ENCODING 325
SWIDTH 514 0
DWIDTH 10 0
BBX 8 16 1 -4
BITMAP
C1
E1
E1
F1
D1
D9
C9
CD
C5
C7
C7
C3
00
08
18
18
ENDCHAR
STARTCHAR 0146
ENCODING 326
SWIDTH 514 0
DWIDTH 10 0
BBX 8 13 1 -4
BITMAP
DE
E3
C3
C3
C3
C3
C3
C3
C3
00
08
18
18
ENDCHAR
STARTCHAR 0147
ENCODING 327
SWIDTH 514 0
DWIDTH 10 0
BBX 8 15 1 0
BITMAP
36
1C
00
C1
E1
E1
F1
D1
D9
C9
CD
C5
C7
C7
C3
ENDCHAR
STARTCHAR 0148
ENCODING 328
SWIDTH 514 0
DWIDTH 10 0
BBX 8 13 1 0
BITMAP
36
18
00
00
DE
E3
C3
C3
C3
C3
C3
C3
C3
ENDCHAR
STARTCHAR 0149
ENCODING 329
SWIDTH 514 0
DWIDTH 10 0
BBX 9 14 0 0
BITMAP
6000
6000
6000
C000
0000
2F00
3980
3080
2080
2080
2080
2080
2080
2080
ENDCHAR
STARTCHAR 014A
ENCODING 330
SWIDTH 514 0
DWIDTH 10 0
BBX 8 16 1 -4
BITMAP
C1
E1
E1
F1
D9
D9
CD
CD
C7
C7
C3
C1
01
01
03
06
ENDCHAR
STARTCHAR 014B
ENCODING 331
SWIDTH 514 0
DWIDTH 10 0
BBX 8 13 1 -4
BITMAP
DE
E3
C3
C3
C3
C3
C3
C3
C3
03
03
02
0C
ENDCHAR
STARTCHAR 014C
ENCODING 332
SWIDTH 514 0
DWIDTH 10 0
BBX 9 15 1 0
BITMAP
3E00
0000
0000
3E00
6300
C100
C180
8180
8180
8180
8180
C180
C100
6300
3C00
ENDCHAR
STARTCHAR 014D
ENCODING 333
SWIDTH 514 0
DWIDTH 10 0
BBX 9 12 1 0
BITMAP
3E00
0000
0000
3E00
6300
C100
C180
C180
C100
C100
6300
3C00
ENDCHAR
STARTCHAR 014E
ENCODING 334
SWIDTH 514 0
DWIDTH 10 0
BBX 9 15 1 0
BITMAP
2600
3C00
0000
3E00
6300
C100
C180
8180
8180
8180
8180
C180
C100
6300
3C00
ENDCHAR
STARTCHAR 014F
ENCODING 335
SWIDTH 514 0
DWIDTH 10 0
BBX 9 13 1 0
BITMAP
2400
1C00
0000
0000
3E00
6300
C100
C180
C180
C100
C100
6300
3C00
ENDCHAR
STARTCHAR 0150
ENCODING 336
SWIDTH 514 0
DWIDTH 10 0
BBX 9 15 1 0
BITMAP
1980
3300
0000
3E00
6300
C100
C180
8180
8180
8180
8180
C180
C100
6300
3C00
ENDCHAR
STARTCHAR 0151
ENCODING 337
SWIDTH 514 0
DWIDTH 10 0
BBX 9 13 1 0
BITMAP
1180
2200
0000
0000
3E00
6300
C100
C180
C180
C100
C100
6300
3C00
ENDCHAR
STARTCHAR 0152
ENCODING 338
SWIDTH 514 0
DWIDTH 10 0
BBX 10 12 0 0
BITMAP
1FC0
2600
6600
4600
C600
C7C0
C600
C600
4600
6600
6600
1FC0
ENDCHAR
STARTCHAR 0153
ENCODING 339
SWIDTH 514 0
DWIDTH 10 0
BBX 10 9 0 0
BITMAP
3B80
4EC0
4C40
C440
C7C0
C400
4C00
4E00
3BC0
ENDCHAR
STARTCHAR 0154
ENCODING 340
SWIDTH 514 0
DWIDTH 10 0
BBX 8 15 2 0
BITMAP
1C
30
00
F8
86
86
86
8C
F8
98
8C
8C
86
86
83
ENDCHAR
STARTCHAR 0155
ENCODING 341
SWIDTH 514 0
DWIDTH 10 0
BBX 8 13 2 0
BITMAP
0C
18
00
00
9E
E2
C3
C0
C0
C0
C0
C0
C0
ENDCHAR
STARTCHAR 0156
ENCODING 342
SWIDTH 514 0
DWIDTH 10 0
BBX 8 16 2 -4
BITMAP
F8
86
86
86
8C
F8
98
8C
8C
86
86
83
00
10
30
30
ENDCHAR
STARTCHAR 0157
ENCODING 343
SWIDTH 514 0
DWIDTH 10 0
BBX 8 13 2 -4
BITMAP
9E
E2
C3
C0
C0
C0
C0
C0
C0
00
10
30
30
ENDCHAR
STARTCHAR 0158
ENCODING 344
SWIDTH 514 0
DWIDTH 10 0
BBX 8 15 2 0
BITMAP
D8
30
00
F8
86
86
86
8C
F8
98
8C
8C
86
86
83
ENDCHAR
STARTCHAR 0159
ENCODING 345
SWIDTH 514 0
DWIDTH 10 0
BBX 8 13 2 0
BITMAP
6C
30
00
00
9E
E2
C3
C0
C0
C0
C0
C0
C0
ENDCHAR
STARTCHAR 015A
ENCODING 346
SWIDTH 514 0
DWIDTH 10 0
BBX 8 15 1 0
BITMAP
06
0C
00
3E
61
C0
C0
E0
78
0E
03
01
03
83
7C
ENDCHAR
STARTCHAR 015B
ENCODING 347
SWIDTH 514 0
DWIDTH 10 0
BBX 7 13 2 0
BITMAP
0C
18
00
00
78
C4
80
E0
7C
0E
06
86
78
ENDCHAR
STARTCHAR 015C
ENCODING 348
SWIDTH 514 0
DWIDTH 10 0
BBX 8 15 1 0
BITMAP
1C
36
00
3E
61
C0
C0
E0
78
0E
03
01
03
83
7C
ENDCHAR
STARTCHAR 015D
ENCODING 349
SWIDTH 514 0
DWIDTH 10 0
BBX 7 13 2 0
BITMAP
30
6C
00
00
78
C4
80
E0
7C
0E
06
86
78
ENDCHAR
STARTCHAR 015E
ENCODING 350
SWIDTH 514 0
DWIDTH 10 0
BBX 8 15 1 -3
BITMAP
3E
61
C0
C0
E0
78
0E
03
01
03
83
7E
18
10
10
ENDCHAR
STARTCHAR 015F
ENCODING 351
SWIDTH 514 0
DWIDTH 10 0
BBX 7 12 2 -3
BITMAP
78
C4
80
E0
78
0E
06
86
7C
30
30
20
ENDCHAR
STARTCHAR 0160
ENCODING 352
SWIDTH 514 0
DWIDTH 10 0
BBX 8 15 1 0
BITMAP
36
1C
00
3E
61
C0
C0
E0
78
0E
03
01
03
83
7C
ENDCHAR
STARTCHAR 0161
ENCODING 353
SWIDTH 514 0
DWIDTH 10 0
BBX 7 13 2 0
BITMAP
6C
30
00
00
78
C4
80
E0
7C
0E
06
86
78
ENDCHAR
STARTCHAR 0162
ENCODING 354
SWIDTH 514 0
DWIDTH 10 0
BBX 9 15 1 -3
BITMAP
FF80
1800
1800
1800
1800
1800
1800
1800
1800
1800
1800
1800
1800
1800
1000
ENDCHAR
STARTCHAR 0163
ENCODING 355
SWIDTH 514 0
DWIDTH 10 0
BBX 8 15 1 -3
BITMAP
30
30
30
FF
30
30
30
30
30
30
10
1F
0C
0C
08
ENDCHAR
STARTCHAR 0164
ENCODING 356
SWIDTH 514 0
DWIDTH 10 0
BBX 9 15 1 0
BITMAP
3600
1C00
0000
FF80
1800
1800
1800
1800
1800
1800
1800
1800
1800
1800
1800
ENDCHAR
STARTCHAR 0165
ENCODING 357
SWIDTH 514 0
DWIDTH 10 0
BBX 9 14 1 0
BITMAP
0180
0100
3100
3000
3000
FF00
3000
3000
3000
3000
3000
3000
1000
1F00
ENDCHAR
STARTCHAR 0166
ENCODING 358
SWIDTH 514 0
DWIDTH 10 0
BBX 9 12 1 0
BITMAP
FF80
1800
1800
1800
1800
1800
7F00
1800
1800
1800
1800
1800
ENDCHAR
STARTCHAR 0167
ENCODING 359
SWIDTH 514 0
DWIDTH 10 0
BBX 8 12 1 0
BITMAP
30
30
30
FF
30
30
30
FE
30
30
30
1F
ENDCHAR
STARTCHAR 0168
ENCODING 360
SWIDTH 514 0
DWIDTH 10 0
BBX 8 15 1 0
BITMAP
72
4E
00
C1
C1
C1
C1
C1
C1
C1
C1
C1
C1
43
3C
ENDCHAR
STARTCHAR 0169
ENCODING 361
SWIDTH 514 0
DWIDTH 10 0
BBX 8 13 1 0
BITMAP
72
4E
00
00
C3
C3
C3
C3
C3
C3
43
67
39
ENDCHAR
STARTCHAR 016A
ENCODING 362
SWIDTH 514 0
DWIDTH 10 0
BBX 8 15 1 0
BITMAP
3E
00
00
C1
C1
C1
C1
C1
C1
C1
C1
C1
C1
43
3C
ENDCHAR
STARTCHAR 016B
ENCODING 363
SWIDTH 514 0
DWIDTH 10 0
BBX 8 12 1 0
BITMAP
3E
00
00
C3
C3
C3
C3
C3
C3
43
67
39
ENDCHAR
STARTCHAR 016C
ENCODING 364
SWIDTH 514 0
DWIDTH 10 0
BBX 8 15 1 0
BITMAP
26
3C
00
C1
C1
C1
C1
C1
C1
C1
C1
C1
C1
43
3C
ENDCHAR
STARTCHAR 016D
ENCODING 365
SWIDTH 514 0
DWIDTH 10 0
BBX 8 13 1 0
BITMAP
24
1C
00
00
C3
C3
C3
C3
C3
C3
43
67
39
ENDCHAR
STARTCHAR 016E
ENCODING 366
SWIDTH 514 0
DWIDTH 10 0
BBX 8 16 1 0
BITMAP
1C
24
24
18
C1
C1
C1
C1
C1
C1
C1
C1
C1
C1
43
3C
ENDCHAR
STARTCHAR 016F
ENCODING 367
SWIDTH 514 0
DWIDTH 10 0
BBX 8 14 1 0
BITMAP
1C
24
24
1C
00
C3
C3
C3
C3
C3
C3
43
67
39
ENDCHAR
STARTCHAR 0170
ENCODING 368
SWIDTH 514 0
DWIDTH 10 0
BBX 9 15 1 0
BITMAP
1980
3300
0000
C100
C100
C100
C100
C100
C100
C100
C100
C100
C100
4300
3C00
ENDCHAR
STARTCHAR 0171
ENCODING 369
SWIDTH 514 0
DWIDTH 10 0
BBX 9 13 1 0
BITMAP
1180
2200
0000
0000
C300
C300
C300
C300
C300
C300
4300
6700
3900
ENDCHAR
STARTCHAR 0172
ENCODING 370
SWIDTH 514 0
DWIDTH 10 0
BBX 8 16 1 -4
BITMAP
C1
C1
C1
C1
C1
C1
C1
C1
C1
C1
43
3E
08
18
18
1C
ENDCHAR
STARTCHAR 0173
ENCODING 371
SWIDTH 514 0
DWIDTH 10 0
BBX 8 13 1 -4
BITMAP
C3
C3
C3
C3
C3
C3
43
67
39
03
02
06
03
ENDCHAR
STARTCHAR 0174
ENCODING 372
SWIDTH 514 0
DWIDTH 10 0
BBX 10 15 0 0
BITMAP
0E00
1B00
0000
C040
40C0
40C0
40C0
4CC0
4CC0
4EC0
4AC0
5280
7380
7180
6180
ENDCHAR
STARTCHAR 0175
ENCODING 373
SWIDTH 514 0
DWIDTH 10 0
BBX 10 13 0 0
BITMAP
0C00
1B00
0000
0000
C0C0
40C0
4CC0
4CC0
4E80
6A80
7280
7380
3180
ENDCHAR
STARTCHAR 0176
ENCODING 374
SWIDTH 514 0
DWIDTH 10 0
BBX 10 15 0 0
BITMAP
0E00
1B00
0000
C0C0
60C0
6180
3180
3300
1A00
0E00
0C00
0C00
0C00
0C00
0C00
ENDCHAR
STARTCHAR 0177
ENCODING 375
SWIDTH 514 0
DWIDTH 10 0
BBX 9 17 1 -4
BITMAP
1800
3600
0000
0000
C180
C300
4300
6200
6600
2400
3400
1C00
1800
1800
1000
3000
E000
ENDCHAR
STARTCHAR 0178
ENCODING 376
SWIDTH 514 0
DWIDTH 10 0
BBX 10 15 0 0
BITMAP
3300
3300
0000
C0C0
60C0
6180
3180
3300
1A00
0E00
0C00
0C00
0C00
0C00
0C00
ENDCHAR
STARTCHAR 0179
ENCODING 377
SWIDTH 514 0
DWIDTH 10 0
BBX 8 15 1 0
BITMAP
06
0C
00
FF
03
06
04
0C
08
18
10
30
60
40
FF
ENDCHAR
STARTCHAR 017A
ENCODING 378
SWIDTH 514 0
DWIDTH 10 0
BBX 7 13 2 0
BITMAP
0C
18
00
00
FE
0C
08
18
30
20
60
C0
FE
ENDCHAR
STARTCHAR 017B
ENCODING 379
SWIDTH 514 0
DWIDTH 10 0
BBX 8 15 1 0
BITMAP
18
18
00
FF
03
06
04
0C
08
18
10
30
60
40
FF
ENDCHAR
STARTCHAR 017C
ENCODING 380
SWIDTH 514 0
DWIDTH 10 0
BBX 7 13 2 0
BITMAP
30
30
00
00
FE
0C
08
18
30
20
60
C0
FE
ENDCHAR
STARTCHAR 017D
ENCODING 381
SWIDTH 514 0
DWIDTH 10 0
BBX 8 15 1 0
BITMAP
36
1C
00
FF
03
06
04
0C
08
18
10
30
60
40
FF
ENDCHAR
STARTCHAR 017E
ENCODING 382
SWIDTH 514 0
DWIDTH 10 0
BBX 7 13 2 0
BITMAP
6C
30
00
00
FE
0C
08
18
30
20
60
C0
FE
ENDCHAR
STARTCHAR 017F
ENCODING 383
SWIDTH 514 0
DWIDTH 10 0
BBX 7 13 3 0
BITMAP
3E
C0
C0
80
80
80
80
80
80
80
80
80
80
ENDCHAR
STARTCHAR 0180
ENCODING 384
SWIDTH 514 0
DWIDTH 10 0
BBX 9 13 0 0
BITMAP
6000
6000
FC00
6000
6F00
7980
6080
6080
6080
6080
6180
6100
3E00
ENDCHAR
STARTCHAR 0181
ENCODING 385
SWIDTH 514 0
DWIDTH 10 0
BBX 9 12 0 0
BITMAP
7F00
B180
B180
3180
3100
3F00
3180
3080
3080
3080
3180
3E00
ENDCHAR
STARTCHAR 0182
ENCODING 386
SWIDTH 514 0
DWIDTH 10 0
BBX 9 12 1 0
BITMAP
FF00
C000
C000
C000
C000
FE00
C300
C100
C180
C100
C300
FE00
ENDCHAR
STARTCHAR 0183
ENCODING 387
SWIDTH 514 0
DWIDTH 10 0
BBX 8 13 1 0
BITMAP
FE
C0
C0
C0
DE
F3
C1
C1
C1
C1
C3
C2
7C
ENDCHAR
STARTCHAR 0184
ENCODING 388
SWIDTH 514 0
DWIDTH 10 0
BBX 10 12 0 0
BITMAP
6000
E000
6000
6000
6000
7F00
6180
6080
60C0
6080
6180
7F00
ENDCHAR
STARTCHAR 0185
ENCODING 389
SWIDTH 514 0
DWIDTH 10 0
BBX 9 12 0 0
BITMAP
6000
E000
6000
6F00
7980
6080
6080
6080
6080
6180
6100
3E00
ENDCHAR
STARTCHAR 0186
ENCODING 390
SWIDTH 514 0
DWIDTH 10 0
BBX 9 12 1 0
BITMAP
FC00
8600
0300
0100
0180
0180
0180
0100
0300
0300
8600
FC00
ENDCHAR
STARTCHAR 0187
ENCODING 391
SWIDTH 514 0
DWIDTH 10 0
BBX 10 14 1 0
BITMAP
01C0
0100
1F00
6100
4000
C000
C000
C000
C000
C000
C000
4000
6100
1E00
ENDCHAR
STARTCHAR 0188
ENCODING 392
SWIDTH 514 0
DWIDTH 10 0
BBX 9 11 1 0
BITMAP
0180
0300
1F00
3100
6000
4000
C000
4000
6000
6100
1E00
ENDCHAR
STARTCHAR 0189
ENCODING 393
SWIDTH 514 0
DWIDTH 10 0
BBX 10 12 0 0
BITMAP
7E00
6300
6180
6080
60C0
F8C0
60C0
60C0
6080
6180
6300
7E00
ENDCHAR
STARTCHAR 018A
ENCODING 394
SWIDTH 514 0
DWIDTH 10 0
BBX 10 12 0 0
BITMAP
7E00
B300
B180
3080
30C0
30C0
30C0
30C0
3080
3180
3300
3E00
ENDCHAR
STARTCHAR 018B
ENCODING 395
SWIDTH 514 0
DWIDTH 10 0
BBX 8 12 1 0
BITMAP
7F
03
03
03
03
3F
C3
C3
C3
C3
43
3F
ENDCHAR
STARTCHAR 018C
ENCODING 396
SWIDTH 514 0
DWIDTH 10 0
BBX 8 13 1 0
BITMAP
7F
03
03
03
3F
63
C3
C3
C3
C3
C3
47
3B
ENDCHAR
STARTCHAR 018D
ENCODING 397
SWIDTH 514 0
DWIDTH 10 0
BBX 8 13 1 0
BITMAP
3C
63
C3
C1
C1
C1
E3
76
3C
1C
0C
04
7C
ENDCHAR
STARTCHAR 018E
ENCODING 398
SWIDTH 514 0
DWIDTH 10 0
BBX 7 12 2 0
BITMAP
FE
06
06
06
06
FE
06
06
06
06
06
FE
ENDCHAR
STARTCHAR 018F
ENCODING 399
SWIDTH 514 0
DWIDTH 10 0
BBX 9 12 1 0
BITMAP
FC00
0300
0100
0180
0180
FF80
8180
8180
8180
C100
6300
3C00
ENDCHAR
STARTCHAR 0190
ENCODING 400
SWIDTH 514 0
DWIDTH 10 0
BBX 8 12 1 0
BITMAP
3F
60
C0
40
60
3E
60
C0
C0
C0
60
3F
ENDCHAR
STARTCHAR 0191
ENCODING 401
SWIDTH 514 0
DWIDTH 10 0
BBX 9 15 0 -3
BITMAP
3F80
3000
3000
3000
3000
3F00
3000
3000
3000
3000
3000
3000
3000
2000
E000
ENDCHAR
STARTCHAR 0192
ENCODING 402
SWIDTH 514 0
DWIDTH 10 0
BBX 10 15 0 -2
BITMAP
03C0
0600
0400
0C00
0C00
0C00
7F80
0C00
0800
0800
0800
1800
1800
1800
F000
ENDCHAR
STARTCHAR 0193
ENCODING 403
SWIDTH 514 0
DWIDTH 10 0
BBX 10 14 1 0
BITMAP
01C0
0100
1F00
6000
4000
C000
8000
8000
8F00
8100
C100
C100
6100
3F00
ENDCHAR
STARTCHAR 0194
ENCODING 404
SWIDTH 514 0
DWIDTH 10 0
BBX 10 12 0 0
BITMAP
C0C0
60C0
6180
3100
1300
1A00
0E00
0C00
0E00
1A00
3300
3F80
ENDCHAR
STARTCHAR 0195
ENCODING 405
SWIDTH 514 0
DWIDTH 10 0
BBX 9 13 1 0
BITMAP
8000
8000
8000
8000
B180
D980
8980
8980
8980
8980
8980
8900
8700
ENDCHAR
STARTCHAR 0196
ENCODING 406
SWIDTH 514 0
DWIDTH 10 0
BBX 5 13 4 0
BITMAP
C0
C0
C0
C0
C0
C0
C0
C0
C0
C0
C0
C0
78
ENDCHAR
STARTCHAR 0197
ENCODING 407
SWIDTH 514 0
DWIDTH 10 0
BBX 7 12 2 0
BITMAP
FE
30
30
30
30
FC
30
30
30
30
30
FE
ENDCHAR
STARTCHAR 0198
ENCODING 408
SWIDTH 514 0
DWIDTH 10 0
BBX 8 12 1 0
BITMAP
C3
C6
CC
C8
D8
F0
F0
D8
CC
C6
C7
C3
ENDCHAR
STARTCHAR 0199
ENCODING 409
SWIDTH 514 0
DWIDTH 10 0
BBX 7 13 2 0
BITMAP
70
C0
80
80
86
8C
98
B0
F0
98
9C
8C
86
ENDCHAR
STARTCHAR 019A
ENCODING 410
SWIDTH 514 0
DWIDTH 10 0
BBX 7 13 2 0
BITMAP
F0
10
10
10
10
10
FC
10
10
10
10
10
FE
ENDCHAR
STARTCHAR 019B
ENCODING 411
SWIDTH 514 0
DWIDTH 10 0
BBX 9 13 1 0
BITMAP
7400
1C00
3800
5800
1800
1C00
3400
3600
2600
6200
4300
C300
C180
ENDCHAR
STARTCHAR 019C
ENCODING 412
SWIDTH 514 0
DWIDTH 10 0
BBX 9 12 1 0
BITMAP
9980
9980
9980
9980
9980
9980
9980
9980
9980
9980
9B80
EF80
ENDCHAR
STARTCHAR 019D
ENCODING 413
SWIDTH 514 0
DWIDTH 10 0
BBX 10 16 -1 -4
BITMAP
3040
3840
3840
3C40
3440
3640
3240
3340
3140
31C0
31C0
30C0
3000
3000
2000
E000
ENDCHAR
STARTCHAR 019E
ENCODING 414
SWIDTH 514 0
DWIDTH 10 0
BBX 8 13 1 -4
BITMAP
DE
E3
C3
43
43
43
43
43
43
03
03
03
03
ENDCHAR
STARTCHAR 019F
ENCODING 415
SWIDTH 514 0
DWIDTH 10 0
BBX 9 12 1 0
BITMAP
3E00
6300
C100
C180
8180
FF80
8180
8180
C180
C300
6300
3C00
ENDCHAR
STARTCHAR 01A0
ENCODING 416
SWIDTH 514 0
DWIDTH 10 0
BBX 10 13 1 0
BITMAP
00C0
3CC0
6380
C100
C180
8180
8180
8180
8180
C180
C100
6300
3C00
ENDCHAR
STARTCHAR 01A1
ENCODING 417
SWIDTH 514 0
DWIDTH 10 0
BBX 10 10 1 0
BITMAP
00C0
3CC0
4380
C300
8100
8100
8100
C300
C200
3C00
ENDCHAR
STARTCHAR 01A2
ENCODING 418
SWIDTH 514 0
DWIDTH 10 0
BBX 9 12 1 0
BITMAP
7F80
4980
C980
C980
C980
C980
C980
C980
C980
C980
4980
7980
ENDCHAR
STARTCHAR 01A3
ENCODING 419
SWIDTH 514 0
DWIDTH 10 0
BBX 9 9 1 0
BITMAP
7F80
C980
C980
8980
8980
8980
C980
C980
7980
ENDCHAR
STARTCHAR 01A4
ENCODING 420
SWIDTH 514 0
DWIDTH 10 0
BBX 10 12 0 0
BITMAP
7F00
9180
90C0
90C0
1080
1180
1F00
1000
1000
1000
1000
1000
ENDCHAR
STARTCHAR 01A5
ENCODING 421
SWIDTH 514 0
DWIDTH 10 0
BBX 8 17 1 -4
BITMAP
38
40
40
C0
DE
F3
C1
C1
C1
C1
C3
C2
FC
C0
C0
C0
C0
ENDCHAR
STARTCHAR 01A6
ENCODING 422
SWIDTH 514 0
DWIDTH 10 0
BBX 8 14 2 -2
BITMAP
80
F8
8C
86
86
86
8C
F8
98
8C
8C
86
06
03
ENDCHAR
STARTCHAR 01A7
ENCODING 423
SWIDTH 514 0
DWIDTH 10 0
BBX 8 12 1 0
BITMAP
7E
03
03
03
07
1C
70
E0
C0
C0
60
3F
ENDCHAR
STARTCHAR 01A8
ENCODING 424
SWIDTH 514 0
DWIDTH 10 0
BBX 7 9 2 0
BITMAP
FC
04
06
0C
78
E0
C0
C0
7E
ENDCHAR
STARTCHAR 01A9
ENCODING 425
SWIDTH 514 0
DWIDTH 10 0
BBX 8 12 1 0
BITMAP
FF
60
30
30
18
0C
08
18
30
60
60
FF
ENDCHAR
STARTCHAR 01AA
ENCODING 426
SWIDTH 514 0
DWIDTH 10 0
BBX 8 18 1 -4
BITMAP
70
D8
98
D8
78
18
18
18
18
18
18
18
18
18
18
18
08
0F
ENDCHAR
STARTCHAR 01AB
ENCODING 427
SWIDTH 514 0
DWIDTH 10 0
BBX 8 16 1 -4
BITMAP
30
30
30
FF
30
30
30
30
30
30
10
1F
01
01
03
0E
ENDCHAR
STARTCHAR 01AC
ENCODING 428
SWIDTH 514 0
DWIDTH 10 0
BBX 10 12 0 0
BITMAP
7FC0
CC00
8C00
8C00
0C00
0C00
0C00
0C00
0C00
0C00
0C00
0C00
ENDCHAR
STARTCHAR 01AD
ENCODING 429
SWIDTH 514 0
DWIDTH 10 0
BBX 8 13 1 0
BITMAP
1E
30
30
30
FF
30
30
30
30
30
30
10
1F
ENDCHAR
STARTCHAR 01AE
ENCODING 430
SWIDTH 514 0
DWIDTH 10 0
BBX 9 16 1 -4
BITMAP
FF80
1800
1800
1800
1800
1800
1800
1800
1800
1800
1800
1800
1800
1800
0800
0F00
ENDCHAR
STARTCHAR 01AF
ENCODING 431
SWIDTH 514 0
DWIDTH 10 0
BBX 10 14 1 0
BITMAP
00C0
00C0
C2C0
C380
C200
C200
C200
C200
C200
C200
C200
C200
4600
3C00
ENDCHAR
STARTCHAR 01B0
ENCODING 432
SWIDTH 514 0
DWIDTH 10 0
BBX 10 11 1 0
BITMAP
00C0
00C0
C280
C380
C200
C200
C200
C200
C600
CE00
7A00
ENDCHAR
STARTCHAR 01B1
ENCODING 433
SWIDTH 514 0
DWIDTH 10 0
BBX 10 12 0 0
BITMAP
F3C0
3100
6180
60C0
40C0
40C0
40C0
40C0
40C0
6080
3180
1E00
ENDCHAR
STARTCHAR 01B2
ENCODING 434
SWIDTH 514 0
DWIDTH 10 0
BBX 8 12 1 0
BITMAP
CF
C1
C1
C1
C1
C1
C1
C1
C1
C1
43
3C
ENDCHAR
STARTCHAR 01B3
ENCODING 435
SWIDTH 514 0
DWIDTH 10 0
BBX 10 12 0 0
BITMAP
C0C0
6180
2180
3100
1300
1A00
0E00
0C00
0C00
0C00
0C00
0C00
ENDCHAR
STARTCHAR 01B4
ENCODING 436
SWIDTH 514 0
DWIDTH 10 0
BBX 9 13 1 -4
BITMAP
C180
C300
4300
6200
6600
3600
3400
1C00
1800
1800
1800
3000
E000
ENDCHAR
STARTCHAR 01B5
ENCODING 437
SWIDTH 514 0
DWIDTH 10 0
BBX 8 12 1 0
BITMAP
FF
03
06
06
0C
7F
18
30
20
60
C0
FF
ENDCHAR
STARTCHAR 01B6
ENCODING 438
SWIDTH 514 0
DWIDTH 10 0
BBX 7 9 2 0
BITMAP
FE
0C
0C
18
FE
60
60
C0
FE
ENDCHAR
STARTCHAR 01B7
ENCODING 439
SWIDTH 514 0
DWIDTH 10 0
BBX 7 12 2 0
BITMAP
FC
0C
18
10
30
78
0C
06
06
06
0C
F8
ENDCHAR
STARTCHAR 01B8
ENCODING 440
SWIDTH 514 0
DWIDTH 10 0
BBX 7 12 2 0
BITMAP
FE
C0
60
30
18
78
C0
80
80
80
C0
3E
ENDCHAR
STARTCHAR 01B9
ENCODING 441
SWIDTH 514 0
DWIDTH 10 0
BBX 7 12 2 -3
BITMAP
FE
C0
60
30
18
78
C0
80
80
80
C0
3E
ENDCHAR
STARTCHAR 01BA
ENCODING 442
SWIDTH 514 0
DWIDTH 10 0
BBX 8 13 1 -4
BITMAP
7E
06
0C
10
3C
06
03
03
06
7C
C0
40
78
ENDCHAR
STARTCHAR 01BB
ENCODING 443
SWIDTH 514 0
DWIDTH 10 0
BBX 8 12 1 0
BITMAP
3C
66
43
03
03
02
7F
0C
18
30
60
FF
ENDCHAR
STARTCHAR 01BC
ENCODING 444
SWIDTH 514 0
DWIDTH 10 0
BBX 9 12 0 0
BITMAP
FF00
1000
3000
3000
3000
3E00
0380
0180
0180
0180
0300
3E00
ENDCHAR
STARTCHAR 01BD
ENCODING 445
SWIDTH 514 0
DWIDTH 10 0
BBX 8 9 1 0
BITMAP
FE
20
20
7C
03
03
03
06
7C
ENDCHAR
STARTCHAR 01BE
ENCODING 446
SWIDTH 514 0
DWIDTH 10 0
BBX 7 11 1 0
BITMAP
30
30
FC
30
38
0C
06
06
06
0C
78
ENDCHAR
STARTCHAR 01BF
ENCODING 447
SWIDTH 514 0
DWIDTH 10 0
BBX 8 13 1 -4
BITMAP
DE
F3
E1
C1
C1
C3
C3
CE
F8
C0
C0
C0
C0
ENDCHAR
STARTCHAR 01C0
ENCODING 448
SWIDTH 514 0
DWIDTH 10 0
BBX 2 19 4 -4
BITMAP
C0
C0
C0
C0
C0
C0
C0
C0
C0
C0
C0
C0
C0
C0
C0
C0
C0
C0
C0
ENDCHAR
STARTCHAR 01C1
ENCODING 449
SWIDTH 514 0
DWIDTH 10 0
BBX 5 19 3 -4
BITMAP
98
98
98
98
98
98
98
98
98
98
98
98
98
98
98
98
98
98
98
ENDCHAR
STARTCHAR 01C2
ENCODING 450
SWIDTH 514 0
DWIDTH 10 0
BBX 7 19 2 -4
BITMAP
30
30
30
30
30
30
FE
30
30
30
30
FE
30
30
30
30
30
30
30
ENDCHAR
STARTCHAR 01C3
ENCODING 451
SWIDTH 514 0
DWIDTH 10 0
BBX 2 13 4 0
BITMAP
C0
C0
C0
C0
C0
C0
C0
C0
C0
C0
00
C0
C0
ENDCHAR
STARTCHAR 01C4
ENCODING 452
SWIDTH 514 0
DWIDTH 10 0
BBX 9 15 1 0
BITMAP
0780
0300
0000
E780
B180
9180
9900
9900
9B00
9B00
9A00
9A00
9600
B600
E780
ENDCHAR
STARTCHAR 01C5
ENCODING 453
SWIDTH 514 0
DWIDTH 10 0
BBX 9 13 1 0
BITMAP
0780
E300
B000
9000
9F80
9980
9900
9900
9B00
9A00
9200
B600
E780
ENDCHAR
STARTCHAR 01C6
ENCODING 454
SWIDTH 514 0
DWIDTH 10 0
BBX 10 13 0 0
BITMAP
0D40
0D80
0C00
0C00
3FC0
4CC0
4CC0
CC80
CD80
CD00
4D00
4F00
7FC0
ENDCHAR
STARTCHAR 01C7
ENCODING 455
SWIDTH 514 0
DWIDTH 10 0
BBX 8 12 1 0
BITMAP
CF
C1
C1
C1
C1
C1
C1
C1
C1
C1
C3
F6
ENDCHAR
STARTCHAR 01C8
ENCODING 456
SWIDTH 514 0
DWIDTH 10 0
BBX 8 16 1 -4
BITMAP
C3
C3
C0
CF
C1
C1
C1
C1
C1
C1
C1
F1
01
01
03
1E
ENDCHAR
STARTCHAR 01C9
ENCODING 457
SWIDTH 514 0
DWIDTH 10 0
BBX 9 17 0 -4
BITMAP
F000
3180
3180
3000
3380
3080
3080
3080
3080
3080
3080
3080
FC80
0080
0080
0180
0F00
ENDCHAR
STARTCHAR 01CA
ENCODING 458
SWIDTH 514 0
DWIDTH 10 0
BBX 9 12 1 0
BITMAP
9B80
D980
D980
D980
D980
F980
B980
B980
A980
B980
9980
9B00
ENDCHAR
STARTCHAR 01CB
ENCODING 459
SWIDTH 514 0
DWIDTH 10 0
BBX 9 16 1 -4
BITMAP
9980
D980
D800
DB80
D980
F980
B980
B980
A980
B980
9980
9980
0180
0180
0100
0700
ENDCHAR
STARTCHAR 01CC
ENCODING 460
SWIDTH 514 0
DWIDTH 10 0
BBX 9 16 1 -4
BITMAP
0180
0180
0000
BB80
D980
9980
9980
9980
9980
9980
9980
9980
0180
0180
0100
0700
ENDCHAR
STARTCHAR 01CD
ENCODING 461
SWIDTH 514 0
DWIDTH 10 0
BBX 10 15 0 0
BITMAP
1B00
0E00
0000
0E00
0E00
1A00
1300
1300
3100
3180
2180
7F80
60C0
40C0
C0C0
ENDCHAR
STARTCHAR 01CE
ENCODING 462
SWIDTH 514 0
DWIDTH 10 0
BBX 8 13 1 0
BITMAP
36
18
00
00
3E
43
03
03
3F
43
C3
C7
7B
ENDCHAR
STARTCHAR 01CF
ENCODING 463
SWIDTH 514 0
DWIDTH 10 0
BBX 7 15 2 0
BITMAP
6C
38
00
FE
30
30
30
30
30
30
30
30
30
30
FE
ENDCHAR
STARTCHAR 01D0
ENCODING 464
SWIDTH 514 0
DWIDTH 10 0
BBX 7 13 2 0
BITMAP
6C
30
00
00
F0
10
10
10
10
10
10
10
FE
ENDCHAR
STARTCHAR 01D1
ENCODING 465
SWIDTH 514 0
DWIDTH 10 0
BBX 9 15 1 0
BITMAP
3600
1C00
0000
3E00
6300
C100
C180
8180
8180
8180
8180
C180
C100
6300
3C00
ENDCHAR
STARTCHAR 01D2
ENCODING 466
SWIDTH 514 0
DWIDTH 10 0
BBX 9 13 1 0
BITMAP
3600
1800
0000
0000
3E00
6300
C100
C180
C180
C100
C100
6300
3C00
ENDCHAR
STARTCHAR 01D3
ENCODING 467
SWIDTH 514 0
DWIDTH 10 0
BBX 8 15 1 0
BITMAP
36
1C
00
C1
C1
C1
C1
C1
C1
C1
C1
C1
C1
43
3C
ENDCHAR
STARTCHAR 01D4
ENCODING 468
SWIDTH 514 0
DWIDTH 10 0
BBX 8 13 1 0
BITMAP
36
18
00
00
C3
C3
C3
C3
C3
C3
43
67
39
ENDCHAR
STARTCHAR 01D5
ENCODING 469
SWIDTH 514 0
DWIDTH 10 0
BBX 8 18 1 0
BITMAP
3E
00
66
66
00
00
C1
C1
C1
C1
C1
C1
C1
C1
C1
C1
43
3C
ENDCHAR
STARTCHAR 01D6
ENCODING 470
SWIDTH 514 0
DWIDTH 10 0
BBX 8 15 1 0
BITMAP
3E
00
00
66
66
00
C3
C3
C3
C3
C3
C3
43
67
39
ENDCHAR
STARTCHAR 01D7
ENCODING 471
SWIDTH 514 0
DWIDTH 10 0
BBX 8 18 1 0
BITMAP
04
08
00
66
66
00
C1
C1
C1
C1
C1
C1
C1
C1
C1
C1
43
3C
ENDCHAR
STARTCHAR 01D8
ENCODING 472
SWIDTH 514 0
DWIDTH 10 0
BBX 8 15 1 0
BITMAP
04
08
00
66
66
00
C3
C3
C3
C3
C3
C3
43
67
39
ENDCHAR
STARTCHAR 01D9
ENCODING 473
SWIDTH 514 0
DWIDTH 10 0
BBX 8 18 1 0
BITMAP
34
18
00
66
66
00
C1
C1
C1
C1
C1
C1
C1
C1
C1
C1
43
3C
ENDCHAR
STARTCHAR 01DA
ENCODING 474
SWIDTH 514 0
DWIDTH 10 0
BBX 8 16 1 0
BITMAP
34
18
00
66
66
00
00
C3
C3
C3
C3
C3
C3
43
67
39
ENDCHAR
STARTCHAR 01DB
ENCODING 475
SWIDTH 514 0
DWIDTH 10 0
BBX 8 18 1 0
BITMAP
30
18
00
66
66
00
C1
C1
C1
C1
C1
C1
C1
C1
C1
C1
43
3C
ENDCHAR
STARTCHAR 01DC
ENCODING 476
SWIDTH 514 0
DWIDTH 10 0
BBX 8 15 1 0
BITMAP
30
18
00
66
66
00
C3
C3
C3
C3
C3
C3
43
67
39
ENDCHAR
STARTCHAR 01DD
ENCODING 477
SWIDTH 514 0
DWIDTH 10 0
BBX 8 9 1 0
BITMAP
7C
03
03
01
FF
C1
C3
62
3C
ENDCHAR
STARTCHAR 01DE
ENCODING 478
SWIDTH 514 0
DWIDTH 10 0
BBX 10 18 0 0
BITMAP
1F00
0000
3300
3300
0000
0000
0E00
0E00
1A00
1300
1300
3100
3180
2180
7F80
60C0
40C0
C0C0
ENDCHAR
STARTCHAR 01DF
ENCODING 479
SWIDTH 514 0
DWIDTH 10 0
BBX 8 15 1 0
BITMAP
3E
00
00
66
66
00
3E
43
03
03
3F
43
C3
C7
7B
ENDCHAR
STARTCHAR 01E0
ENCODING 480
SWIDTH 514 0
DWIDTH 10 0
BBX 10 18 0 0
BITMAP
1F00
0000
0C00
0C00
0000
0000
0E00
0E00
1A00
1300
1300
3100
3180
2180
7F80
60C0
40C0
C0C0
ENDCHAR
STARTCHAR 01E1
ENCODING 481
SWIDTH 514 0
DWIDTH 10 0
BBX 8 14 1 0
BITMAP
3E
00
18
18
00
3E
43
03
03
3F
43
C3
C7
7B
ENDCHAR
STARTCHAR 01E2
ENCODING 482
SWIDTH 514 0
DWIDTH 10 0
BBX 10 15 0 0
BITMAP
07C0
0000
0000
0FC0
0E00
0E00
1600
1600
37C0
2600
6600
7E00
4600
C600
87C0
ENDCHAR
STARTCHAR 01E3
ENCODING 483
SWIDTH 514 0
DWIDTH 10 0
BBX 10 12 0 0
BITMAP
1F00
0000
0000
3B80
4CC0
0CC0
0C40
7FC0
CC00
CC00
CE00
73C0
ENDCHAR
STARTCHAR 01E4
ENCODING 484
SWIDTH 514 0
DWIDTH 10 0
BBX 9 12 1 0
BITMAP
1F00
6000
4000
C000
8000
8000
8F00
8100
CF80
C100
6100
3F00
ENDCHAR
STARTCHAR 01E5
ENCODING 485
SWIDTH 514 0
DWIDTH 10 0
BBX 10 13 0 -4
BITMAP
1FC0
3300
2180
6180
3300
3E00
6000
6000
3F80
60C0
FFC0
6180
3F00
ENDCHAR
STARTCHAR 01E6
ENCODING 486
SWIDTH 514 0
DWIDTH 10 0
BBX 8 15 1 0
BITMAP
36
1C
00
1F
61
40
C0
80
80
8F
81
C1
C1
61
3F
ENDCHAR
STARTCHAR 01E7
ENCODING 487
SWIDTH 514 0
DWIDTH 10 0
BBX 9 17 1 -4
BITMAP
3600
1800
0000
0000
3F80
6600
C300
C300
6600
7C00
C000
C000
7F00
C180
C180
C300
7E00
ENDCHAR
STARTCHAR 01E8
ENCODING 488
SWIDTH 514 0
DWIDTH 10 0
BBX 8 15 1 0
BITMAP
34
18
00
C3
C6
C4
CC
D8
D0
F0
D8
CC
C6
C6
C3
ENDCHAR
STARTCHAR 01E9
ENCODING 489
SWIDTH 514 0
DWIDTH 10 0
BBX 7 15 2 0
BITMAP
6C
38
80
80
80
80
86
8C
98
B0
F0
98
9C
8C
86
ENDCHAR
STARTCHAR 01EA
ENCODING 490
SWIDTH 514 0
DWIDTH 10 0
BBX 9 16 1 -4
BITMAP
3E00
6300
C100
C180
8180
8180
8180
8180
C180
C100
6300
3C00
1800
1000
1000
1C00
ENDCHAR
STARTCHAR 01EB
ENCODING 491
SWIDTH 514 0
DWIDTH 10 0
BBX 9 13 1 -4
BITMAP
3E00
6300
C100
C180
C180
C100
C100
6300
3C00
1800
1000
1000
1C00
ENDCHAR
STARTCHAR 01EC
ENCODING 492
SWIDTH 514 0
DWIDTH 10 0
BBX 9 19 1 -4
BITMAP
3E00
0000
0000
3E00
6300
C100
C180
8180
8180
8180
8180
C180
C100
6300
3C00
1800
1000
1000
1C00
ENDCHAR
STARTCHAR 01ED
ENCODING 493
SWIDTH 514 0
DWIDTH 10 0
BBX 9 16 1 -4
BITMAP
3E00
0000
0000
3E00
6300
C100
C180
C180
C100
C100
6300
3C00
1800
1000
1000
1C00
ENDCHAR
STARTCHAR 01EE
ENCODING 494
SWIDTH 514 0
DWIDTH 10 0
BBX 7 15 2 0
BITMAP
6C
30
00
FC
0C
18
10
30
78
0C
06
06
06
0C
F8
ENDCHAR
STARTCHAR 01EF
ENCODING 495
SWIDTH 514 0
DWIDTH 10 0
BBX 7 16 2 -3
BITMAP
6C
30
00
00
FC
0C
18
10
30
78
0C
06
06
06
0C
F8
ENDCHAR
STARTCHAR 01F0
ENCODING 496
SWIDTH 514 0
DWIDTH 10 0
BBX 7 17 1 -4
BITMAP
6C
18
00
00
7E
06
06
06
06
06
06
06
06
06
06
8C
78
ENDCHAR
STARTCHAR 01F1
ENCODING 497
SWIDTH 514 0
DWIDTH 10 0
BBX 9 12 1 0
BITMAP
E780
B180
9180
9900
9900
9B00
9B00
9A00
9A00
9600
B600
E780
ENDCHAR
STARTCHAR 01F2
ENCODING 498
SWIDTH 514 0
DWIDTH 10 0
BBX 9 12 1 0
BITMAP
E000
B000
9000
9F80
9980
9900
9900
9B00
9A00
9200
B600
E780
ENDCHAR
STARTCHAR 01F3
ENCODING 499
SWIDTH 514 0
DWIDTH 10 0
BBX 10 13 0 0
BITMAP
0C00
0C00
0C00
0C00
3FC0
4CC0
4CC0
CC80
CD80
CD00
4D00
4F00
7FC0
ENDCHAR
STARTCHAR 01F4
ENCODING 500
SWIDTH 514 0
DWIDTH 10 0
BBX 8 15 1 0
BITMAP
06
0C
00
1F
61
40
C0
80
80
8F
81
C1
C1
61
3F
ENDCHAR
STARTCHAR 01F5
ENCODING 501
SWIDTH 514 0
DWIDTH 10 0
BBX 9 17 1 -4
BITMAP
0C00
1800
0000
0000
3F80
6600
C300
C300
6600
7C00
C000
C000
7F00
C180
C180
C300
7E00
ENDCHAR
STARTCHAR 01F6
ENCODING 502
SWIDTH 514 0
DWIDTH 10 0
BBX 9 12 1 0
BITMAP
8800
8800
8800
8980
8980
F980
8980
8980
8980
8980
8900
8700
ENDCHAR
STARTCHAR 01F7
ENCODING 503
SWIDTH 514 0
DWIDTH 10 0
BBX 8 16 1 -4
BITMAP
DE
E3
C1
C1
C1
C1
C3
C2
C6
CC
D8
E0
C0
C0
C0
C0
ENDCHAR
STARTCHAR 01F8
ENCODING 504
SWIDTH 514 0
DWIDTH 10 0
BBX 8 15 1 0
BITMAP
30
18
00
C1
E1
E1
F1
D1
D9
C9
CD
C5
C7
C7
C3
ENDCHAR
STARTCHAR 01F9
ENCODING 505
SWIDTH 514 0
DWIDTH 10 0
BBX 8 13 1 0
BITMAP
30
18
00
00
DE
E3
C3
C3
C3
C3
C3
C3
C3
ENDCHAR
STARTCHAR 01FA
ENCODING 506
SWIDTH 514 0
DWIDTH 10 0
BBX 10 18 0 0
BITMAP
0300
0600
0000
0E00
1200
0E00
0E00
0E00
1A00
1300
1300
3100
3180
2180
7F80
60C0
40C0
C0C0
ENDCHAR
STARTCHAR 01FB
ENCODING 507
SWIDTH 514 0
DWIDTH 10 0
BBX 8 17 1 0
BITMAP
06
0C
00
1C
24
24
1C
00
3E
43
03
03
3F
43
C3
C7
7B
ENDCHAR
STARTCHAR 01FC
ENCODING 508
SWIDTH 514 0
DWIDTH 10 0
BBX 10 15 0 0
BITMAP
0300
0600
0000
0FC0
0E00
0E00
1600
1600
37C0
2600
6600
7E00
4600
C600
87C0
ENDCHAR
STARTCHAR 01FD
ENCODING 509
SWIDTH 514 0
DWIDTH 10 0
BBX 10 13 0 0
BITMAP
0300
0600
0000
0000
3B80
4CC0
0CC0
0C40
7FC0
CC00
CC00
CE00
73C0
ENDCHAR
STARTCHAR 01FE
ENCODING 510
SWIDTH 514 0
DWIDTH 10 0
BBX 9 17 1 -2
BITMAP
0C00
1A00
0200
3E00
6700
C500
CD80
8980
8980
9980
9180
D180
D100
7300
3C00
2000
6000
ENDCHAR
STARTCHAR 01FF
ENCODING 511
SWIDTH 514 0
DWIDTH 10 0
BBX 9 15 1 -2
BITMAP
0C00
1800
0200
0600
3E00
6700
CD00
C980
8980
D980
D100
7300
3C00
2000
6000
ENDCHAR
STARTCHAR 0200
ENCODING 512
SWIDTH 514 0
DWIDTH 10 0
BBX 10 15 0 0
BITMAP
6600
3300
0000
0E00
0E00
1A00
1300
1300
3100
3180
2180
7F80
60C0
40C0
C0C0
ENDCHAR
STARTCHAR 0201
ENCODING 513
SWIDTH 514 0
DWIDTH 10 0
BBX 8 13 1 0
BITMAP
CC
66
00
00
3E
43
03
03
3F
43
C3
C7
7B
ENDCHAR
STARTCHAR 0202
ENCODING 514
SWIDTH 514 0
DWIDTH 10 0
BBX 10 15 0 0
BITMAP
1E00
1300
0000
0E00
0E00
1A00
1300
1300
3100
3180
2180
7F80
60C0
40C0
C0C0
ENDCHAR
STARTCHAR 0203
ENCODING 515
SWIDTH 514 0
DWIDTH 10 0
BBX 8 13 1 0
BITMAP
1C
24
00
00
3E
43
03
03
3F
43
C3
C7
7B
ENDCHAR
STARTCHAR 0204
ENCODING 516
SWIDTH 514 0
DWIDTH 10 0
BBX 8 15 1 0
BITMAP
CC
66
00
7F
60
60
60
60
7F
60
60
60
60
60
7F
ENDCHAR
STARTCHAR 0205
ENCODING 517
SWIDTH 514 0
DWIDTH 10 0
BBX 8 13 1 0
BITMAP
CC
66
00
00
3E
63
C3
C1
FF
C0
C0
60
3F
ENDCHAR
STARTCHAR 0206
ENCODING 518
SWIDTH 514 0
DWIDTH 10 0
BBX 7 15 2 0
BITMAP
78
4C
00
FE
C0
C0
C0
C0
FE
C0
C0
C0
C0
C0
FE
ENDCHAR
STARTCHAR 0207
ENCODING 519
SWIDTH 514 0
DWIDTH 10 0
BBX 8 13 1 0
BITMAP
1C
24
00
00
3E
63
C3
C1
FF
C0
C0
60
3F
ENDCHAR
STARTCHAR 0208
ENCODING 520
SWIDTH 514 0
DWIDTH 10 0
BBX 8 15 1 0
BITMAP
CC
66
00
7F
18
18
18
18
18
18
18
18
18
18
7F
ENDCHAR
STARTCHAR 0209
ENCODING 521
SWIDTH 514 0
DWIDTH 10 0
BBX 8 13 1 0
BITMAP
CC
66
00
00
78
08
08
08
08
08
08
08
7F
ENDCHAR
STARTCHAR 020A
ENCODING 522
SWIDTH 514 0
DWIDTH 10 0
BBX 7 15 2 0
BITMAP
78
4C
00
FE
30
30
30
30
30
30
30
30
30
30
FE
ENDCHAR
STARTCHAR 020B
ENCODING 523
SWIDTH 514 0
DWIDTH 10 0
BBX 7 13 2 0
BITMAP
38
48
00
00
F0
10
10
10
10
10
10
10
FE
ENDCHAR
STARTCHAR 020C
ENCODING 524
SWIDTH 514 0
DWIDTH 10 0
BBX 9 15 1 0
BITMAP
CC00
6600
0000
3E00
6300
C100
C180
8180
8180
8180
8180
C180
C100
6300
3C00
ENDCHAR
STARTCHAR 020D
ENCODING 525
SWIDTH 514 0
DWIDTH 10 0
BBX 9 13 1 0
BITMAP
CC00
6600
0000
0000
3E00
6300
C100
C180
C180
C100
C100
6300
3C00
ENDCHAR
STARTCHAR 020E
ENCODING 526
SWIDTH 514 0
DWIDTH 10 0
BBX 9 15 1 0
BITMAP
3C00
2600
0000
3E00
6300
C100
C180
8180
8180
8180
8180
C180
C100
6300
3C00
ENDCHAR
STARTCHAR 020F
ENCODING 527
SWIDTH 514 0
DWIDTH 10 0
BBX 9 13 1 0
BITMAP
1C00
2400
0000
0000
3E00
6300
C100
C180
C180
C100
C100
6300
3C00
ENDCHAR
STARTCHAR 0210
ENCODING 528
SWIDTH 514 0
DWIDTH 10 0
BBX 9 15 1 0
BITMAP
CC00
6600
0000
7C00
4300
4300
4300
4600
7C00
4C00
4600
4600
4300
4300
4180
ENDCHAR
STARTCHAR 0211
ENCODING 529
SWIDTH 514 0
DWIDTH 10 0
BBX 9 13 1 0
BITMAP
CC00
6600
0000
0000
4F00
7100
6180
6000
6000
6000
6000
6000
6000
ENDCHAR
STARTCHAR 0212
ENCODING 530
SWIDTH 514 0
DWIDTH 10 0
BBX 8 15 2 0
BITMAP
78
4C
00
F8
86
86
86
8C
F8
98
8C
8C
86
86
83
ENDCHAR
STARTCHAR 0213
ENCODING 531
SWIDTH 514 0
DWIDTH 10 0
BBX 8 13 2 0
BITMAP
38
48
00
00
9E
E2
C3
C0
C0
C0
C0
C0
C0
ENDCHAR
STARTCHAR 0214
ENCODING 532
SWIDTH 514 0
DWIDTH 10 0
BBX 8 15 1 0
BITMAP
CC
66
00
C1
C1
C1
C1
C1
C1
C1
C1
C1
C1
43
3C
ENDCHAR
STARTCHAR 0215
ENCODING 533
SWIDTH 514 0
DWIDTH 10 0
BBX 8 13 1 0
BITMAP
CC
66
00
00
C3
C3
C3
C3
C3
C3
43
67
39
ENDCHAR
STARTCHAR 0216
ENCODING 534
SWIDTH 514 0
DWIDTH 10 0
BBX 8 15 1 0
BITMAP
3C
26
00
C1
C1
C1
C1
C1
C1
C1
C1
C1
C1
43
3C
ENDCHAR
STARTCHAR 0217
ENCODING 535
SWIDTH 514 0
DWIDTH 10 0
BBX 8 13 1 0
BITMAP
1C
24
00
00
C3
C3
C3
C3
C3
C3
43
67
39
ENDCHAR
STARTCHAR 0218
ENCODING 536
SWIDTH 514 0
DWIDTH 10 0
BBX 8 16 1 -4
BITMAP
3E
61
C0
C0
E0
78
0E
03
01
03
83
7C
00
08
18
18
ENDCHAR
STARTCHAR 0219
ENCODING 537
SWIDTH 514 0
DWIDTH 10 0
BBX 7 13 2 -4
BITMAP
78
C4
80
E0
7C
0E
06
86
78
00
10
30
30
ENDCHAR
STARTCHAR 021A
ENCODING 538
SWIDTH 514 0
DWIDTH 10 0
BBX 9 16 1 -4
BITMAP
FF80
1800
1800
1800
1800
1800
1800
1800
1800
1800
1800
1800
0000
0800
1800
1800
ENDCHAR
STARTCHAR 021B
ENCODING 539
SWIDTH 514 0
DWIDTH 10 0
BBX 8 16 1 -4
BITMAP
30
30
30
FF
30
30
30
30
30
30
10
1F
00
08
18
18
ENDCHAR
STARTCHAR 021C
ENCODING 540
SWIDTH 514 0
DWIDTH 10 0
BBX 7 12 2 0
BITMAP
FC
0C
18
10
30
78
0C
06
06
06
0C
F8
ENDCHAR
STARTCHAR 021D
ENCODING 541
SWIDTH 514 0
DWIDTH 10 0
BBX 7 12 2 -3
BITMAP
FC
0C
18
10
30
78
0C
06
06
06
0C
F8
ENDCHAR
STARTCHAR 021E
ENCODING 542
SWIDTH 514 0
DWIDTH 10 0
BBX 8 15 1 0
BITMAP
36
1C
00
C1
C1
C1
C1
C1
FF
C1
C1
C1
C1
C1
C1
ENDCHAR
STARTCHAR 021F
ENCODING 543
SWIDTH 514 0
DWIDTH 10 0
BBX 8 16 1 0
BITMAP
36
1C
00
C0
C0
C0
C0
DE
E3
C3
C3
C3
C3
C3
C3
C3
ENDCHAR
STARTCHAR 0220
ENCODING 544
SWIDTH 514 0
DWIDTH 10 0
BBX 8 16 1 -4
BITMAP
DE
E3
C1
C1
C1
C1
C1
C1
C1
C1
C1
C1
01
01
01
01
ENDCHAR
STARTCHAR 0221
ENCODING 545
SWIDTH 514 0
DWIDTH 10 0
BBX 12 17 1 -4
BITMAP
0300
0300
0300
0300
3F00
6300
C300
C300
C300
C300
C300
4700
3B00
03E0
01B0
01B0
03E0
ENDCHAR
STARTCHAR 0222
ENCODING 546
SWIDTH 514 0
DWIDTH 10 0
BBX 8 12 1 0
BITMAP
43
C3
43
66
1C
76
43
C1
C1
C1
43
3E
ENDCHAR
STARTCHAR 0223
ENCODING 547
SWIDTH 514 0
DWIDTH 10 0
BBX 8 13 1 0
BITMAP
43
C3
43
66
1C
36
63
C3
C1
C1
C1
63
3E
ENDCHAR
STARTCHAR 0224
ENCODING 548
SWIDTH 514 0
DWIDTH 10 0
BBX 8 16 1 -4
BITMAP
FF
03
06
06
0C
08
18
30
30
60
40
FF
01
01
01
07
ENDCHAR
STARTCHAR 0225
ENCODING 549
SWIDTH 514 0
DWIDTH 10 0
BBX 8 13 1 -4
BITMAP
7F
06
06
0C
18
30
30
60
FF
03
03
03
0E
ENDCHAR
STARTCHAR 0226
ENCODING 550
SWIDTH 514 0
DWIDTH 10 0
BBX 10 15 0 0
BITMAP
0C00
0C00
0000
0E00
0E00
1A00
1300
1300
3100
3180
2180
7F80
60C0
40C0
C0C0
ENDCHAR
STARTCHAR 0227
ENCODING 551
SWIDTH 514 0
DWIDTH 10 0
BBX 8 13 1 0
BITMAP
18
18
00
00
3E
43
03
03
3F
43
C3
C7
7B
ENDCHAR
STARTCHAR 0228
ENCODING 552
SWIDTH 514 0
DWIDTH 10 0
BBX 7 15 2 -3
BITMAP
FE
C0
C0
C0
C0
FE
C0
C0
C0
C0
C0
FE
10
30
30
ENDCHAR
STARTCHAR 0229
ENCODING 553
SWIDTH 514 0
DWIDTH 10 0
BBX 8 12 1 -3
BITMAP
3E
63
C3
C1
FF
C0
C0
60
3F
08
18
18
ENDCHAR
STARTCHAR 022A
ENCODING 554
SWIDTH 514 0
DWIDTH 10 0
BBX 9 18 1 0
BITMAP
3E00
0000
6600
6600
0000
0000
3E00
6300
C100
C180
8180
8180
8180
8180
C180
C100
6300
3C00
ENDCHAR
STARTCHAR 022B
ENCODING 555
SWIDTH 514 0
DWIDTH 10 0
BBX 9 15 1 0
BITMAP
3E00
0000
0000
6600
6600
0000
3E00
6300
C100
C180
C180
C100
C100
6300
3C00
ENDCHAR
STARTCHAR 022C
ENCODING 556
SWIDTH 514 0
DWIDTH 10 0
BBX 9 17 1 0
BITMAP
3E00
0000
3200
4E00
0000
3E00
6300
C100
C180
8180
8180
8180
8180
C180
C100
6300
3C00
ENDCHAR
STARTCHAR 022D
ENCODING 557
SWIDTH 514 0
DWIDTH 10 0
BBX 9 15 1 0
BITMAP
3E00
0000
7200
4E00
0000
0000
3E00
6300
C100
C180
C180
C100
C100
6300
3C00
ENDCHAR
STARTCHAR 022E
ENCODING 558
SWIDTH 514 0
DWIDTH 10 0
BBX 9 15 1 0
BITMAP
1800
1800
0000
3E00
6300
C100
C180
8180
8180
8180
8180
C180
C100
6300
3C00
ENDCHAR
STARTCHAR 022F
ENCODING 559
SWIDTH 514 0
DWIDTH 10 0
BBX 9 13 1 0
BITMAP
1800
1800
0000
0000
3E00
6300
C100
C180
C180
C100
C100
6300
3C00
ENDCHAR
STARTCHAR 0230
ENCODING 560
SWIDTH 514 0
DWIDTH 10 0
BBX 9 18 1 0
BITMAP
3E00
0000
1800
1800
0000
0000
3E00
6300
C100
C180
8180
8180
8180
8180
C180
C100
6300
3C00
ENDCHAR
STARTCHAR 0231
ENCODING 561
SWIDTH 514 0
DWIDTH 10 0
BBX 9 14 1 0
BITMAP
3E00
0000
1800
1800
0000
3E00
6300
C100
C180
C180
C100
C100
6300
3C00
ENDCHAR
STARTCHAR 0232
ENCODING 562
SWIDTH 514 0
DWIDTH 10 0
BBX 10 15 0 0
BITMAP
1F00
0000
0000
C0C0
60C0
6180
3180
3300
1A00
0E00
0C00
0C00
0C00
0C00
0C00
ENDCHAR
STARTCHAR 0233
ENCODING 563
SWIDTH 514 0
DWIDTH 10 0
BBX 9 16 1 -4
BITMAP
3E00
0000
0000
C180
C300
4300
6200
6600
2400
3400
1C00
1800
1800
1000
3000
E000
ENDCHAR
STARTCHAR 0234
ENCODING 564
SWIDTH 514 0
DWIDTH 10 0
BBX 8 17 2 -4
BITMAP
F0
10
10
10
10
10
10
10
10
10
10
10
10
17
19
19
1F
ENDCHAR
STARTCHAR 0235
ENCODING 565
SWIDTH 514 0
DWIDTH 10 0
BBX 12 13 1 -4
BITMAP
DE00
E300
E300
C300
C300
C300
C300
C300
C300
03E0
01B0
01B0
03E0
ENDCHAR
STARTCHAR 0236
ENCODING 566
SWIDTH 514 0
DWIDTH 10 0
BBX 8 16 1 -4
BITMAP
30
30
30
FF
30
30
30
30
30
30
30
30
3E
3B
3B
2E
ENDCHAR
STARTCHAR 0237
ENCODING 567
SWIDTH 514 0
DWIDTH 10 0
BBX 7 13 1 -4
BITMAP
7E
06
06
06
06
06
06
06
06
06
06
8C
78
ENDCHAR
STARTCHAR 0238
ENCODING 568
SWIDTH 514 0
DWIDTH 10 0
BBX 9 13 1 0
BITMAP
1800
1800
1800
1800
7F00
D900
9980
9980
9980
9980
9980
D980
6F00
ENDCHAR
STARTCHAR 0239
ENCODING 569
SWIDTH 514 0
DWIDTH 10 0
BBX 9 13 1 -4
BITMAP
6F00
D980
9980
9980
9980
9980
9980
D900
7F00
1800
1800
1800
1800
ENDCHAR
STARTCHAR 023A
ENCODING 570
SWIDTH 514 0
DWIDTH 10 0
BBX 11 15 0 -2
BITMAP
0060
0EC0
0EC0
1B80
1300
1300
3700
3D80
2980
7F80
70C0
60C0
E0C0
C000
8000
ENDCHAR
STARTCHAR 023B
ENCODING 571
SWIDTH 514 0
DWIDTH 10 0
BBX 11 15 0 -2
BITMAP
0060
0F40
30C0
2180
6100
6300
6600
6400
6C00
7800
3000
3080
6F00
C000
8000
ENDCHAR
STARTCHAR 023C
ENCODING 572
SWIDTH 514 0
DWIDTH 10 0
BBX 9 12 1 -2
BITMAP
0180
1F00
3300
6600
4400
CC00
5800
7000
7100
7E00
4000
C000
ENDCHAR
STARTCHAR 023D
ENCODING 573
SWIDTH 514 0
DWIDTH 10 0
BBX 9 12 0 0
BITMAP
3000
3000
3000
3000
3000
FC00
3000
3000
3000
3000
3000
3F80
ENDCHAR
STARTCHAR 023E
ENCODING 574
SWIDTH 514 0
DWIDTH 10 0
BBX 11 15 0 -2
BITMAP
0020
7FE0
0CC0
0C80
0D80
0F00
0E00
0C00
0C00
1C00
1C00
3C00
6C00
4000
C000
ENDCHAR
STARTCHAR 023F
ENCODING 575
SWIDTH 514 0
DWIDTH 10 0
BBX 7 13 2 -4
BITMAP
7C
C0
80
E0
7C
0E
06
06
F8
30
30
18
0C
ENDCHAR
STARTCHAR 0240
ENCODING 576
SWIDTH 514 0
DWIDTH 10 0
BBX 8 13 2 -4
BITMAP
FE
0C
0C
18
30
60
60
C0
F0
18
08
0C
07
ENDCHAR
STARTCHAR 0241
ENCODING 577
SWIDTH 514 0
DWIDTH 10 0
BBX 5 13 3 0
BITMAP
E0
30
18
08
08
08
18
18
F0
C0
C0
C0
C0
ENDCHAR
STARTCHAR 0242
ENCODING 578
SWIDTH 514 0
DWIDTH 10 0
BBX 6 9 3 0
BITMAP
E0
38
18
0C
08
18
F0
C0
40
ENDCHAR
STARTCHAR 0243
ENCODING 579
SWIDTH 514 0
DWIDTH 10 0
BBX 9 12 0 0
BITMAP
7F00
6180
6180
6180
6100
7F00
6180
6080
F880
6080
6180
7E00
ENDCHAR
STARTCHAR 0244
ENCODING 580
SWIDTH 514 0
DWIDTH 10 0
BBX 10 12 0 0
BITMAP
6080
6080
6080
6080
6080
FFC0
6080
6080
6080
6080
3180
1E00
ENDCHAR
STARTCHAR 0245
ENCODING 581
SWIDTH 514 0
DWIDTH 10 0
BBX 10 12 0 0
BITMAP
0E00
0E00
1A00
1300
1300
3100
2180
2180
6180
60C0
40C0
C0C0
ENDCHAR
STARTCHAR 0246
ENCODING 582
SWIDTH 514 0
DWIDTH 10 0
BBX 11 15 0 -2
BITMAP
0060
3FC0
30C0
3180
3300
3200
3F80
3C00
3800
3800
3000
3000
7F80
C000
8000
ENDCHAR
STARTCHAR 0247
ENCODING 583
SWIDTH 514 0
DWIDTH 10 0
BBX 9 12 1 -2
BITMAP
0180
3F00
6300
C700
CD00
FF00
D800
F000
6000
7F00
C000
8000
ENDCHAR
STARTCHAR 0248
ENCODING 584
SWIDTH 514 0
DWIDTH 10 0
BBX 8 12 2 0
BITMAP
FC
0C
0C
0C
0C
3F
0C
0C
0C
0C
8C
F0
ENDCHAR
STARTCHAR 0249
ENCODING 585
SWIDTH 514 0
DWIDTH 10 0
BBX 9 17 1 -4
BITMAP
0600
0600
0000
0000
7E00
0600
0600
0600
1F80
0600
0600
0600
0600
0600
0600
8C00
7800
ENDCHAR
STARTCHAR 024A
ENCODING 586
SWIDTH 514 0
DWIDTH 10 0
BBX 10 16 1 -4
BITMAP
3F00
6300
C100
C100
8100
8100
8100
8100
C100
C300
6700
3D00
0100
0100
0100
01C0
ENDCHAR
STARTCHAR 024B
ENCODING 587
SWIDTH 514 0
DWIDTH 10 0
BBX 10 13 1 -4
BITMAP
3F00
6300
C300
C300
C300
C300
C300
4700
3B00
0300
0300
0300
01C0
ENDCHAR
STARTCHAR 024C
ENCODING 588
SWIDTH 514 0
DWIDTH 10 0
BBX 10 12 0 0
BITMAP
3E00
2180
2180
2180
2300
FE00
2600
2300
2300
2180
2180
20C0
ENDCHAR
STARTCHAR 024D
ENCODING 589
SWIDTH 514 0
DWIDTH 10 0
BBX 10 9 0 0
BITMAP
3780
38C0
30C0
3000
FC00
3000
3000
3000
3000
ENDCHAR
STARTCHAR 024E
ENCODING 590
SWIDTH 514 0
DWIDTH 10 0
BBX 10 12 0 0
BITMAP
C0C0
6080
FFC0
3300
1A00
1E00
0C00
0C00
0C00
0C00
0C00
0C00
ENDCHAR
STARTCHAR 024F
ENCODING 591
SWIDTH 514 0
DWIDTH 10 0
BBX 10 13 0 -4
BITMAP
60C0
6080
2180
3180
FFC0
1300
1A00
0E00
0E00
0C00
0C00
1800
7000
ENDCHAR
STARTCHAR 0250
ENCODING 592
SWIDTH 514 0
DWIDTH 10 0
BBX 8 9 1 0
BITMAP
DE
E3
C3
C3
FE
C0
C0
40
3E
ENDCHAR
STARTCHAR 0251
ENCODING 593
SWIDTH 514 0
DWIDTH 10 0
BBX 8 9 1 0
BITMAP
3F
63
C3
C3
C3
C3
C3
47
3B
ENDCHAR
STARTCHAR 0252
ENCODING 594
SWIDTH 514 0
DWIDTH 10 0
BBX 8 9 1 0
BITMAP
DE
F3
E1
C1
C1
C1
C3
C2
7C
ENDCHAR
STARTCHAR 0253
ENCODING 595
SWIDTH 514 0
DWIDTH 10 0
BBX 8 13 1 0
BITMAP
78
40
40
C0
DE
F3
E1
C1
C1
C1
C3
C2
7C
ENDCHAR
STARTCHAR 0254
ENCODING 596
SWIDTH 514 0
DWIDTH 10 0
BBX 7 9 2 0
BITMAP
F8
0C
06
06
06
06
06
0C
F8
ENDCHAR
STARTCHAR 0255
ENCODING 597
SWIDTH 514 0
DWIDTH 10 0
BBX 9 10 1 -1
BITMAP
1F00
3100
6000
4000
C000
4700
6580
6D00
1E00
0800
ENDCHAR
STARTCHAR 0256
ENCODING 598
SWIDTH 514 0
DWIDTH 10 0
BBX 10 17 1 -4
BITMAP
0300
0300
0300
0300
3F00
6300
C300
C300
C300
C300
C300
4700
3B00
0300
0300
0100
01C0
ENDCHAR
STARTCHAR 0257
ENCODING 599
SWIDTH 514 0
DWIDTH 10 0
BBX 10 13 1 0
BITMAP
01C0
0100
0300
0300
3F00
6300
C300
C300
C300
C300
C300
4700
3B00
ENDCHAR
STARTCHAR 0258
ENCODING 600
SWIDTH 514 0
DWIDTH 10 0
BBX 8 9 1 0
BITMAP
3C
62
C3
C1
FF
01
03
03
7C
ENDCHAR
STARTCHAR 0259
ENCODING 601
SWIDTH 514 0
DWIDTH 10 0
BBX 8 9 1 0
BITMAP
7C
03
03
01
FF
C1
C3
62
3C
ENDCHAR
STARTCHAR 025A
ENCODING 602
SWIDTH 514 0
DWIDTH 10 0
BBX 9 9 1 0
BITMAP
F800
0C00
0C00
0700
3F00
E480
8400
CC00
7800
ENDCHAR
STARTCHAR 025B
ENCODING 603
SWIDTH 514 0
DWIDTH 10 0
BBX 8 9 1 0
BITMAP
3F
60
40
60
3E
C0
C0
E0
3F
ENDCHAR
STARTCHAR 025C
ENCODING 604
SWIDTH 514 0
DWIDTH 10 0
BBX 8 9 1 0
BITMAP
FE
03
03
02
7C
03
03
03
FE
ENDCHAR
STARTCHAR 025D
ENCODING 605
SWIDTH 514 0
DWIDTH 10 0
BBX 9 9 1 0
BITMAP
FC00
0600
0600
0700
7D80
0600
0300
0600
FC00
ENDCHAR
STARTCHAR 025E
ENCODING 606
SWIDTH 514 0
DWIDTH 10 0
BBX 9 9 1 0
BITMAP
3E00
6300
C100
C300
CE00
C100
C180
6100
3E00
ENDCHAR
STARTCHAR 025F
ENCODING 607
SWIDTH 514 0
DWIDTH 10 0
BBX 9 13 1 -4
BITMAP
7E00
0600
0600
0600
3F80
0600
0600
0600
0600
0600
0600
8C00
F800
ENDCHAR
STARTCHAR 0260
ENCODING 608
SWIDTH 514 0
DWIDTH 10 0
BBX 10 17 1 -4
BITMAP
01C0
0100
0300
0300
3F00
6300
C300
C300
C300
C300
C300
4700
7B00
0300
0300
0300
7C00
ENDCHAR
STARTCHAR 0261
ENCODING 609
SWIDTH 514 0
DWIDTH 10 0
BBX 8 13 1 -4
BITMAP
3F
63
C3
C3
C3
C3
C3
47
7B
03
03
03
7E
ENDCHAR
STARTCHAR 0262
ENCODING 610
SWIDTH 514 0
DWIDTH 10 0
BBX 8 9 1 0
BITMAP
1F
31
60
40
CF
43
63
63
1F
ENDCHAR
STARTCHAR 0263
ENCODING 611
SWIDTH 514 0
DWIDTH 10 0
BBX 9 13 1 -4
BITMAP
C180
C300
4300
6200
2600
3400
3C00
1C00
1800
1C00
3400
3400
1C00
ENDCHAR
STARTCHAR 0264
ENCODING 612
SWIDTH 514 0
DWIDTH 10 0
BBX 8 9 1 0
BITMAP
C3
62
26
1C
18
1C
34
34
1C
ENDCHAR
STARTCHAR 0265
ENCODING 613
SWIDTH 514 0
DWIDTH 10 0
BBX 8 13 1 -4
BITMAP
C3
C3
C3
C3
C3
C3
43
67
3B
03
03
03
03
ENDCHAR
STARTCHAR 0266
ENCODING 614
SWIDTH 514 0
DWIDTH 10 0
BBX 8 13 1 0
BITMAP
38
40
40
C0
DE
F3
E3
C3
C3
C3
C3
C3
C3
ENDCHAR
STARTCHAR 0267
ENCODING 615
SWIDTH 514 0
DWIDTH 10 0
BBX 8 17 1 -4
BITMAP
38
40
40
C0
DE
F3
E3
C3
C3
C3
C3
C3
C3
03
03
03
0E
ENDCHAR
STARTCHAR 0268
ENCODING 616
SWIDTH 514 0
DWIDTH 10 0
BBX 7 13 2 0
BITMAP
30
30
00
00
F0
10
10
10
FC
10
10
10
FE
ENDCHAR
STARTCHAR 0269
ENCODING 617
SWIDTH 514 0
DWIDTH 10 0
BBX 8 9 1 0
BITMAP
F8
18
18
18
18
18
18
08
0F
ENDCHAR
STARTCHAR 026A
ENCODING 618
SWIDTH 514 0
DWIDTH 10 0
BBX 7 9 2 0
BITMAP
FE
30
30
30
30
30
30
30
FE
ENDCHAR
STARTCHAR 026B
ENCODING 619
SWIDTH 514 0
DWIDTH 10 0
BBX 7 13 2 0
BITMAP
F0
10
10
10
10
10
72
9C
10
10
10
10
FE
ENDCHAR
STARTCHAR 026C
ENCODING 620
SWIDTH 514 0
DWIDTH 10 0
BBX 9 13 0 0
BITMAP
3C00
0400
0400
0400
0400
6400
9400
7F80
0400
0400
0400
0400
3F80
ENDCHAR
STARTCHAR 026D
ENCODING 621
SWIDTH 514 0
DWIDTH 10 0
BBX 7 17 2 -4
BITMAP
F0
10
10
10
10
10
10
10
10
10
10
10
10
10
10
18
0E
ENDCHAR
STARTCHAR 026E
ENCODING 622
SWIDTH 514 0
DWIDTH 10 0
BBX 10 16 0 -3
BITMAP
F000
3000
3000
3000
3F80
3180
3100
3300
3600
3700
3180
30C0
30C0
00C0
0180
1F00
ENDCHAR
STARTCHAR 026F
ENCODING 623
SWIDTH 514 0
DWIDTH 10 0
BBX 9 9 1 0
BITMAP
9980
9980
9980
9980
9980
9980
9980
9B80
ED80
ENDCHAR
STARTCHAR 0270
ENCODING 624
SWIDTH 514 0
DWIDTH 10 0
BBX 9 13 1 -4
BITMAP
9980
9980
9980
9980
9980
9980
9980
9B80
ED80
0180
0180
0180
0180
ENDCHAR
STARTCHAR 0271
ENCODING 625
SWIDTH 514 0
DWIDTH 10 0
BBX 9 13 1 -4
BITMAP
B300
DD80
D980
9980
9980
9980
9980
9980
9980
0180
0180
0100
0700
ENDCHAR
STARTCHAR 0272
ENCODING 626
SWIDTH 514 0
DWIDTH 10 0
BBX 10 13 -1 -4
BITMAP
3780
3CC0
38C0
30C0
30C0
30C0
30C0
30C0
30C0
3000
3000
3000
E000
ENDCHAR
STARTCHAR 0273
ENCODING 627
SWIDTH 514 0
DWIDTH 10 0
BBX 10 13 1 -4
BITMAP
DE00
E300
E300
C300
C300
C300
C300
C300
C300
0300
0300
0100
01C0
ENDCHAR
STARTCHAR 0274
ENCODING 628
SWIDTH 514 0
DWIDTH 10 0
BBX 8 9 1 0
BITMAP
C3
E3
F3
D3
DB
CF
C7
C7
C3
ENDCHAR
STARTCHAR 0275
ENCODING 629
SWIDTH 514 0
DWIDTH 10 0
BBX 9 9 1 0
BITMAP
3E00
6300
C100
C180
FF80
C100
C100
6300
3C00
ENDCHAR
STARTCHAR 0276
ENCODING 630
SWIDTH 514 0
DWIDTH 10 0
BBX 9 9 1 0
BITMAP
3F80
4C00
CC00
CC00
CF80
CC00
CC00
CC00
7F80
ENDCHAR
STARTCHAR 0277
ENCODING 631
SWIDTH 514 0
DWIDTH 10 0
BBX 9 9 1 0
BITMAP
3E00
6300
C100
8180
8180
9980
9980
D900
7F00
ENDCHAR
STARTCHAR 0278
ENCODING 632
SWIDTH 514 0
DWIDTH 10 0
BBX 10 17 0 -4
BITMAP
0C00
0C00
0C00
0C00
1F00
6D80
4CC0
CCC0
CCC0
CCC0
4CC0
6D80
3F00
0C00
0C00
0C00
0C00
ENDCHAR
STARTCHAR 0279
ENCODING 633
SWIDTH 514 0
DWIDTH 10 0
BBX 8 9 1 0
BITMAP
03
03
03
03
03
C3
C7
CF
7B
ENDCHAR
STARTCHAR 027A
ENCODING 634
SWIDTH 514 0
DWIDTH 10 0
BBX 8 13 1 0
BITMAP
03
03
03
03
03
03
03
03
03
C3
C7
CF
7B
ENDCHAR
STARTCHAR 027B
ENCODING 635
SWIDTH 514 0
DWIDTH 10 0
BBX 10 13 1 -4
BITMAP
0300
0300
0300
0300
0300
C300
C700
CF00
7B00
0300
0300
0300
01C0
ENDCHAR
STARTCHAR 027C
ENCODING 636
SWIDTH 514 0
DWIDTH 10 0
BBX 8 13 2 -4
BITMAP
9C
A6
C2
C3
C0
C0
C0
C0
C0
C0
C0
C0
C0
ENDCHAR
STARTCHAR 027D
ENCODING 637
SWIDTH 514 0
DWIDTH 10 0
BBX 8 13 2 -4
BITMAP
9C
A6
C2
C3
C0
C0
C0
C0
C0
C0
C0
C0
70
ENDCHAR
STARTCHAR 027E
ENCODING 638
SWIDTH 514 0
DWIDTH 10 0
BBX 8 9 2 0
BITMAP
7C
C6
C2
C3
C0
C0
C0
C0
C0
ENDCHAR
STARTCHAR 027F
ENCODING 639
SWIDTH 514 0
DWIDTH 10 0
BBX 8 9 1 0
BITMAP
3C
46
C2
C3
03
03
03
03
03
ENDCHAR
STARTCHAR 0280
ENCODING 640
SWIDTH 514 0
DWIDTH 10 0
BBX 7 9 2 0
BITMAP
FC
86
86
86
F8
88
8C
86
86
ENDCHAR
STARTCHAR 0281
ENCODING 641
SWIDTH 514 0
DWIDTH 10 0
BBX 7 9 2 0
BITMAP
86
86
8C
88
F8
86
86
86
FC
ENDCHAR
STARTCHAR 0282
ENCODING 642
SWIDTH 514 0
DWIDTH 10 0
BBX 7 13 2 -4
BITMAP
7C
C0
80
E0
7C
0E
06
86
F8
80
80
C0
60
ENDCHAR
STARTCHAR 0283
ENCODING 643
SWIDTH 514 0
DWIDTH 10 0
BBX 8 17 1 -4
BITMAP
07
08
18
18
18
18
18
18
18
18
18
18
18
18
18
18
F0
ENDCHAR
STARTCHAR 0284
ENCODING 644
SWIDTH 514 0
DWIDTH 10 0
BBX 8 17 1 -4
BITMAP
07
08
18
18
18
18
18
18
18
18
18
18
7E
18
18
18
F0
ENDCHAR
STARTCHAR 0285
ENCODING 645
SWIDTH 514 0
DWIDTH 10 0
BBX 8 17 1 -4
BITMAP
F0
18
18
18
18
18
18
18
18
18
18
18
18
18
08
08
07
ENDCHAR
STARTCHAR 0286
ENCODING 646
SWIDTH 514 0
DWIDTH 10 0
BBX 8 17 1 -4
BITMAP
07
08
18
18
18
18
18
18
18
18
18
18
18
F8
98
98
E8
ENDCHAR
STARTCHAR 0287
ENCODING 647
SWIDTH 514 0
DWIDTH 10 0
BBX 9 12 1 0
BITMAP
F800
0C00
0400
0400
0400
0400
0400
0400
FF80
0400
0400
0400
ENDCHAR
STARTCHAR 0288
ENCODING 648
SWIDTH 514 0
DWIDTH 10 0
BBX 8 16 1 -4
BITMAP
30
30
30
FF
30
30
30
30
30
30
30
30
30
30
10
1F
ENDCHAR
STARTCHAR 0289
ENCODING 649
SWIDTH 514 0
DWIDTH 10 0
BBX 10 9 0 0
BITMAP
6180
6180
6180
FFC0
6180
6180
2180
3380
1C80
ENDCHAR
STARTCHAR 028A
ENCODING 650
SWIDTH 514 0
DWIDTH 10 0
BBX 9 9 1 0
BITMAP
E780
6200
C300
C100
C100
C100
C100
6300
3C00
ENDCHAR
STARTCHAR 028B
ENCODING 651
SWIDTH 514 0
DWIDTH 10 0
BBX 8 9 1 0
BITMAP
C6
C3
C3
C3
C3
C3
C3
62
3C
ENDCHAR
STARTCHAR 028C
ENCODING 652
SWIDTH 514 0
DWIDTH 10 0
BBX 9 9 1 0
BITMAP
1800
1C00
3400
2600
6600
6200
4300
C300
C180
ENDCHAR
STARTCHAR 028D
ENCODING 653
SWIDTH 514 0
DWIDTH 10 0
BBX 10 9 0 0
BITMAP
3180
7380
7A80
7A80
4E80
4CC0
4CC0
40C0
C0C0
ENDCHAR
STARTCHAR 028E
ENCODING 654
SWIDTH 514 0
DWIDTH 10 0
BBX 9 13 1 0
BITMAP
0380
0400
0800
1800
1800
3C00
3C00
2600
6600
6200
4300
C300
8180
ENDCHAR
STARTCHAR 028F
ENCODING 655
SWIDTH 514 0
DWIDTH 10 0
BBX 8 9 1 0
BITMAP
C1
63
66
36
1C
18
18
18
18
ENDCHAR
STARTCHAR 0290
ENCODING 656
SWIDTH 514 0
DWIDTH 10 0
BBX 9 13 2 -4
BITMAP
FE00
0C00
0C00
1800
3000
6000
6000
C000
FE00
0200
0200
0200
0380
ENDCHAR
STARTCHAR 0291
ENCODING 657
SWIDTH 514 0
DWIDTH 10 0
BBX 8 10 2 -1
BITMAP
FE
0C
0C
18
30
60
67
C9
FF
10
ENDCHAR
STARTCHAR 0292
ENCODING 658
SWIDTH 514 0
DWIDTH 10 0
BBX 7 12 2 -3
BITMAP
FC
0C
18
10
30
78
0C
06
06
06
0C
F8
ENDCHAR
STARTCHAR 0293
ENCODING 659
SWIDTH 514 0
DWIDTH 10 0
BBX 8 13 1 -4
BITMAP
7E
06
0C
08
18
3C
06
03
73
DB
CE
7C
04
ENDCHAR
STARTCHAR 0294
ENCODING 660
SWIDTH 514 0
DWIDTH 10 0
BBX 5 13 3 0
BITMAP
E0
30
18
08
08
08
18
18
F0
C0
C0
C0
C0
ENDCHAR
STARTCHAR 0295
ENCODING 661
SWIDTH 514 0
DWIDTH 10 0
BBX 5 13 3 0
BITMAP
38
60
C0
C0
80
80
C0
C0
38
18
18
18
18
ENDCHAR
STARTCHAR 0296
ENCODING 662
SWIDTH 514 0
DWIDTH 10 0
BBX 5 13 3 0
BITMAP
C0
C0
C0
C0
F0
18
18
08
08
08
18
30
E0
ENDCHAR
STARTCHAR 0297
ENCODING 663
SWIDTH 514 0
DWIDTH 10 0
BBX 8 13 1 -4
BITMAP
1F
31
60
40
40
40
C0
C0
40
40
60
30
1F
ENDCHAR
STARTCHAR 0298
ENCODING 664
SWIDTH 514 0
DWIDTH 10 0
BBX 9 12 1 0
BITMAP
3E00
6300
C100
8180
9980
9D80
9980
8180
8180
C100
6300
3C00
ENDCHAR
STARTCHAR 0299
ENCODING 665
SWIDTH 514 0
DWIDTH 10 0
BBX 7 9 2 0
BITMAP
FC
86
86
86
FC
86
86
86
FC
ENDCHAR
STARTCHAR 029A
ENCODING 666
SWIDTH 514 0
DWIDTH 10 0
BBX 9 9 1 0
BITMAP
7C00
C600
C300
4100
7180
C100
8300
C300
7C00
ENDCHAR
STARTCHAR 029B
ENCODING 667
SWIDTH 514 0
DWIDTH 10 0
BBX 10 12 1 0
BITMAP
01C0
0300
0300
1F00
3100
6000
4000
CF00
4300
6300
6300
1F00
ENDCHAR
STARTCHAR 029C
ENCODING 668
SWIDTH 514 0
DWIDTH 10 0
BBX 8 9 1 0
BITMAP
C3
C3
C3
C3
FF
C3
C3
C3
C3
ENDCHAR
STARTCHAR 029D
ENCODING 669
SWIDTH 514 0
DWIDTH 10 0
BBX 8 16 0 -3
BITMAP
03
03
00
00
3F
03
03
03
03
03
03
03
73
CB
4E
7C
ENDCHAR
STARTCHAR 029E
ENCODING 670
SWIDTH 514 0
DWIDTH 10 0
BBX 8 13 1 -4
BITMAP
C3
63
33
1B
0F
0F
3B
63
C3
03
03
03
03
ENDCHAR
STARTCHAR 029F
ENCODING 671
SWIDTH 514 0
DWIDTH 10 0
BBX 7 9 1 0
BITMAP
C0
C0
C0
C0
C0
C0
C0
C0
FE
ENDCHAR
STARTCHAR 02A0
ENCODING 672
SWIDTH 514 0
DWIDTH 10 0
BBX 10 17 1 -4
BITMAP
01C0
0100
0300
0300
3F00
6300
C300
C300
C300
C300
C300
4700
3B00
0300
0300
0300
0300
ENDCHAR
STARTCHAR 02A1
ENCODING 673
SWIDTH 514 0
DWIDTH 10 0
BBX 7 13 1 0
BITMAP
38
0C
06
02
02
02
06
06
3C
30
FC
30
30
ENDCHAR
STARTCHAR 02A2
ENCODING 674
SWIDTH 514 0
DWIDTH 10 0
BBX 7 13 3 0
BITMAP
38
60
C0
C0
80
80
C0
C0
38
18
7E
18
18
ENDCHAR
STARTCHAR 02A3
ENCODING 675
SWIDTH 514 0
DWIDTH 10 0
BBX 10 13 0 0
BITMAP
0C00
0C00
0C00
0C00
3FC0
4CC0
4C80
CD80
CD80
CD00
4F00
4E00
7FC0
ENDCHAR
STARTCHAR 02A4
ENCODING 676
SWIDTH 514 0
DWIDTH 10 0
BBX 10 16 0 -3
BITMAP
0C00
0C00
0C00
0C00
3FC0
4CC0
4C80
CD80
CD00
CF80
4CC0
4CC0
7CC0
00C0
00C0
0780
ENDCHAR
STARTCHAR 02A5
ENCODING 677
SWIDTH 514 0
DWIDTH 10 0
BBX 11 14 0 -1
BITMAP
0C00
0C00
0C00
0C00
3FC0
4CC0
4C80
CC80
CD00
CD00
4FC0
4EA0
7FC0
0100
ENDCHAR
STARTCHAR 02A6
ENCODING 678
SWIDTH 514 0
DWIDTH 10 0
BBX 10 12 0 0
BITMAP
2000
2000
2000
FF80
2600
2400
2600
2300
2180
20C0
30C0
1F80
ENDCHAR
STARTCHAR 02A7
ENCODING 679
SWIDTH 514 0
DWIDTH 10 0
BBX 10 17 0 -4
BITMAP
01C0
2100
2300
2300
FF00
2300
2300
2300
2300
2300
2300
3300
1F00
0300
0300
0300
1E00
ENDCHAR
STARTCHAR 02A8
ENCODING 680
SWIDTH 514 0
DWIDTH 10 0
BBX 10 13 0 -1
BITMAP
6000
6000
6000
FFC0
6600
6600
6400
6400
6400
64C0
3740
1FC0
0100
ENDCHAR
STARTCHAR 02A9
ENCODING 681
SWIDTH 514 0
DWIDTH 10 0
BBX 10 13 0 0
BITMAP
1C00
2000
6000
6000
6F80
FCC0
6CC0
6CC0
6CC0
6CC0
6CC0
6CC0
6CC0
ENDCHAR
STARTCHAR 02AA
ENCODING 682
SWIDTH 514 0
DWIDTH 10 0
BBX 10 13 0 0
BITMAP
F000
3000
3000
3000
33C0
3600
3600
3600
3380
31C0
30C0
30C0
1F80
ENDCHAR
STARTCHAR 02AB
ENCODING 683
SWIDTH 514 0
DWIDTH 10 0
BBX 8 13 1 0
BITMAP
E0
60
60
60
7F
63
63
66
64
6C
68
78
7F
ENDCHAR
STARTCHAR 02AC
ENCODING 684
SWIDTH 514 0
DWIDTH 10 0
BBX 7 12 2 0
BITMAP
82
B2
BE
AC
CC
00
00
82
B2
BE
AC
CC
ENDCHAR
STARTCHAR 02AD
ENCODING 685
SWIDTH 514 0
DWIDTH 10 0
BBX 7 12 2 0
BITMAP
FE
82
82
82
82
00
00
FE
82
82
82
82
ENDCHAR
STARTCHAR 02AE
ENCODING 686
SWIDTH 514 0
DWIDTH 10 0
BBX 10 17 -1 -4
BITMAP
E000
3000
3000
3000
30C0
30C0
30C0
30C0
30C0
30C0
10C0
19C0
0EC0
00C0
00C0
00C0
00C0
ENDCHAR
STARTCHAR 02AF
ENCODING 687
SWIDTH 514 0
DWIDTH 10 0
BBX 12 17 -1 -4
BITMAP
E000
3000
3000
3000
30C0
30C0
30C0
30C0
30C0
30C0
10C0
19C0
0EC0
00C0
00C0
0040
0070
ENDCHAR
STARTCHAR 02B0
ENCODING 688
SWIDTH 514 0
DWIDTH 10 0
BBX 5 7 3 7
BITMAP
80
80
F0
88
88
88
88
ENDCHAR
STARTCHAR 02B1
ENCODING 689
SWIDTH 514 0
DWIDTH 10 0
BBX 5 7 3 7
BITMAP
E0
80
F0
88
88
88
88
ENDCHAR
STARTCHAR 02B2
ENCODING 690
SWIDTH 514 0
DWIDTH 10 0
BBX 5 10 3 5
BITMAP
18
18
00
F0
10
10
10
10
10
F0
ENDCHAR
STARTCHAR 02B3
ENCODING 691
SWIDTH 514 0
DWIDTH 10 0
BBX 5 5 3 7
BITMAP
F0
88
80
80
80
ENDCHAR
STARTCHAR 02B4
ENCODING 692
SWIDTH 514 0
DWIDTH 10 0
BBX 5 5 3 7
BITMAP
08
08
08
98
E8
ENDCHAR
STARTCHAR 02B5
ENCODING 693
SWIDTH 514 0
DWIDTH 10 0
BBX 7 7 2 5
BITMAP
08
08
08
98
E8
08
0E
ENDCHAR
STARTCHAR 02B6
ENCODING 694
SWIDTH 514 0
DWIDTH 10 0
BBX 6 5 2 7
BITMAP
CC
C8
F0
CC
F8
ENDCHAR
STARTCHAR 02B7
ENCODING 695
SWIDTH 514 0
DWIDTH 10 0
BBX 7 5 2 7
BITMAP
82
B2
B6
EC
CC
ENDCHAR
STARTCHAR 02B8
ENCODING 696
SWIDTH 514 0
DWIDTH 10 0
BBX 6 7 2 5
BITMAP
C4
4C
68
28
30
30
E0
ENDCHAR
STARTCHAR 02B9
ENCODING 697
SWIDTH 514 0
DWIDTH 10 0
BBX 4 6 3 7
BITMAP
30
30
60
60
40
C0
ENDCHAR
STARTCHAR 02BA
ENCODING 698
SWIDTH 514 0
DWIDTH 10 0
BBX 8 6 1 7
BITMAP
33
73
63
66
C6
84
ENDCHAR
STARTCHAR 02BB
ENCODING 699
SWIDTH 514 0
DWIDTH 10 0
BBX 4 6 4 7
BITMAP
30
40
C0
C0
E0
C0
ENDCHAR
STARTCHAR 02BC
ENCODING 700
SWIDTH 514 0
DWIDTH 10 0
BBX 5 6 2 7
BITMAP
30
38
38
10
30
E0
ENDCHAR
STARTCHAR 02BD
ENCODING 701
SWIDTH 514 0
DWIDTH 10 0
BBX 5 6 3 7
BITMAP
60
E0
E0
40
60
18
ENDCHAR
STARTCHAR 02BE
ENCODING 702
SWIDTH 514 0
DWIDTH 10 0
BBX 2 3 4 10
BITMAP
C0
40
C0
ENDCHAR
STARTCHAR 02BF
ENCODING 703
SWIDTH 514 0
DWIDTH 10 0
BBX 2 3 4 10
BITMAP
40
80
40
ENDCHAR
STARTCHAR 02C0
ENCODING 704
SWIDTH 514 0
DWIDTH 10 0
BBX 4 7 3 6
BITMAP
E0
30
10
10
E0
C0
40
ENDCHAR
STARTCHAR 02C1
ENCODING 705
SWIDTH 514 0
DWIDTH 10 0
BBX 5 7 3 6
BITMAP
38
40
C0
C0
70
10
10
ENDCHAR
STARTCHAR 02C2
ENCODING 706
SWIDTH 514 0
DWIDTH 10 0
BBX 6 10 2 0
BITMAP
04
0C
38
60
C0
C0
60
38
0C
04
ENDCHAR
STARTCHAR 02C3
ENCODING 707
SWIDTH 514 0
DWIDTH 10 0
BBX 7 10 2 0
BITMAP
C0
60
30
18
0E
0E
18
30
60
C0
ENDCHAR
STARTCHAR 02C4
ENCODING 708
SWIDTH 514 0
DWIDTH 10 0
BBX 10 7 0 7
BITMAP
0400
0C00
1A00
3300
6180
40C0
8040
ENDCHAR
STARTCHAR 02C5
ENCODING 709
SWIDTH 514 0
DWIDTH 10 0
BBX 10 7 0 7
BITMAP
8040
40C0
6180
3300
1E00
0C00
0400
ENDCHAR
STARTCHAR 02C6
ENCODING 710
SWIDTH 514 0
DWIDTH 10 0
BBX 5 2 3 9
BITMAP
60
D8
ENDCHAR
STARTCHAR 02C7
ENCODING 711
SWIDTH 514 0
DWIDTH 10 0
BBX 5 2 3 9
BITMAP
D8
60
ENDCHAR
STARTCHAR 02C8
ENCODING 712
SWIDTH 514 0
DWIDTH 10 0
BBX 1 4 5 10
BITMAP
80
80
80
80
ENDCHAR
STARTCHAR 02C9
ENCODING 713
SWIDTH 514 0
DWIDTH 10 0
BBX 5 1 3 9
BITMAP
F8
ENDCHAR
STARTCHAR 02CA
ENCODING 714
SWIDTH 514 0
DWIDTH 10 0
BBX 3 2 5 9
BITMAP
60
C0
ENDCHAR
STARTCHAR 02CB
ENCODING 715
SWIDTH 514 0
DWIDTH 10 0
BBX 4 2 2 9
BITMAP
E0
30
ENDCHAR
STARTCHAR 02CC
ENCODING 716
SWIDTH 514 0
DWIDTH 10 0
BBX 1 4 5 -5
BITMAP
80
80
80
80
ENDCHAR
STARTCHAR 02CD
ENCODING 717
SWIDTH 514 0
DWIDTH 10 0
BBX 5 1 3 -5
BITMAP
F8
ENDCHAR
STARTCHAR 02CE
ENCODING 718
SWIDTH 514 0
DWIDTH 10 0
BBX 4 2 2 -5
BITMAP
E0
30
ENDCHAR
STARTCHAR 02CF
ENCODING 719
SWIDTH 514 0
DWIDTH 10 0
BBX 3 2 5 -5
BITMAP
60
C0
ENDCHAR
STARTCHAR 02D0
ENCODING 720
SWIDTH 514 0
DWIDTH 10 0
BBX 2 9 4 0
BITMAP
C0
40
00
00
00
00
00
40
C0
ENDCHAR
STARTCHAR 02D1
ENCODING 721
SWIDTH 514 0
DWIDTH 10 0
BBX 2 2 4 3
BITMAP
C0
40
ENDCHAR
STARTCHAR 02D2
ENCODING 722
SWIDTH 514 0
DWIDTH 10 0
BBX 2 3 4 3
BITMAP
C0
40
C0
ENDCHAR
STARTCHAR 02D3
ENCODING 723
SWIDTH 514 0
DWIDTH 10 0
BBX 2 3 4 3
BITMAP
40
80
40
ENDCHAR
STARTCHAR 02D4
ENCODING 724
SWIDTH 514 0
DWIDTH 10 0
BBX 4 3 3 3
BITMAP
20
20
F0
ENDCHAR
STARTCHAR 02D5
ENCODING 725
SWIDTH 514 0
DWIDTH 10 0
BBX 4 3 3 3
BITMAP
F0
20
20
ENDCHAR
STARTCHAR 02D6
ENCODING 726
SWIDTH 514 0
DWIDTH 10 0
BBX 4 3 3 3
BITMAP
20
F0
20
ENDCHAR
STARTCHAR 02D7
ENCODING 727
SWIDTH 514 0
DWIDTH 10 0
BBX 4 1 3 4
BITMAP
F0
ENDCHAR
STARTCHAR 02D8
ENCODING 728
SWIDTH 514 0
DWIDTH 10 0
BBX 4 2 3 9
BITMAP
90
70
ENDCHAR
STARTCHAR 02D9
ENCODING 729
SWIDTH 514 0
DWIDTH 10 0
BBX 2 2 4 9
BITMAP
C0
C0
ENDCHAR
STARTCHAR 02DA
ENCODING 730
SWIDTH 514 0
DWIDTH 10 0
BBX 4 4 3 9
BITMAP
70
90
90
70
ENDCHAR
STARTCHAR 02DB
ENCODING 731
SWIDTH 514 0
DWIDTH 10 0
BBX 3 4 6 -4
BITMAP
60
C0
C0
60
ENDCHAR
STARTCHAR 02DC
ENCODING 732
SWIDTH 514 0
DWIDTH 10 0
BBX 6 2 2 9
BITMAP
E4
9C
ENDCHAR
STARTCHAR 02DD
ENCODING 733
SWIDTH 514 0
DWIDTH 10 0
BBX 7 2 3 9
BITMAP
46
88
ENDCHAR
STARTCHAR 02DE
ENCODING 734
SWIDTH 514 0
DWIDTH 10 0
BBX 4 2 3 4
BITMAP
C0
30
ENDCHAR
STARTCHAR 02DF
ENCODING 735
SWIDTH 514 0
DWIDTH 10 0
BBX 3 4 4 10
BITMAP
A0
C0
C0
A0
ENDCHAR
STARTCHAR 02E0
ENCODING 736
SWIDTH 514 0
DWIDTH 10 0
BBX 6 7 2 5
BITMAP
C4
4C
28
30
30
28
38
ENDCHAR
STARTCHAR 02E1
ENCODING 737
SWIDTH 514 0
DWIDTH 10 0
BBX 5 7 3 7
BITMAP
E0
20
20
20
20
20
F8
ENDCHAR
STARTCHAR 02E2
ENCODING 738
SWIDTH 514 0
DWIDTH 10 0
BBX 5 5 3 7
BITMAP
F0
80
70
18
F0
ENDCHAR
STARTCHAR 02E3
ENCODING 739
SWIDTH 514 0
DWIDTH 10 0
BBX 5 5 3 7
BITMAP
98
50
60
50
98
ENDCHAR
STARTCHAR 02E4
ENCODING 740
SWIDTH 514 0
DWIDTH 10 0
BBX 4 6 3 7
BITMAP
70
C0
C0
70
10
10
ENDCHAR
STARTCHAR 02E5
ENCODING 741
SWIDTH 514 0
DWIDTH 10 0
BBX 4 13 3 0
BITMAP
F0
10
10
10
10
10
10
10
10
10
10
10
10
ENDCHAR
STARTCHAR 02E6
ENCODING 742
SWIDTH 514 0
DWIDTH 10 0
BBX 4 13 3 0
BITMAP
10
10
10
F0
10
10
10
10
10
10
10
10
10
ENDCHAR
STARTCHAR 02E7
ENCODING 743
SWIDTH 514 0
DWIDTH 10 0
BBX 4 13 3 0
BITMAP
10
10
10
10
10
10
F0
10
10
10
10
10
10
ENDCHAR
STARTCHAR 02E8
ENCODING 744
SWIDTH 514 0
DWIDTH 10 0
BBX 4 13 3 0
BITMAP
10
10
10
10
10
10
10
10
10
F0
10
10
10
ENDCHAR
STARTCHAR 02E9
ENCODING 745
SWIDTH 514 0
DWIDTH 10 0
BBX 4 13 3 0
BITMAP
10
10
10
10
10
10
10
10
10
10
10
10
F0
ENDCHAR
STARTCHAR 02EA
ENCODING 746
SWIDTH 514 0
DWIDTH 10 0
BBX 4 8 3 0
BITMAP
80
80
80
80
80
80
80
F0
ENDCHAR
STARTCHAR 02EB
ENCODING 747
SWIDTH 514 0
DWIDTH 10 0
BBX 4 8 3 0
BITMAP
80
80
80
80
F0
80
80
80
ENDCHAR
STARTCHAR 02EC
ENCODING 748
SWIDTH 514 0
DWIDTH 10 0
BBX 5 2 3 -5
BITMAP
D8
60
ENDCHAR
STARTCHAR 02ED
ENCODING 749
SWIDTH 514 0
DWIDTH 10 0
BBX 10 3 0 11
BITMAP
FFC0
0000
FFC0
ENDCHAR
STARTCHAR 02EE
ENCODING 750
SWIDTH 514 0
DWIDTH 10 0
BBX 8 6 1 7
BITMAP
63
73
73
21
63
CE
ENDCHAR
STARTCHAR 02EF
ENCODING 751
SWIDTH 514 0
DWIDTH 10 0
BBX 3 3 4 -4
BITMAP
A0
C0
40
ENDCHAR
STARTCHAR 02F0
ENCODING 752
SWIDTH 514 0
DWIDTH 10 0
BBX 3 3 4 -4
BITMAP
40
C0
A0
ENDCHAR
STARTCHAR 02F1
ENCODING 753
SWIDTH 514 0
DWIDTH 10 0
BBX 3 4 4 -4
BITMAP
20
C0
C0
20
ENDCHAR
STARTCHAR 02F2
ENCODING 754
SWIDTH 514 0
DWIDTH 10 0
BBX 2 4 4 -4
BITMAP
80
40
40
80
ENDCHAR
STARTCHAR 02F3
ENCODING 755
SWIDTH 514 0
DWIDTH 10 0
BBX 4 3 3 -4
BITMAP
70
90
70
ENDCHAR
STARTCHAR 02F4
ENCODING 756
SWIDTH 514 0
DWIDTH 10 0
BBX 4 2 2 2
BITMAP
E0
30
ENDCHAR
STARTCHAR 02F5
ENCODING 757
SWIDTH 514 0
DWIDTH 10 0
BBX 7 2 1 4
BITMAP
CC
66
ENDCHAR
STARTCHAR 02F6
ENCODING 758
SWIDTH 514 0
DWIDTH 10 0
BBX 7 2 3 2
BITMAP
46
88
ENDCHAR
STARTCHAR 02F7
ENCODING 759
SWIDTH 514 0
DWIDTH 10 0
BBX 6 2 2 -5
BITMAP
E4
9C
ENDCHAR
STARTCHAR 02F8
ENCODING 760
SWIDTH 514 0
DWIDTH 10 0
BBX 3 9 4 3
BITMAP
C0
E0
C0
00
00
00
C0
E0
C0
ENDCHAR
STARTCHAR 02F9
ENCODING 761
SWIDTH 514 0
DWIDTH 10 0
BBX 4 4 3 9
BITMAP
F0
80
80
80
ENDCHAR
STARTCHAR 02FA
ENCODING 762
SWIDTH 514 0
DWIDTH 10 0
BBX 4 3 3 10
BITMAP
F0
10
10
ENDCHAR
STARTCHAR 02FB
ENCODING 763
SWIDTH 514 0
DWIDTH 10 0
BBX 4 4 3 0
BITMAP
80
80
80
F0
ENDCHAR
STARTCHAR 02FC
ENCODING 764
SWIDTH 514 0
DWIDTH 10 0
BBX 4 4 3 0
BITMAP
10
10
10
F0
ENDCHAR
STARTCHAR 02FD
ENCODING 765
SWIDTH 514 0
DWIDTH 10 0
BBX 10 3 0 -4
BITMAP
8040
8040
FFC0
ENDCHAR
STARTCHAR 02FE
ENCODING 766
SWIDTH 514 0
DWIDTH 10 0
BBX 10 3 0 -4
BITMAP
8000
8000
FFC0
ENDCHAR
STARTCHAR 02FF
ENCODING 767
SWIDTH 514 0
DWIDTH 10 0
BBX 4 3 3 -3
BITMAP
40
F0
40
ENDCHAR
STARTCHAR 0300
ENCODING 768
SWIDTH 514 0
DWIDTH 10 0
BBX 3 2 4 9
BITMAP
C0
60
ENDCHAR
STARTCHAR 0301
ENCODING 769
SWIDTH 514 0
DWIDTH 10 0
BBX 3 2 4 9
BITMAP
60
80
ENDCHAR
STARTCHAR 0302
ENCODING 770
SWIDTH 514 0
DWIDTH 10 0
BBX 5 2 3 9
BITMAP
60
D8
ENDCHAR
STARTCHAR 0303
ENCODING 771
SWIDTH 514 0
DWIDTH 10 0
BBX 6 2 2 9
BITMAP
E4
9C
ENDCHAR
STARTCHAR 0304
ENCODING 772
SWIDTH 514 0
DWIDTH 10 0
BBX 5 1 3 9
BITMAP
F8
ENDCHAR
STARTCHAR 0305
ENCODING 773
SWIDTH 514 0
DWIDTH 10 0
BBX 10 1 0 15
BITMAP
FFC0
ENDCHAR
STARTCHAR 0306
ENCODING 774
SWIDTH 514 0
DWIDTH 10 0
BBX 4 2 3 9
BITMAP
90
70
ENDCHAR
STARTCHAR 0307
ENCODING 775
SWIDTH 514 0
DWIDTH 10 0
BBX 2 2 4 9
BITMAP
C0
C0
ENDCHAR
STARTCHAR 0308
ENCODING 776
SWIDTH 514 0
DWIDTH 10 0
BBX 6 2 2 9
BITMAP
CC
CC
ENDCHAR
STARTCHAR 0309
ENCODING 777
SWIDTH 514 0
DWIDTH 10 0
BBX 3 4 4 11
BITMAP
C0
60
C0
80
ENDCHAR
STARTCHAR 030A
ENCODING 778
SWIDTH 514 0
DWIDTH 10 0
BBX 4 4 3 9
BITMAP
70
90
90
70
ENDCHAR
STARTCHAR 030B
ENCODING 779
SWIDTH 514 0
DWIDTH 10 0
BBX 7 2 2 9
BITMAP
66
88
ENDCHAR
STARTCHAR 030C
ENCODING 780
SWIDTH 514 0
DWIDTH 10 0
BBX 5 2 3 9
BITMAP
D8
60
ENDCHAR
STARTCHAR 030D
ENCODING 781
SWIDTH 514 0
DWIDTH 10 0
BBX 1 5 5 9
BITMAP
80
80
80
80
80
ENDCHAR
STARTCHAR 030E
ENCODING 782
SWIDTH 514 0
DWIDTH 10 0
BBX 4 5 3 9
BITMAP
90
90
90
90
90
ENDCHAR
STARTCHAR 030F
ENCODING 783
SWIDTH 514 0
DWIDTH 10 0
BBX 7 2 1 9
BITMAP
CC
66
ENDCHAR
STARTCHAR 0310
ENCODING 784
SWIDTH 514 0
DWIDTH 10 0
BBX 6 5 2 11
BITMAP
30
30
84
C4
78
ENDCHAR
STARTCHAR 0311
ENCODING 785
SWIDTH 514 0
DWIDTH 10 0
BBX 4 2 3 9
BITMAP
70
90
ENDCHAR
STARTCHAR 0312
ENCODING 786
SWIDTH 514 0
DWIDTH 10 0
BBX 3 3 4 9
BITMAP
60
40
C0
ENDCHAR
STARTCHAR 0313
ENCODING 787
SWIDTH 514 0
DWIDTH 10 0
BBX 2 3 4 10
BITMAP
C0
40
C0
ENDCHAR
STARTCHAR 0314
ENCODING 788
SWIDTH 514 0
DWIDTH 10 0
BBX 2 3 4 10
BITMAP
C0
80
40
ENDCHAR
STARTCHAR 0315
ENCODING 789
SWIDTH 514 0
DWIDTH 10 0
BBX 2 3 9 9
BITMAP
40
C0
C0
ENDCHAR
STARTCHAR 0316
ENCODING 790
SWIDTH 514 0
DWIDTH 10 0
BBX 3 2 4 -5
BITMAP
C0
60
ENDCHAR
STARTCHAR 0317
ENCODING 791
SWIDTH 514 0
DWIDTH 10 0
BBX 3 2 4 -5
BITMAP
60
80
ENDCHAR
STARTCHAR 0318
ENCODING 792
SWIDTH 514 0
DWIDTH 10 0
BBX 4 3 3 -4
BITMAP
10
F0
10
ENDCHAR
STARTCHAR 0319
ENCODING 793
SWIDTH 514 0
DWIDTH 10 0
BBX 4 3 3 -4
BITMAP
80
F0
80
ENDCHAR
STARTCHAR 031A
ENCODING 794
SWIDTH 514 0
DWIDTH 10 0
BBX 4 4 3 10
BITMAP
F0
10
10
10
ENDCHAR
STARTCHAR 031B
ENCODING 795
SWIDTH 514 0
DWIDTH 10 0
BBX 3 4 4 6
BITMAP
60
60
40
C0
ENDCHAR
STARTCHAR 031C
ENCODING 796
SWIDTH 514 0
DWIDTH 10 0
BBX 2 3 4 -4
BITMAP
40
80
40
ENDCHAR
STARTCHAR 031D
ENCODING 797
SWIDTH 514 0
DWIDTH 10 0
BBX 4 3 3 -4
BITMAP
20
20
F0
ENDCHAR
STARTCHAR 031E
ENCODING 798
SWIDTH 514 0
DWIDTH 10 0
BBX 4 3 3 -4
BITMAP
F0
20
20
ENDCHAR
STARTCHAR 031F
ENCODING 799
SWIDTH 514 0
DWIDTH 10 0
BBX 4 3 3 -4
BITMAP
20
F0
20
ENDCHAR
STARTCHAR 0320
ENCODING 800
SWIDTH 514 0
DWIDTH 10 0
BBX 4 1 3 -3
BITMAP
F0
ENDCHAR
STARTCHAR 0321
ENCODING 801
SWIDTH 514 0
DWIDTH 10 0
BBX 3 4 4 -4
BITMAP
20
20
20
E0
ENDCHAR
STARTCHAR 0322
ENCODING 802
SWIDTH 514 0
DWIDTH 10 0
BBX 4 4 3 -4
BITMAP
C0
C0
C0
70
ENDCHAR
STARTCHAR 0323
ENCODING 803
SWIDTH 514 0
DWIDTH 10 0
BBX 2 2 4 -4
BITMAP
C0
C0
ENDCHAR
STARTCHAR 0324
ENCODING 804
SWIDTH 514 0
DWIDTH 10 0
BBX 6 2 2 -3
BITMAP
CC
CC
ENDCHAR
STARTCHAR 0325
ENCODING 805
SWIDTH 514 0
DWIDTH 10 0
BBX 4 3 3 -4
BITMAP
70
90
70
ENDCHAR
STARTCHAR 0326
ENCODING 806
SWIDTH 514 0
DWIDTH 10 0
BBX 2 3 4 -4
BITMAP
40
C0
C0
ENDCHAR
STARTCHAR 0327
ENCODING 807
SWIDTH 514 0
DWIDTH 10 0
BBX 2 3 4 -3
BITMAP
40
C0
C0
ENDCHAR
STARTCHAR 0328
ENCODING 808
SWIDTH 514 0
DWIDTH 10 0
BBX 3 4 4 -4
BITMAP
C0
80
80
E0
ENDCHAR
STARTCHAR 0329
ENCODING 809
SWIDTH 514 0
DWIDTH 10 0
BBX 1 4 5 -5
BITMAP
80
80
80
80
ENDCHAR
STARTCHAR 032A
ENCODING 810
SWIDTH 514 0
DWIDTH 10 0
BBX 6 2 2 -3
BITMAP
FC
84
ENDCHAR
STARTCHAR 032B
ENCODING 811
SWIDTH 514 0
DWIDTH 10 0
BBX 6 2 2 -3
BITMAP
94
7C
ENDCHAR
STARTCHAR 032C
ENCODING 812
SWIDTH 514 0
DWIDTH 10 0
BBX 5 2 3 -5
BITMAP
D8
60
ENDCHAR
STARTCHAR 032D
ENCODING 813
SWIDTH 514 0
DWIDTH 10 0
BBX 5 2 3 -5
BITMAP
60
D8
ENDCHAR
STARTCHAR 032E
ENCODING 814
SWIDTH 514 0
DWIDTH 10 0
BBX 4 2 3 -5
BITMAP
90
70
ENDCHAR
STARTCHAR 032F
ENCODING 815
SWIDTH 514 0
DWIDTH 10 0
BBX 4 2 3 -5
BITMAP
70
90
ENDCHAR
STARTCHAR 0330
ENCODING 816
SWIDTH 514 0
DWIDTH 10 0
BBX 6 2 2 -5
BITMAP
E4
9C
ENDCHAR
STARTCHAR 0331
ENCODING 817
SWIDTH 514 0
DWIDTH 10 0
BBX 5 1 3 -2
BITMAP
F8
ENDCHAR
STARTCHAR 0332
ENCODING 818
SWIDTH 514 0
DWIDTH 10 0
BBX 10 1 0 -4
BITMAP
FFC0
ENDCHAR
STARTCHAR 0333
ENCODING 819
SWIDTH 514 0
DWIDTH 10 0
BBX 10 3 0 -5
BITMAP
FFC0
0000
FFC0
ENDCHAR
STARTCHAR 0334
ENCODING 820
SWIDTH 514 0
DWIDTH 10 0
BBX 6 2 2 2
BITMAP
E4
9C
ENDCHAR
STARTCHAR 0335
ENCODING 821
SWIDTH 514 0
DWIDTH 10 0
BBX 6 1 2 4
BITMAP
FC
ENDCHAR
STARTCHAR 0336
ENCODING 822
SWIDTH 514 0
DWIDTH 10 0
BBX 8 1 1 4
BITMAP
FF
ENDCHAR
STARTCHAR 0337
ENCODING 823
SWIDTH 514 0
DWIDTH 10 0
BBX 9 12 1 -2
BITMAP
0180
0300
0200
0600
0C00
0800
1800
3000
2000
6000
C000
8000
ENDCHAR
STARTCHAR 0338
ENCODING 824
SWIDTH 514 0
DWIDTH 10 0
BBX 11 15 0 -2
BITMAP
0060
00C0
00C0
0180
0300
0200
0600
0C00
0800
1800
3000
2000
6000
C000
8000
ENDCHAR
STARTCHAR 0339
ENCODING 825
SWIDTH 514 0
DWIDTH 10 0
BBX 2 3 4 -4
BITMAP
C0
40
C0
ENDCHAR
STARTCHAR 033A
ENCODING 826
SWIDTH 514 0
DWIDTH 10 0
BBX 6 2 2 -3
BITMAP
84
FC
ENDCHAR
STARTCHAR 033B
ENCODING 827
SWIDTH 514 0
DWIDTH 10 0
BBX 4 4 3 -5
BITMAP
F0
90
90
F0
ENDCHAR
STARTCHAR 033C
ENCODING 828
SWIDTH 514 0
DWIDTH 10 0
BBX 6 2 2 -3
BITMAP
7C
94
ENDCHAR
STARTCHAR 033D
ENCODING 829
SWIDTH 514 0
DWIDTH 10 0
BBX 3 4 4 10
BITMAP
A0
C0
C0
A0
ENDCHAR
STARTCHAR 033E
ENCODING 830
SWIDTH 514 0
DWIDTH 10 0
BBX 2 6 4 10
BITMAP
40
80
C0
40
40
C0
ENDCHAR
STARTCHAR 033F
ENCODING 831
SWIDTH 514 0
DWIDTH 10 0
BBX 10 3 0 13
BITMAP
FFC0
0000
FFC0
ENDCHAR
STARTCHAR 0340
ENCODING 832
SWIDTH 514 0
DWIDTH 10 0
BBX 3 2 4 9
BITMAP
C0
60
ENDCHAR
STARTCHAR 0341
ENCODING 833
SWIDTH 514 0
DWIDTH 10 0
BBX 3 2 4 9
BITMAP
60
80
ENDCHAR
STARTCHAR 0342
ENCODING 834
SWIDTH 514 0
DWIDTH 10 0
BBX 6 2 2 9
BITMAP
E4
9C
ENDCHAR
STARTCHAR 0343
ENCODING 835
SWIDTH 514 0
DWIDTH 10 0
BBX 2 3 4 10
BITMAP
C0
40
C0
ENDCHAR
STARTCHAR 0344
ENCODING 836
SWIDTH 514 0
DWIDTH 10 0
BBX 7 3 2 9
BITMAP
10
B6
B6
ENDCHAR
STARTCHAR 0345
ENCODING 837
SWIDTH 514 0
DWIDTH 10 0
BBX 4 4 3 -4
BITMAP
C0
C0
C0
70
ENDCHAR
STARTCHAR 0346
ENCODING 838
SWIDTH 514 0
DWIDTH 10 0
BBX 6 2 2 10
BITMAP
FC
84
ENDCHAR
STARTCHAR 0347
ENCODING 839
SWIDTH 514 0
DWIDTH 10 0
BBX 10 3 0 -5
BITMAP
FFC0
0000
FFC0
ENDCHAR
STARTCHAR 0348
ENCODING 840
SWIDTH 514 0
DWIDTH 10 0
BBX 4 5 3 -6
BITMAP
90
90
90
90
90
ENDCHAR
STARTCHAR 0349
ENCODING 841
SWIDTH 514 0
DWIDTH 10 0
BBX 4 4 3 -4
BITMAP
F0
10
10
10
ENDCHAR
STARTCHAR 034A
ENCODING 842
SWIDTH 514 0
DWIDTH 10 0
BBX 6 4 2 11
BITMAP
18
F4
BC
20
ENDCHAR
STARTCHAR 034B
ENCODING 843
SWIDTH 514 0
DWIDTH 10 0
BBX 6 6 2 11
BITMAP
30
30
E4
9C
30
30
ENDCHAR
STARTCHAR 034C
ENCODING 844
SWIDTH 514 0
DWIDTH 10 0
BBX 6 5 2 9
BITMAP
E4
9C
00
E4
9C
ENDCHAR
STARTCHAR 034D
ENCODING 845
SWIDTH 514 0
DWIDTH 10 0
BBX 9 3 1 -4
BITMAP
4100
FF80
4100
ENDCHAR
STARTCHAR 034E
ENCODING 846
SWIDTH 514 0
DWIDTH 10 0
BBX 3 4 4 -5
BITMAP
40
E0
40
40
ENDCHAR
STARTCHAR 034F
ENCODING 847
SWIDTH 514 0
DWIDTH 10 0
BBX 0 0 0 0
BITMAP
ENDCHAR
STARTCHAR 0350
ENCODING 848
SWIDTH 514 0
DWIDTH 10 0
BBX 2 4 4 10
BITMAP
80
40
40
80
ENDCHAR
STARTCHAR 0351
ENCODING 849
SWIDTH 514 0
DWIDTH 10 0
BBX 2 3 4 9
BITMAP
40
80
40
ENDCHAR
STARTCHAR 0352
ENCODING 850
SWIDTH 514 0
DWIDTH 10 0
BBX 6 4 2 10
BITMAP
78
C4
B4
30
ENDCHAR
STARTCHAR 0353
ENCODING 851
SWIDTH 514 0
DWIDTH 10 0
BBX 3 4 4 -5
BITMAP
A0
C0
C0
A0
ENDCHAR
STARTCHAR 0354
ENCODING 852
SWIDTH 514 0
DWIDTH 10 0
BBX 3 4 4 -4
BITMAP
20
C0
C0
20
ENDCHAR
STARTCHAR 0355
ENCODING 853
SWIDTH 514 0
DWIDTH 10 0
BBX 2 4 4 -4
BITMAP
80
40
40
80
ENDCHAR
STARTCHAR 0356
ENCODING 854
SWIDTH 514 0
DWIDTH 10 0
BBX 6 4 2 -4
BITMAP
80
48
54
94
ENDCHAR
STARTCHAR 0357
ENCODING 855
SWIDTH 514 0
DWIDTH 10 0
BBX 2 4 4 9
BITMAP
C0
40
40
C0
ENDCHAR
STARTCHAR 0358
ENCODING 856
SWIDTH 514 0
DWIDTH 10 0
BBX 2 2 4 9
BITMAP
C0
C0
ENDCHAR
STARTCHAR 0359
ENCODING 857
SWIDTH 514 0
DWIDTH 10 0
BBX 3 4 4 -5
BITMAP
40
A0
E0
40
ENDCHAR
STARTCHAR 035A
ENCODING 858
SWIDTH 514 0
DWIDTH 10 0
BBX 6 3 2 -4
BITMAP
FC
94
FC
ENDCHAR
STARTCHAR 035B
ENCODING 859
SWIDTH 514 0
DWIDTH 10 0
BBX 3 5 4 10
BITMAP
80
80
E0
20
40
ENDCHAR
STARTCHAR 035C
ENCODING 860
SWIDTH 514 0
DWIDTH 10 0
BBX 10 3 0 -4
BITMAP
8040
60C0
1F00
ENDCHAR
STARTCHAR 035D
ENCODING 861
SWIDTH 514 0
DWIDTH 10 0
BBX 10 3 0 9
BITMAP
8040
60C0
1F00
ENDCHAR
STARTCHAR 035E
ENCODING 862
SWIDTH 514 0
DWIDTH 10 0
BBX 10 1 0 9
BITMAP
FFC0
ENDCHAR
STARTCHAR 035F
ENCODING 863
SWIDTH 514 0
DWIDTH 10 0
BBX 10 1 0 -6
BITMAP
FFC0
ENDCHAR
STARTCHAR 0360
ENCODING 864
SWIDTH 514 0
DWIDTH 10 0
BBX 9 3 1 9
BITMAP
7180
9980
8700
ENDCHAR
STARTCHAR 0361
ENCODING 865
SWIDTH 514 0
DWIDTH 10 0
BBX 10 3 0 9
BITMAP
1F00
60C0
8040
ENDCHAR
STARTCHAR 0362
ENCODING 866
SWIDTH 514 0
DWIDTH 10 0
BBX 10 3 0 -4
BITMAP
0080
FFC0
0080
ENDCHAR
STARTCHAR 0363
ENCODING 867
SWIDTH 514 0
DWIDTH 10 0
BBX 4 5 3 10
BITMAP
70
10
70
90
F0
ENDCHAR
STARTCHAR 0364
ENCODING 868
SWIDTH 514 0
DWIDTH 10 0
BBX 5 5 3 10
BITMAP
70
90
F8
80
70
ENDCHAR
STARTCHAR 0365
ENCODING 869
SWIDTH 514 0
DWIDTH 10 0
BBX 4 7 3 10
BITMAP
60
00
E0
20
20
20
F0
ENDCHAR
STARTCHAR 0366
ENCODING 870
SWIDTH 514 0
DWIDTH 10 0
BBX 5 5 3 10
BITMAP
70
98
88
90
70
ENDCHAR
STARTCHAR 0367
ENCODING 871
SWIDTH 514 0
DWIDTH 10 0
BBX 4 5 3 10
BITMAP
90
90
90
90
70
ENDCHAR
STARTCHAR 0368
ENCODING 872
SWIDTH 514 0
DWIDTH 10 0
BBX 4 5 3 10
BITMAP
70
C0
80
80
70
ENDCHAR
STARTCHAR 0369
ENCODING 873
SWIDTH 514 0
DWIDTH 10 0
BBX 4 7 3 10
BITMAP
10
10
70
90
90
90
70
ENDCHAR
STARTCHAR 036A
ENCODING 874
SWIDTH 514 0
DWIDTH 10 0
BBX 4 7 3 10
BITMAP
80
80
F0
D0
90
90
90
ENDCHAR
STARTCHAR 036B
ENCODING 875
SWIDTH 514 0
DWIDTH 10 0
BBX 5 5 3 10
BITMAP
D8
A8
A8
A8
A8
ENDCHAR
STARTCHAR 036C
ENCODING 876
SWIDTH 514 0
DWIDTH 10 0
BBX 4 5 3 10
BITMAP
F0
90
80
80
80
ENDCHAR
STARTCHAR 036D
ENCODING 877
SWIDTH 514 0
DWIDTH 10 0
BBX 5 7 3 10
BITMAP
40
40
F8
40
40
40
38
ENDCHAR
STARTCHAR 036E
ENCODING 878
SWIDTH 514 0
DWIDTH 10 0
BBX 5 5 3 10
BITMAP
88
90
50
60
60
ENDCHAR
STARTCHAR 036F
ENCODING 879
SWIDTH 514 0
DWIDTH 10 0
BBX 4 5 3 10
BITMAP
90
50
20
70
90
ENDCHAR
STARTCHAR 0374
ENCODING 884
SWIDTH 514 0
DWIDTH 10 0
BBX 5 7 2 6
BITMAP
10
18
18
30
30
60
C0
ENDCHAR
STARTCHAR 0375
ENCODING 885
SWIDTH 514 0
DWIDTH 10 0
BBX 5 6 2 -3
BITMAP
18
18
18
30
F0
E0
ENDCHAR
STARTCHAR 037A
ENCODING 890
SWIDTH 514 0
DWIDTH 10 0
BBX 2 3 4 -4
BITMAP
80
80
C0
ENDCHAR
STARTCHAR 037B
ENCODING 891
SWIDTH 514 0
DWIDTH 10 0
BBX 7 9 2 0
BITMAP
F8
0C
06
06
06
06
06
0C
F8
ENDCHAR
STARTCHAR 037C
ENCODING 892
SWIDTH 514 0
DWIDTH 10 0
BBX 8 9 1 0
BITMAP
1E
31
60
4C
CC
40
60
61
1E
ENDCHAR
STARTCHAR 037D
ENCODING 893
SWIDTH 514 0
DWIDTH 10 0
BBX 7 9 2 0
BITMAP
F8
0C
06
66
66
06
06
0C
F8
ENDCHAR
STARTCHAR 037E
ENCODING 894
SWIDTH 514 0
DWIDTH 10 0
BBX 5 12 2 -3
BITMAP
30
38
30
00
00
00
30
38
38
18
30
E0
ENDCHAR
STARTCHAR 0384
ENCODING 900
SWIDTH 514 0
DWIDTH 10 0
BBX 2 3 5 9
BITMAP
C0
C0
80
ENDCHAR
STARTCHAR 0385
ENCODING 901
SWIDTH 514 0
DWIDTH 10 0
BBX 7 3 2 9
BITMAP
10
B6
B6
ENDCHAR
STARTCHAR 0386
ENCODING 902
SWIDTH 514 0
DWIDTH 10 0
BBX 10 14 0 0
BITMAP
4000
4000
CE00
0E00
1A00
1300
1300
3100
3180
2180
7F80
60C0
40C0
C0C0
ENDCHAR
STARTCHAR 0387
ENCODING 903
SWIDTH 514 0
DWIDTH 10 0
BBX 3 3 4 8
BITMAP
C0
E0
C0
ENDCHAR
STARTCHAR 0388
ENCODING 904
SWIDTH 514 0
DWIDTH 10 0
BBX 10 14 -1 0
BITMAP
C000
C000
DFC0
1800
1800
1800
1800
1FC0
1800
1800
1800
1800
1800
1FC0
ENDCHAR
STARTCHAR 0389
ENCODING 905
SWIDTH 514 0
DWIDTH 10 0
BBX 10 14 -1 0
BITMAP
C000
8000
B040
3040
3040
3040
3040
3FC0
3040
3040
3040
3040
3040
3040
ENDCHAR
STARTCHAR 038A
ENCODING 906
SWIDTH 514 0
DWIDTH 10 0
BBX 10 14 -1 0
BITMAP
C000
C000
9FC0
0600
0600
0600
0600
0600
0600
0600
0600
0600
0600
1FC0
ENDCHAR
STARTCHAR 038C
ENCODING 908
SWIDTH 514 0
DWIDTH 10 0
BBX 11 14 -1 0
BITMAP
4000
C000
CF80
18C0
3040
3060
2060
2060
2060
2060
3060
3040
18C0
0F00
ENDCHAR
STARTCHAR 038E
ENCODING 910
SWIDTH 514 0
DWIDTH 10 0
BBX 12 14 -2 0
BITMAP
4000
C000
F030
1830
1860
0C60
0CC0
0680
0380
0300
0300
0300
0300
0300
ENDCHAR
STARTCHAR 038F
ENCODING 911
SWIDTH 514 0
DWIDTH 10 0
BBX 11 14 -1 0
BITMAP
4000
4000
CF80
18C0
3040
3060
2060
2060
2060
2060
3060
30C0
1880
79E0
ENDCHAR
STARTCHAR 0390
ENCODING 912
SWIDTH 514 0
DWIDTH 10 0
BBX 8 14 1 0
BITMAP
08
5B
5B
00
00
F8
18
18
18
18
18
18
08
0F
ENDCHAR
STARTCHAR 0391
ENCODING 913
SWIDTH 514 0
DWIDTH 10 0
BBX 10 12 0 0
BITMAP
0E00
0E00
1A00
1300
1300
3100
3180
2180
7F80
60C0
40C0
C0C0
ENDCHAR
STARTCHAR 0392
ENCODING 914
SWIDTH 514 0
DWIDTH 10 0
BBX 8 12 1 0
BITMAP
FE
C3
C3
C3
C2
FE
C3
C1
C1
C1
C3
FC
ENDCHAR
STARTCHAR 0393
ENCODING 915
SWIDTH 514 0
DWIDTH 10 0
BBX 7 12 2 0
BITMAP
FE
C0
C0
C0
C0
C0
C0
C0
C0
C0
C0
C0
ENDCHAR
STARTCHAR 0394
ENCODING 916
SWIDTH 514 0
DWIDTH 10 0
BBX 9 12 1 0
BITMAP
1C00
1C00
3C00
3600
2600
6600
6200
4300
C300
C100
8180
FF80
ENDCHAR
STARTCHAR 0395
ENCODING 917
SWIDTH 514 0
DWIDTH 10 0
BBX 7 12 2 0
BITMAP
FE
C0
C0
C0
C0
FE
C0
C0
C0
C0
C0
FE
ENDCHAR
STARTCHAR 0396
ENCODING 918
SWIDTH 514 0
DWIDTH 10 0
BBX 8 12 1 0
BITMAP
FF
03
06
04
0C
08
18
10
30
60
40
FF
ENDCHAR
STARTCHAR 0397
ENCODING 919
SWIDTH 514 0
DWIDTH 10 0
BBX 8 12 1 0
BITMAP
C1
C1
C1
C1
C1
FF
C1
C1
C1
C1
C1
C1
ENDCHAR
STARTCHAR 0398
ENCODING 920
SWIDTH 514 0
DWIDTH 10 0
BBX 10 12 0 0
BITMAP
1F00
3180
6080
40C0
40C0
DEC0
C0C0
40C0
40C0
6080
3180
1E00
ENDCHAR
STARTCHAR 0399
ENCODING 921
SWIDTH 514 0
DWIDTH 10 0
BBX 7 12 2 0
BITMAP
FE
30
30
30
30
30
30
30
30
30
30
FE
ENDCHAR
STARTCHAR 039A
ENCODING 922
SWIDTH 514 0
DWIDTH 10 0
BBX 8 12 1 0
BITMAP
C3
C6
C4
CC
D8
D0
F0
D8
CC
C6
C6
C3
ENDCHAR
STARTCHAR 039B
ENCODING 923
SWIDTH 514 0
DWIDTH 10 0
BBX 10 12 0 0
BITMAP
0E00
0E00
1E00
1B00
1300
3300
3180
2180
6180
60C0
40C0
C0C0
ENDCHAR
STARTCHAR 039C
ENCODING 924
SWIDTH 514 0
DWIDTH 10 0
BBX 10 12 0 0
BITMAP
6180
6180
51C0
52C0
52C0
4AC0
4CC0
4CC0
40C0
40C0
40C0
C0C0
ENDCHAR
STARTCHAR 039D
ENCODING 925
SWIDTH 514 0
DWIDTH 10 0
BBX 8 12 1 0
BITMAP
C1
E1
E1
F1
D1
D9
C9
CD
C5
C7
C7
C3
ENDCHAR
STARTCHAR 039E
ENCODING 926
SWIDTH 514 0
DWIDTH 10 0
BBX 7 12 2 0
BITMAP
FE
00
00
00
00
FC
00
00
00
00
00
FE
ENDCHAR
STARTCHAR 039F
ENCODING 927
SWIDTH 514 0
DWIDTH 10 0
BBX 9 12 1 0
BITMAP
3E00
6300
C100
C180
8180
8180
8180
8180
C180
C100
6300
3C00
ENDCHAR
STARTCHAR 03A0
ENCODING 928
SWIDTH 514 0
DWIDTH 10 0
BBX 8 12 1 0
BITMAP
FF
C1
C1
C1
C1
C1
C1
C1
C1
C1
C1
C1
ENDCHAR
STARTCHAR 03A1
ENCODING 929
SWIDTH 514 0
DWIDTH 10 0
BBX 8 12 1 0
BITMAP
FC
C3
C3
C1
C1
C3
C2
FC
C0
C0
C0
C0
ENDCHAR
STARTCHAR 03A3
ENCODING 931
SWIDTH 514 0
DWIDTH 10 0
BBX 8 12 1 0
BITMAP
FF
60
30
30
18
0C
08
18
30
60
60
FF
ENDCHAR
STARTCHAR 03A4
ENCODING 932
SWIDTH 514 0
DWIDTH 10 0
BBX 9 12 1 0
BITMAP
FF80
1800
1800
1800
1800
1800
1800
1800
1800
1800
1800
1800
ENDCHAR
STARTCHAR 03A5
ENCODING 933
SWIDTH 514 0
DWIDTH 10 0
BBX 10 12 0 0
BITMAP
C0C0
60C0
6180
3180
3300
1A00
0E00
0C00
0C00
0C00
0C00
0C00
ENDCHAR
STARTCHAR 03A6
ENCODING 934
SWIDTH 514 0
DWIDTH 10 0
BBX 10 14 0 -1
BITMAP
0C00
1F00
2D80
6CC0
4CC0
CCC0
CCC0
CCC0
CCC0
4CC0
6C80
2D80
1E00
0C00
ENDCHAR
STARTCHAR 03A7
ENCODING 935
SWIDTH 514 0
DWIDTH 10 0
BBX 10 12 0 0
BITMAP
60C0
6180
3300
1B00
1E00
0C00
0E00
1E00
3300
3180
6180
E0C0
ENDCHAR
STARTCHAR 03A8
ENCODING 936
SWIDTH 514 0
DWIDTH 10 0
BBX 9 12 1 0
BITMAP
9980
9980
9980
9980
9980
9980
DB00
7E00
1800
1800
1800
1800
ENDCHAR
STARTCHAR 03A9
ENCODING 937
SWIDTH 514 0
DWIDTH 10 0
BBX 10 12 0 0
BITMAP
1F00
3180
6080
60C0
40C0
40C0
40C0
40C0
60C0
6180
3100
F3C0
ENDCHAR
STARTCHAR 03AA
ENCODING 938
SWIDTH 514 0
DWIDTH 10 0
BBX 7 15 2 0
BITMAP
CC
CC
00
FE
30
30
30
30
30
30
30
30
30
30
FE
ENDCHAR
STARTCHAR 03AB
ENCODING 939
SWIDTH 514 0
DWIDTH 10 0
BBX 10 15 0 0
BITMAP
3300
3300
0000
C0C0
60C0
6180
3180
3300
1A00
0E00
0C00
0C00
0C00
0C00
0C00
ENDCHAR
STARTCHAR 03AC
ENCODING 940
SWIDTH 514 0
DWIDTH 10 0
BBX 9 14 1 0
BITMAP
0C00
0C00
0800
0000
0000
3D00
4700
C300
8300
8300
8300
C300
C500
7980
ENDCHAR
STARTCHAR 03AD
ENCODING 941
SWIDTH 514 0
DWIDTH 10 0
BBX 8 14 1 0
BITMAP
06
0C
0C
00
00
3F
60
40
60
3E
C0
C0
E0
3F
ENDCHAR
STARTCHAR 03AE
ENCODING 942
SWIDTH 514 0
DWIDTH 10 0
BBX 8 18 1 -4
BITMAP
06
0C
0C
00
00
DE
E3
C3
43
43
43
43
43
43
03
03
03
03
ENDCHAR
STARTCHAR 03AF
ENCODING 943
SWIDTH 514 0
DWIDTH 10 0
BBX 8 14 1 0
BITMAP
0C
0C
08
00
00
F8
18
18
18
18
18
18
08
0F
ENDCHAR
STARTCHAR 03B0
ENCODING 944
SWIDTH 514 0
DWIDTH 10 0
BBX 8 14 1 0
BITMAP
08
5B
5B
00
00
C3
C3
C3
C3
C3
C3
43
66
3C
ENDCHAR
STARTCHAR 03B1
ENCODING 945
SWIDTH 514 0
DWIDTH 10 0
BBX 9 9 1 0
BITMAP
3D00
4700
C300
8300
8300
8300
C300
C500
7980
ENDCHAR
STARTCHAR 03B2
ENCODING 946
SWIDTH 514 0
DWIDTH 10 0
BBX 9 17 1 -4
BITMAP
3C00
6600
4300
C300
C300
C600
DE00
C300
C100
C180
C100
C300
FE00
C000
C000
C000
C000
ENDCHAR
STARTCHAR 03B3
ENCODING 947
SWIDTH 514 0
DWIDTH 10 0
BBX 8 13 1 -4
BITMAP
C1
41
63
23
32
32
36
14
1C
18
18
18
18
ENDCHAR
STARTCHAR 03B4
ENCODING 948
SWIDTH 514 0
DWIDTH 10 0
BBX 8 13 1 0
BITMAP
1E
30
30
18
3C
66
C3
C3
C1
C1
C3
62
3C
ENDCHAR
STARTCHAR 03B5
ENCODING 949
SWIDTH 514 0
DWIDTH 10 0
BBX 8 9 1 0
BITMAP
3F
60
40
60
3E
C0
C0
E0
3F
ENDCHAR
STARTCHAR 03B6
ENCODING 950
SWIDTH 514 0
DWIDTH 10 0
BBX 8 17 1 -4
BITMAP
7F
06
0C
18
30
60
60
40
C0
40
60
70
1E
03
03
03
02
ENDCHAR
STARTCHAR 03B7
ENCODING 951
SWIDTH 514 0
DWIDTH 10 0
BBX 8 13 1 -4
BITMAP
DE
E3
C3
43
43
43
43
43
43
03
03
03
03
ENDCHAR
STARTCHAR 03B8
ENCODING 952
SWIDTH 514 0
DWIDTH 10 0
BBX 9 13 1 0
BITMAP
3C00
6200
4300
C100
C100
C180
FF80
C100
C100
C100
4300
6200
3C00
ENDCHAR
STARTCHAR 03B9
ENCODING 953
SWIDTH 514 0
DWIDTH 10 0
BBX 8 9 1 0
BITMAP
F8
18
18
18
18
18
18
08
0F
ENDCHAR
STARTCHAR 03BA
ENCODING 954
SWIDTH 514 0
DWIDTH 10 0
BBX 7 9 2 0
BITMAP
86
8C
98
B0
F0
B8
98
8C
86
ENDCHAR
STARTCHAR 03BB
ENCODING 955
SWIDTH 514 0
DWIDTH 10 0
BBX 9 13 1 0
BITMAP
7000
1000
1800
1800
1800
1C00
3400
3600
2600
6200
4300
C300
C180
ENDCHAR
STARTCHAR 03BC
ENCODING 956
SWIDTH 514 0
DWIDTH 10 0
BBX 9 13 1 -4
BITMAP
C300
C300
C300
C300
C300
C300
C300
E700
F980
C000
C000
C000
C000
ENDCHAR
STARTCHAR 03BD
ENCODING 957
SWIDTH 514 0
DWIDTH 10 0
BBX 8 9 1 0
BITMAP
C1
C3
43
63
62
36
34
1C
18
ENDCHAR
STARTCHAR 03BE
ENCODING 958
SWIDTH 514 0
DWIDTH 10 0
BBX 8 17 1 -4
BITMAP
7F
30
60
60
60
60
1E
60
40
C0
C0
70
1E
03
03
03
02
ENDCHAR
STARTCHAR 03BF
ENCODING 959
SWIDTH 514 0
DWIDTH 10 0
BBX 9 9 1 0
BITMAP
3E00
6300
C100
C180
C180
C100
C100
6300
3C00
ENDCHAR
STARTCHAR 03C0
ENCODING 960
SWIDTH 514 0
DWIDTH 10 0
BBX 10 9 0 0
BITMAP
FFC0
3300
3300
3300
3300
2100
2100
6100
61C0
ENDCHAR
STARTCHAR 03C1
ENCODING 961
SWIDTH 514 0
DWIDTH 10 0
BBX 8 13 1 -4
BITMAP
3E
63
41
41
C1
C1
C3
C2
FC
C0
C0
C0
C0
ENDCHAR
STARTCHAR 03C2
ENCODING 962
SWIDTH 514 0
DWIDTH 10 0
BBX 8 13 1 -4
BITMAP
1E
61
60
40
C0
40
60
70
3E
03
03
03
02
ENDCHAR
STARTCHAR 03C3
ENCODING 963
SWIDTH 514 0
DWIDTH 10 0
BBX 9 9 1 0
BITMAP
3F80
6200
C300
C100
C100
C100
C300
6200
3C00
ENDCHAR
STARTCHAR 03C4
ENCODING 964
SWIDTH 514 0
DWIDTH 10 0
BBX 8 9 1 0
BITMAP
FF
30
30
30
30
30
30
10
1F
ENDCHAR
STARTCHAR 03C5
ENCODING 965
SWIDTH 514 0
DWIDTH 10 0
BBX 8 9 1 0
BITMAP
C3
C3
C3
C3
C3
C3
43
66
3C
ENDCHAR
STARTCHAR 03C6
ENCODING 966
SWIDTH 514 0
DWIDTH 10 0
BBX 10 17 0 -4
BITMAP
0C00
0C00
0C00
0C00
1F00
6D80
4CC0
CCC0
CCC0
CCC0
4CC0
6D80
3F00
0C00
0C00
0C00
0C00
ENDCHAR
STARTCHAR 03C7
ENCODING 967
SWIDTH 514 0
DWIDTH 10 0
BBX 9 13 1 -4
BITMAP
C300
6300
3600
3600
1C00
1C00
1800
1C00
3C00
6600
6600
C200
C380
ENDCHAR
STARTCHAR 03C8
ENCODING 968
SWIDTH 514 0
DWIDTH 10 0
BBX 9 17 1 -4
BITMAP
1800
1800
1800
1800
9980
9980
9980
9980
9980
9980
9900
DB00
7E00
1800
1800
1800
1800
ENDCHAR
STARTCHAR 03C9
ENCODING 969
SWIDTH 514 0
DWIDTH 10 0
BBX 10 9 0 0
BITMAP
6080
40C0
40C0
CCC0
CCC0
CCC0
4CC0
4C80
3380
ENDCHAR
STARTCHAR 03CA
ENCODING 970
SWIDTH 514 0
DWIDTH 10 0
BBX 8 13 1 0
BITMAP
66
66
00
00
F8
18
18
18
18
18
18
08
0F
ENDCHAR
STARTCHAR 03CB
ENCODING 971
SWIDTH 514 0
DWIDTH 10 0
BBX 8 13 1 0
BITMAP
66
66
00
00
C3
C3
C3
C3
C3
C3
43
66
3C
ENDCHAR
STARTCHAR 03CC
ENCODING 972
SWIDTH 514 0
DWIDTH 10 0
BBX 9 14 1 0
BITMAP
0C00
0C00
0800
0000
0000
3E00
6300
C100
C180
C180
C100
C100
6300
3C00
ENDCHAR
STARTCHAR 03CD
ENCODING 973
SWIDTH 514 0
DWIDTH 10 0
BBX 8 14 1 0
BITMAP
0C
0C
08
00
00
C3
C3
C3
C3
C3
C3
43
66
3C
ENDCHAR
STARTCHAR 03CE
ENCODING 974
SWIDTH 514 0
DWIDTH 10 0
BBX 10 14 0 0
BITMAP
0600
0600
0400
0000
0000
6080
40C0
40C0
CCC0
CCC0
CCC0
4CC0
4C80
3380
ENDCHAR
STARTCHAR 03D0
ENCODING 976
SWIDTH 514 0
DWIDTH 10 0
BBX 8 13 1 0
BITMAP
1E
63
63
C3
C2
CE
FE
C3
C1
C1
41
63
3C
ENDCHAR
STARTCHAR 03D1
ENCODING 977
SWIDTH 514 0
DWIDTH 10 0
BBX 10 13 0 0
BITMAP
0F00
1980
1080
1880
0FC0
C080
6080
6080
6180
6180
2180
3300
1E00
ENDCHAR
STARTCHAR 03D2
ENCODING 978
SWIDTH 514 0
DWIDTH 10 0
BBX 9 12 1 0
BITMAP
C180
6200
3400
1400
1800
1800
1800
1800
1800
1800
1800
1800
ENDCHAR
STARTCHAR 03D3
ENCODING 979
SWIDTH 514 0
DWIDTH 10 0
BBX 12 13 -2 0
BITMAP
C000
D830
8C40
0680
0280
0300
0300
0300
0300
0300
0300
0300
0300
ENDCHAR
STARTCHAR 03D4
ENCODING 980
SWIDTH 514 0
DWIDTH 10 0
BBX 9 15 1 0
BITMAP
6600
6600
0000
C180
6200
3400
1400
1800
1800
1800
1800
1800
1800
1800
1800
ENDCHAR
STARTCHAR 03D5
ENCODING 981
SWIDTH 514 0
DWIDTH 10 0
BBX 9 12 1 -3
BITMAP
4F00
C900
9980
9980
9980
9980
D900
DB00
3E00
1800
1800
1800
ENDCHAR
STARTCHAR 03D6
ENCODING 982
SWIDTH 514 0
DWIDTH 10 0
BBX 12 10 -1 0
BITMAP
0010
7FF0
B040
2060
2660
2660
2660
2640
3640
1D80
ENDCHAR
STARTCHAR 03D7
ENCODING 983
SWIDTH 514 0
DWIDTH 10 0
BBX 10 13 0 -4
BITMAP
E080
3180
3380
3700
3D00
3900
3100
6100
41C0
0040
0040
00C0
0380
ENDCHAR
STARTCHAR 03D8
ENCODING 984
SWIDTH 514 0
DWIDTH 10 0
BBX 9 12 1 0
BITMAP
3E00
6300
C180
8180
8180
8180
8180
C180
C300
3E00
1800
1800
ENDCHAR
STARTCHAR 03D9
ENCODING 985
SWIDTH 514 0
DWIDTH 10 0
BBX 9 13 1 -4
BITMAP
3E00
6300
C100
C180
C180
C180
C100
6300
3E00
1800
1800
1800
1800
ENDCHAR
STARTCHAR 03DA
ENCODING 986
SWIDTH 514 0
DWIDTH 10 0
BBX 8 17 1 -4
BITMAP
01
07
3C
60
C0
C0
C0
C0
C0
C0
E0
70
3E
03
01
01
03
ENDCHAR
STARTCHAR 03DB
ENCODING 987
SWIDTH 514 0
DWIDTH 10 0
BBX 8 14 1 -4
BITMAP
01
1F
78
60
40
C0
40
60
70
3E
03
03
03
02
ENDCHAR
STARTCHAR 03DC
ENCODING 988
SWIDTH 514 0
DWIDTH 10 0
BBX 7 12 2 0
BITMAP
FE
C0
C0
C0
C0
FC
C2
C0
C0
C0
C0
C0
ENDCHAR
STARTCHAR 03DD
ENCODING 989
SWIDTH 514 0
DWIDTH 10 0
BBX 7 13 2 -4
BITMAP
3E
40
C0
C0
C0
FC
C4
C0
C0
C0
C0
C0
C0
ENDCHAR
STARTCHAR 03DE
ENCODING 990
SWIDTH 514 0
DWIDTH 10 0
BBX 9 12 1 0
BITMAP
1000
3000
2000
6000
C000
FF80
0300
0300
0600
0600
0C00
0C00
ENDCHAR
STARTCHAR 03DF
ENCODING 991
SWIDTH 514 0
DWIDTH 10 0
BBX 8 13 1 -4
BITMAP
10
30
20
60
60
FF
03
02
06
06
0C
0C
08
ENDCHAR
STARTCHAR 03E0
ENCODING 992
SWIDTH 514 0
DWIDTH 10 0
BBX 9 12 1 0
BITMAP
F800
0E00
0700
1B00
3180
6780
0D80
1980
0180
0100
0300
0600
ENDCHAR
STARTCHAR 03E1
ENCODING 993
SWIDTH 514 0
DWIDTH 10 0
BBX 9 16 1 -4
BITMAP
F800
8C00
0600
0700
1B00
3100
2380
0780
0D80
1980
0180
0100
0100
0300
0200
0600
ENDCHAR
STARTCHAR 03E2
ENCODING 994
SWIDTH 514 0
DWIDTH 10 0
BBX 9 15 1 -3
BITMAP
9980
9980
9980
9980
9980
9980
9980
9980
9980
9980
D980
7780
0180
0100
3F00
ENDCHAR
STARTCHAR 03E3
ENCODING 995
SWIDTH 514 0
DWIDTH 10 0
BBX 9 12 1 -3
BITMAP
9980
9980
9980
9980
9980
9980
9980
9B80
EF80
0180
0100
3F00
ENDCHAR
STARTCHAR 03E4
ENCODING 996
SWIDTH 514 0
DWIDTH 10 0
BBX 8 12 1 0
BITMAP
73
C3
C3
C3
C3
C3
63
3F
03
03
03
03
ENDCHAR
STARTCHAR 03E5
ENCODING 997
SWIDTH 514 0
DWIDTH 10 0
BBX 8 13 1 -4
BITMAP
63
C3
C3
C3
C3
C3
43
3F
03
03
03
03
03
ENDCHAR
STARTCHAR 03E6
ENCODING 998
SWIDTH 514 0
DWIDTH 10 0
BBX 8 16 1 -3
BITMAP
C0
C0
C0
C0
C0
FE
C3
C1
C1
C1
C1
C1
C1
01
03
7E
ENDCHAR
STARTCHAR 03E7
ENCODING 999
SWIDTH 514 0
DWIDTH 10 0
BBX 8 9 1 0
BITMAP
3D
67
67
3D
01
01
61
93
8E
ENDCHAR
STARTCHAR 03E8
ENCODING 1000
SWIDTH 514 0
DWIDTH 10 0
BBX 8 12 1 0
BITMAP
3C
62
63
02
0E
38
60
C0
C0
C0
61
3F
ENDCHAR
STARTCHAR 03E9
ENCODING 1001
SWIDTH 514 0
DWIDTH 10 0
BBX 7 9 2 0
BITMAP
78
CC
8C
18
70
C0
80
C2
7E
ENDCHAR
STARTCHAR 03EA
ENCODING 1002
SWIDTH 514 0
DWIDTH 10 0
BBX 10 12 0 0
BITMAP
7380
1A00
0E00
0C00
0C00
0E00
1A00
1300
3100
2180
6080
FFC0
ENDCHAR
STARTCHAR 03EB
ENCODING 1003
SWIDTH 514 0
DWIDTH 10 0
BBX 8 9 1 0
BITMAP
E6
38
18
18
3C
64
46
C2
FF
ENDCHAR
STARTCHAR 03EC
ENCODING 1004
SWIDTH 514 0
DWIDTH 10 0
BBX 9 13 1 0
BITMAP
3F80
6000
C000
C000
BE00
C300
8100
8180
8180
8180
C100
6300
3C00
ENDCHAR
STARTCHAR 03ED
ENCODING 1005
SWIDTH 514 0
DWIDTH 10 0
BBX 9 13 1 0
BITMAP
1F00
6000
4000
4000
DE00
E300
C100
C180
C180
C180
4100
6300
3C00
ENDCHAR
STARTCHAR 03EE
ENCODING 1006
SWIDTH 514 0
DWIDTH 10 0
BBX 8 12 1 0
BITMAP
18
FF
98
18
18
18
18
18
18
18
18
18
ENDCHAR
STARTCHAR 03EF
ENCODING 1007
SWIDTH 514 0
DWIDTH 10 0
BBX 8 15 1 -4
BITMAP
08
08
FF
08
08
08
08
08
08
08
08
08
08
18
30
ENDCHAR
STARTCHAR 03F0
ENCODING 1008
SWIDTH 514 0
DWIDTH 10 0
BBX 10 9 0 0
BITMAP
E080
3180
3380
3700
3D00
3900
3100
6100
41C0
ENDCHAR
STARTCHAR 03F1
ENCODING 1009
SWIDTH 514 0
DWIDTH 10 0
BBX 8 12 1 -3
BITMAP
3E
63
41
41
C1
C1
C3
C2
FC
40
60
3F
ENDCHAR
STARTCHAR 03F2
ENCODING 1010
SWIDTH 514 0
DWIDTH 10 0
BBX 8 9 1 0
BITMAP
1E
31
60
40
C0
40
60
61
1E
ENDCHAR
STARTCHAR 03F3
ENCODING 1011
SWIDTH 514 0
DWIDTH 10 0
BBX 7 17 1 -4
BITMAP
06
06
00
00
7E
06
06
06
06
06
06
06
06
06
06
8C
78
ENDCHAR
STARTCHAR 03F4
ENCODING 1012
SWIDTH 514 0
DWIDTH 10 0
BBX 9 12 1 0
BITMAP
3E00
6300
C100
C180
8180
FF80
8180
8180
C180
C300
6300
3C00
ENDCHAR
STARTCHAR 03F5
ENCODING 1013
SWIDTH 514 0
DWIDTH 10 0
BBX 8 9 1 0
BITMAP
1F
30
60
40
FE
40
60
70
1F
ENDCHAR
STARTCHAR 03F6
ENCODING 1014
SWIDTH 514 0
DWIDTH 10 0
BBX 8 9 1 0
BITMAP
FC
06
03
03
7F
03
03
06
FC
ENDCHAR
STARTCHAR 03F7
ENCODING 1015
SWIDTH 514 0
DWIDTH 10 0
BBX 8 12 1 0
BITMAP
C0
C0
FC
C3
C3
C1
C1
C3
C2
FC
C0
C0
ENDCHAR
STARTCHAR 03F8
ENCODING 1016
SWIDTH 514 0
DWIDTH 10 0
BBX 10 17 -1 -4
BITMAP
0E00
1000
1000
3000
3780
3CC0
3840
3040
3040
3040
30C0
3080
3F00
3000
3000
3000
E000
ENDCHAR
STARTCHAR 03F9
ENCODING 1017
SWIDTH 514 0
DWIDTH 10 0
BBX 8 12 1 0
BITMAP
1E
61
40
C0
C0
C0
C0
C0
C0
40
61
1E
ENDCHAR
STARTCHAR 03FA
ENCODING 1018
SWIDTH 514 0
DWIDTH 10 0
BBX 9 12 1 0
BITMAP
C380
E780
B780
BD80
9980
8180
8180
8180
8180
8180
8180
8180
ENDCHAR
STARTCHAR 03FB
ENCODING 1019
SWIDTH 514 0
DWIDTH 10 0
BBX 8 13 1 -4
BITMAP
C3
E7
F5
DD
D9
C1
C1
C1
C1
C0
C0
C0
C0
ENDCHAR
STARTCHAR 03FC
ENCODING 1020
SWIDTH 514 0
DWIDTH 10 0
BBX 9 13 0 -4
BITMAP
1F00
3180
2080
2080
6080
6080
6180
6100
7E00
6000
FC00
6000
6000
ENDCHAR
STARTCHAR 03FD
ENCODING 1021
SWIDTH 514 0
DWIDTH 10 0
BBX 9 12 1 0
BITMAP
7C00
8600
0300
0100
0180
0180
0180
0100
0300
0300
8600
7C00
ENDCHAR
STARTCHAR 03FE
ENCODING 1022
SWIDTH 514 0
DWIDTH 10 0
BBX 8 12 1 0
BITMAP
1E
61
40
C0
CE
CE
CE
C0
C0
40
61
1E
ENDCHAR
STARTCHAR 03FF
ENCODING 1023
SWIDTH 514 0
DWIDTH 10 0
BBX 9 12 1 0
BITMAP
7C00
8600
0300
0100
3180
7180
3180
0100
0300
0300
8600
7C00
ENDCHAR
STARTCHAR 0400
ENCODING 1024
SWIDTH 514 0
DWIDTH 10 0
BBX 7 15 2 0
BITMAP
60
30
00
FE
C0
C0
C0
C0
FE
C0
C0
C0
C0
C0
FE
ENDCHAR
STARTCHAR 0401
ENCODING 1025
SWIDTH 514 0
DWIDTH 10 0
BBX 7 15 2 0
BITMAP
CC
CC
00
FE
C0
C0
C0
C0
FE
C0
C0
C0
C0
C0
FE
ENDCHAR
STARTCHAR 0402
ENCODING 1026
SWIDTH 514 0
DWIDTH 10 0
BBX 10 12 0 0
BITMAP
FE00
3000
3000
3000
3000
3F00
31C0
30C0
30C0
30C0
3080
3300
ENDCHAR
STARTCHAR 0403
ENCODING 1027
SWIDTH 514 0
DWIDTH 10 0
BBX 7 15 2 0
BITMAP
0C
18
00
FE
C0
C0
C0
C0
C0
C0
C0
C0
C0
C0
C0
ENDCHAR
STARTCHAR 0404
ENCODING 1028
SWIDTH 514 0
DWIDTH 10 0
BBX 8 12 1 0
BITMAP
1E
61
40
C0
C0
FE
C0
C0
C0
C0
61
3E
ENDCHAR
STARTCHAR 0405
ENCODING 1029
SWIDTH 514 0
DWIDTH 10 0
BBX 8 12 1 0
BITMAP
3E
61
C0
C0
E0
78
0E
03
01
03
83
7C
ENDCHAR
STARTCHAR 0406
ENCODING 1030
SWIDTH 514 0
DWIDTH 10 0
BBX 7 12 2 0
BITMAP
FE
30
30
30
30
30
30
30
30
30
30
FE
ENDCHAR
STARTCHAR 0407
ENCODING 1031
SWIDTH 514 0
DWIDTH 10 0
BBX 7 15 2 0
BITMAP
CC
CC
00
FE
30
30
30
30
30
30
30
30
30
30
FE
ENDCHAR
STARTCHAR 0408
ENCODING 1032
SWIDTH 514 0
DWIDTH 10 0
BBX 6 12 2 0
BITMAP
FC
0C
0C
0C
0C
0C
0C
0C
0C
0C
8C
F0
ENDCHAR
STARTCHAR 0409
ENCODING 1033
SWIDTH 514 0
DWIDTH 10 0
BBX 10 12 0 0
BITMAP
3C00
2400
2400
2400
2400
2780
24C0
2440
6440
6440
44C0
C780
ENDCHAR
STARTCHAR 040A
ENCODING 1034
SWIDTH 514 0
DWIDTH 10 0
BBX 9 12 1 0
BITMAP
8800
8800
8800
8800
8800
FF00
8980
8880
8880
8880
8980
8F00
ENDCHAR
STARTCHAR 040B
ENCODING 1035
SWIDTH 514 0
DWIDTH 10 0
BBX 10 12 0 0
BITMAP
FE00
3000
3000
3000
3000
3F00
30C0
30C0
30C0
30C0
30C0
30C0
ENDCHAR
STARTCHAR 040C
ENCODING 1036
SWIDTH 514 0
DWIDTH 10 0
BBX 8 15 1 0
BITMAP
06
0C
00
C3
C6
C4
CC
D8
D0
F0
D8
CC
C6
C6
C3
ENDCHAR
STARTCHAR 040D
ENCODING 1037
SWIDTH 514 0
DWIDTH 10 0
BBX 8 15 1 0
BITMAP
30
18
00
C1
C3
C7
C5
CD
C9
D9
D1
F1
E1
E1
C1
ENDCHAR
STARTCHAR 040E
ENCODING 1038
SWIDTH 514 0
DWIDTH 10 0
BBX 9 15 1 0
BITMAP
6200
3C00
0000
C180
C100
6300
6300
3600
3600
1C00
1C00
0C00
1800
1800
F000
ENDCHAR
STARTCHAR 040F
ENCODING 1039
SWIDTH 514 0
DWIDTH 10 0
BBX 8 15 1 -3
BITMAP
C1
C1
C1
C1
C1
C1
C1
C1
C1
C1
C1
FF
18
18
18
ENDCHAR
STARTCHAR 0410
ENCODING 1040
SWIDTH 514 0
DWIDTH 10 0
BBX 10 12 0 0
BITMAP
0E00
0E00
1A00
1300
1300
3100
3180
2180
7F80
60C0
40C0
C0C0
ENDCHAR
STARTCHAR 0411
ENCODING 1041
SWIDTH 514 0
DWIDTH 10 0
BBX 9 12 1 0
BITMAP
FF00
C000
C000
C000
C000
FE00
C300
C100
C180
C100
C300
FE00
ENDCHAR
STARTCHAR 0412
ENCODING 1042
SWIDTH 514 0
DWIDTH 10 0
BBX 8 12 1 0
BITMAP
FE
C3
C3
C3
C2
FE
C3
C1
C1
C1
C3
FC
ENDCHAR
STARTCHAR 0413
ENCODING 1043
SWIDTH 514 0
DWIDTH 10 0
BBX 7 12 2 0
BITMAP
FE
C0
C0
C0
C0
C0
C0
C0
C0
C0
C0
C0
ENDCHAR
STARTCHAR 0414
ENCODING 1044
SWIDTH 514 0
DWIDTH 10 0
BBX 10 15 0 -3
BITMAP
1F80
1180
1180
1180
1180
1180
3180
3180
3180
3180
6180
FFC0
C040
C040
C040
ENDCHAR
STARTCHAR 0415
ENCODING 1045
SWIDTH 514 0
DWIDTH 10 0
BBX 7 12 2 0
BITMAP
FE
C0
C0
C0
C0
FE
C0
C0
C0
C0
C0
FE
ENDCHAR
STARTCHAR 0416
ENCODING 1046
SWIDTH 514 0
DWIDTH 10 0
BBX 10 12 0 0
BITMAP
CC40
4CC0
6C80
2D80
3D00
1F00
1F00
3D00
2D80
6C80
4CC0
CC40
ENDCHAR
STARTCHAR 0417
ENCODING 1047
SWIDTH 514 0
DWIDTH 10 0
BBX 8 12 1 0
BITMAP
7C
86
03
03
06
7C
03
03
03
03
86
7C
ENDCHAR
STARTCHAR 0418
ENCODING 1048
SWIDTH 514 0
DWIDTH 10 0
BBX 8 12 1 0
BITMAP
C1
C3
C7
C5
CD
C9
D9
D1
F1
E1
E1
C1
ENDCHAR
STARTCHAR 0419
ENCODING 1049
SWIDTH 514 0
DWIDTH 10 0
BBX 8 15 1 0
BITMAP
62
3C
00
C1
C3
C7
C5
CD
C9
D9
D1
F1
E1
E1
C1
ENDCHAR
STARTCHAR 041A
ENCODING 1050
SWIDTH 514 0
DWIDTH 10 0
BBX 8 12 1 0
BITMAP
C3
C6
C4
CC
D8
D0
F0
D8
CC
C6
C6
C3
ENDCHAR
STARTCHAR 041B
ENCODING 1051
SWIDTH 514 0
DWIDTH 10 0
BBX 9 12 0 0
BITMAP
1F80
1980
1980
1980
1180
1180
1180
3180
3180
3180
6180
C180
ENDCHAR
STARTCHAR 041C
ENCODING 1052
SWIDTH 514 0
DWIDTH 10 0
BBX 10 12 0 0
BITMAP
6180
6180
51C0
52C0
52C0
4AC0
4CC0
4CC0
40C0
40C0
40C0
C0C0
ENDCHAR
STARTCHAR 041D
ENCODING 1053
SWIDTH 514 0
DWIDTH 10 0
BBX 8 12 1 0
BITMAP
C1
C1
C1
C1
C1
FF
C1
C1
C1
C1
C1
C1
ENDCHAR
STARTCHAR 041E
ENCODING 1054
SWIDTH 514 0
DWIDTH 10 0
BBX 9 12 1 0
BITMAP
3E00
6300
C100
C180
8180
8180
8180
8180
C180
C100
6300
3C00
ENDCHAR
STARTCHAR 041F
ENCODING 1055
SWIDTH 514 0
DWIDTH 10 0
BBX 8 12 1 0
BITMAP
FF
C1
C1
C1
C1
C1
C1
C1
C1
C1
C1
C1
ENDCHAR
STARTCHAR 0420
ENCODING 1056
SWIDTH 514 0
DWIDTH 10 0
BBX 8 12 1 0
BITMAP
FC
C3
C3
C1
C1
C3
C2
FC
C0
C0
C0
C0
ENDCHAR
STARTCHAR 0421
ENCODING 1057
SWIDTH 514 0
DWIDTH 10 0
BBX 8 12 1 0
BITMAP
1E
61
40
C0
C0
C0
C0
C0
C0
40
61
1E
ENDCHAR
STARTCHAR 0422
ENCODING 1058
SWIDTH 514 0
DWIDTH 10 0
BBX 9 12 1 0
BITMAP
FF80
1800
1800
1800
1800
1800
1800
1800
1800
1800
1800
1800
ENDCHAR
STARTCHAR 0423
ENCODING 1059
SWIDTH 514 0
DWIDTH 10 0
BBX 9 12 1 0
BITMAP
C180
C100
6300
6300
3600
3600
1C00
1C00
0C00
1800
1800
F000
ENDCHAR
STARTCHAR 0424
ENCODING 1060
SWIDTH 514 0
DWIDTH 10 0
BBX 10 12 0 0
BITMAP
0C00
1F00
6D80
4CC0
4CC0
CCC0
CCC0
CCC0
4CC0
6D80
1F00
0C00
ENDCHAR
STARTCHAR 0425
ENCODING 1061
SWIDTH 514 0
DWIDTH 10 0
BBX 10 12 0 0
BITMAP
60C0
6180
3300
1B00
1E00
0C00
0E00
1E00
3300
3180
6180
E0C0
ENDCHAR
STARTCHAR 0426
ENCODING 1062
SWIDTH 514 0
DWIDTH 10 0
BBX 9 15 1 -3
BITMAP
C300
C300
C300
C300
C300
C300
C300
C300
C300
C300
C300
FF80
0080
0080
0080
ENDCHAR
STARTCHAR 0427
ENCODING 1063
SWIDTH 514 0
DWIDTH 10 0
BBX 8 12 1 0
BITMAP
C1
C1
C1
C1
C1
41
3F
01
01
01
01
01
ENDCHAR
STARTCHAR 0428
ENCODING 1064
SWIDTH 514 0
DWIDTH 10 0
BBX 9 12 1 0
BITMAP
9980
9980
9980
9980
9980
9980
9980
9980
9980
9980
9980
FF80
ENDCHAR
STARTCHAR 0429
ENCODING 1065
SWIDTH 514 0
DWIDTH 10 0
BBX 9 15 1 -3
BITMAP
9980
9980
9980
9980
9980
9980
9980
9980
9980
9980
9980
FF80
0080
0080
0080
ENDCHAR
STARTCHAR 042A
ENCODING 1066
SWIDTH 514 0
DWIDTH 10 0
BBX 10 12 0 0
BITMAP
F000
3000
3000
3000
3000
3F00
3180
30C0
30C0
30C0
3180
3F00
ENDCHAR
STARTCHAR 042B
ENCODING 1067
SWIDTH 514 0
DWIDTH 10 0
BBX 9 12 1 0
BITMAP
8180
8180
8180
8180
8180
F980
8D80
8D80
8580
8D80
8D80
F980
ENDCHAR
STARTCHAR 042C
ENCODING 1068
SWIDTH 514 0
DWIDTH 10 0
BBX 9 12 1 0
BITMAP
C000
C000
C000
C000
C000
FE00
C300
C100
C180
C100
C300
FE00
ENDCHAR
STARTCHAR 042D
ENCODING 1069
SWIDTH 514 0
DWIDTH 10 0
BBX 9 12 1 0
BITMAP
7C00
8600
0300
0100
0180
7F80
0180
0100
0100
0300
8600
7C00
ENDCHAR
STARTCHAR 042E
ENCODING 1070
SWIDTH 514 0
DWIDTH 10 0
BBX 9 12 1 0
BITMAP
8F00
8980
9980
9980
9880
F880
9880
9880
9980
9980
8900
8F00
ENDCHAR
STARTCHAR 042F
ENCODING 1071
SWIDTH 514 0
DWIDTH 10 0
BBX 8 12 1 0
BITMAP
3F
63
43
43
43
63
3F
33
63
63
C3
C3
ENDCHAR
STARTCHAR 0430
ENCODING 1072
SWIDTH 514 0
DWIDTH 10 0
BBX 8 9 1 0
BITMAP
3E
43
03
03
3F
43
C3
C7
7B
ENDCHAR
STARTCHAR 0431
ENCODING 1073
SWIDTH 514 0
DWIDTH 10 0
BBX 9 13 1 0
BITMAP
1F00
3000
6000
4000
DE00
E300
C100
C180
C180
C180
4100
6300
3C00
ENDCHAR
STARTCHAR 0432
ENCODING 1074
SWIDTH 514 0
DWIDTH 10 0
BBX 8 9 1 0
BITMAP
FE
C3
C3
C3
FE
C3
C1
C3
FE
ENDCHAR
STARTCHAR 0433
ENCODING 1075
SWIDTH 514 0
DWIDTH 10 0
BBX 7 9 2 0
BITMAP
FE
C0
C0
C0
C0
C0
C0
C0
C0
ENDCHAR
STARTCHAR 0434
ENCODING 1076
SWIDTH 514 0
DWIDTH 10 0
BBX 10 11 0 -2
BITMAP
1F80
1980
1180
1180
1180
3180
3180
2180
FFC0
C040
C040
ENDCHAR
STARTCHAR 0435
ENCODING 1077
SWIDTH 514 0
DWIDTH 10 0
BBX 8 9 1 0
BITMAP
3E
63
C3
C1
FF
C0
C0
60
3F
ENDCHAR
STARTCHAR 0436
ENCODING 1078
SWIDTH 514 0
DWIDTH 10 0
BBX 10 9 0 0
BITMAP
CCC0
6C80
2D80
3D00
1E00
3D00
2D80
6C80
CCC0
ENDCHAR
STARTCHAR 0437
ENCODING 1079
SWIDTH 514 0
DWIDTH 10 0
BBX 8 9 1 0
BITMAP
FE
03
03
02
7C
03
03
03
FE
ENDCHAR
STARTCHAR 0438
ENCODING 1080
SWIDTH 514 0
DWIDTH 10 0
BBX 7 9 2 0
BITMAP
86
8E
8E
9E
B6
A6
E6
C6
86
ENDCHAR
STARTCHAR 0439
ENCODING 1081
SWIDTH 514 0
DWIDTH 10 0
BBX 7 13 2 0
BITMAP
C4
4C
78
00
86
8E
8E
9E
B6
A6
E6
C6
86
ENDCHAR
STARTCHAR 043A
ENCODING 1082
SWIDTH 514 0
DWIDTH 10 0
BBX 7 9 2 0
BITMAP
86
8C
98
B0
F0
B8
98
8C
86
ENDCHAR
STARTCHAR 043B
ENCODING 1083
SWIDTH 514 0
DWIDTH 10 0
BBX 9 9 0 0
BITMAP
1F80
1980
1980
1180
1180
1180
3180
2180
E180
ENDCHAR
STARTCHAR 043C
ENCODING 1084
SWIDTH 514 0
DWIDTH 10 0
BBX 10 9 0 0
BITMAP
6180
71C0
53C0
5AC0
4EC0
4CC0
4CC0
40C0
C0C0
ENDCHAR
STARTCHAR 043D
ENCODING 1085
SWIDTH 514 0
DWIDTH 10 0
BBX 8 9 1 0
BITMAP
C3
C3
C3
C3
FF
C3
C3
C3
C3
ENDCHAR
STARTCHAR 043E
ENCODING 1086
SWIDTH 514 0
DWIDTH 10 0
BBX 9 9 1 0
BITMAP
3E00
6300
C100
C180
C180
C100
C100
6300
3C00
ENDCHAR
STARTCHAR 043F
ENCODING 1087
SWIDTH 514 0
DWIDTH 10 0
BBX 8 9 1 0
BITMAP
FF
C3
C3
C3
C3
C3
C3
C3
C3
ENDCHAR
STARTCHAR 0440
ENCODING 1088
SWIDTH 514 0
DWIDTH 10 0
BBX 8 13 1 -4
BITMAP
DE
F3
C1
C1
C1
C1
C3
C2
FC
C0
C0
C0
C0
ENDCHAR
STARTCHAR 0441
ENCODING 1089
SWIDTH 514 0
DWIDTH 10 0
BBX 8 9 1 0
BITMAP
1E
31
60
40
C0
40
60
61
1E
ENDCHAR
STARTCHAR 0442
ENCODING 1090
SWIDTH 514 0
DWIDTH 10 0
BBX 9 9 1 0
BITMAP
FF80
1800
1800
1800
1800
1800
1800
1800
1800
ENDCHAR
STARTCHAR 0443
ENCODING 1091
SWIDTH 514 0
DWIDTH 10 0
BBX 9 13 1 -4
BITMAP
C180
C300
4300
6200
6600
2400
3400
1C00
1800
1800
1000
3000
E000
ENDCHAR
STARTCHAR 0444
ENCODING 1092
SWIDTH 514 0
DWIDTH 10 0
BBX 10 17 0 -4
BITMAP
0C00
0C00
0C00
0C00
1F00
6D80
4CC0
CCC0
CCC0
CCC0
4CC0
6D80
3F00
0C00
0C00
0C00
0C00
ENDCHAR
STARTCHAR 0445
ENCODING 1093
SWIDTH 514 0
DWIDTH 10 0
BBX 8 9 1 0
BITMAP
C3
63
36
1C
18
3C
26
63
C3
ENDCHAR
STARTCHAR 0446
ENCODING 1094
SWIDTH 514 0
DWIDTH 10 0
BBX 9 11 1 -2
BITMAP
C300
C300
C300
C300
C300
C300
C300
C300
FF80
0180
0180
ENDCHAR
STARTCHAR 0447
ENCODING 1095
SWIDTH 514 0
DWIDTH 10 0
BBX 8 9 1 0
BITMAP
C3
C3
C3
C3
63
3F
03
03
03
ENDCHAR
STARTCHAR 0448
ENCODING 1096
SWIDTH 514 0
DWIDTH 10 0
BBX 9 9 1 0
BITMAP
9980
9980
9980
9980
9980
9980
9980
9980
FF80
ENDCHAR
STARTCHAR 0449
ENCODING 1097
SWIDTH 514 0
DWIDTH 10 0
BBX 9 11 1 -2
BITMAP
9900
9900
9900
9900
9900
9900
9900
9900
FF80
0080
0080
ENDCHAR
STARTCHAR 044A
ENCODING 1098
SWIDTH 514 0
DWIDTH 10 0
BBX 10 9 0 0
BITMAP
F000
3000
3000
3000
3F00
3080
30C0
3080
3F00
ENDCHAR
STARTCHAR 044B
ENCODING 1099
SWIDTH 514 0
DWIDTH 10 0
BBX 9 9 1 0
BITMAP
8180
8180
8180
8180
F980
8D80
8D80
8D80
F980
ENDCHAR
STARTCHAR 044C
ENCODING 1100
SWIDTH 514 0
DWIDTH 10 0
BBX 7 9 2 0
BITMAP
80
80
80
80
FC
86
82
86
FC
ENDCHAR
STARTCHAR 044D
ENCODING 1101
SWIDTH 514 0
DWIDTH 10 0
BBX 8 9 1 0
BITMAP
7C
86
03
03
7F
01
03
86
7C
ENDCHAR
STARTCHAR 044E
ENCODING 1102
SWIDTH 514 0
DWIDTH 10 0
BBX 9 9 1 0
BITMAP
8F00
8980
9980
9880
F880
9880
9980
9980
8F00
ENDCHAR
STARTCHAR 044F
ENCODING 1103
SWIDTH 514 0
DWIDTH 10 0
BBX 8 9 1 0
BITMAP
3F
63
43
63
3F
63
63
C3
C3
ENDCHAR
STARTCHAR 0450
ENCODING 1104
SWIDTH 514 0
DWIDTH 10 0
BBX 8 13 1 0
BITMAP
70
18
00
00
3E
63
C3
C1
FF
C0
C0
60
3F
ENDCHAR
STARTCHAR 0451
ENCODING 1105
SWIDTH 514 0
DWIDTH 10 0
BBX 8 13 1 0
BITMAP
66
66
00
00
3E
63
C3
C1
FF
C0
C0
60
3F
ENDCHAR
STARTCHAR 0452
ENCODING 1106
SWIDTH 514 0
DWIDTH 10 0
BBX 9 17 0 -4
BITMAP
6000
FC00
6000
6000
6F00
7180
7180
6180
6080
6080
6080
6080
6180
0180
0180
0100
0600
ENDCHAR
STARTCHAR 0453
ENCODING 1107
SWIDTH 514 0
DWIDTH 10 0
BBX 7 13 2 0
BITMAP
0C
18
00
00
FE
C0
C0
C0
C0
C0
C0
C0
C0
ENDCHAR
STARTCHAR 0454
ENCODING 1108
SWIDTH 514 0
DWIDTH 10 0
BBX 8 9 1 0
BITMAP
1F
61
60
40
FF
40
60
61
1E
ENDCHAR
STARTCHAR 0455
ENCODING 1109
SWIDTH 514 0
DWIDTH 10 0
BBX 7 9 2 0
BITMAP
78
C4
80
E0
7C
0E
06
86
78
ENDCHAR
STARTCHAR 0456
ENCODING 1110
SWIDTH 514 0
DWIDTH 10 0
BBX 7 13 2 0
BITMAP
30
30
00
00
F0
10
10
10
10
10
10
10
FE
ENDCHAR
STARTCHAR 0457
ENCODING 1111
SWIDTH 514 0
DWIDTH 10 0
BBX 7 13 2 0
BITMAP
CC
CC
00
00
F0
10
10
10
10
10
10
10
FE
ENDCHAR
STARTCHAR 0458
ENCODING 1112
SWIDTH 514 0
DWIDTH 10 0
BBX 7 17 1 -4
BITMAP
06
06
00
00
7E
06
06
06
06
06
06
06
06
06
06
8C
78
ENDCHAR
STARTCHAR 0459
ENCODING 1113
SWIDTH 514 0
DWIDTH 10 0
BBX 10 9 0 0
BITMAP
3C00
2400
2400
2400
2780
24C0
6440
64C0
C780
ENDCHAR
STARTCHAR 045A
ENCODING 1114
SWIDTH 514 0
DWIDTH 10 0
BBX 9 9 1 0
BITMAP
8800
8800
8800
8800
FF00
8980
8880
8980
8F00
ENDCHAR
STARTCHAR 045B
ENCODING 1115
SWIDTH 514 0
DWIDTH 10 0
BBX 9 13 0 0
BITMAP
6000
FC00
6000
6000
6F00
7980
7180
6180
6180
6180
6180
6180
6180
ENDCHAR
STARTCHAR 045C
ENCODING 1116
SWIDTH 514 0
DWIDTH 10 0
BBX 7 13 2 0
BITMAP
0C
18
00
00
86
8C
98
B0
F0
B8
98
8C
86
ENDCHAR
STARTCHAR 045D
ENCODING 1117
SWIDTH 514 0
DWIDTH 10 0
BBX 7 13 2 0
BITMAP
E0
30
00
00
86
8E
8E
9E
B6
A6
E6
C6
86
ENDCHAR
STARTCHAR 045E
ENCODING 1118
SWIDTH 514 0
DWIDTH 10 0
BBX 9 17 1 -4
BITMAP
6200
2600
3C00
0000
C180
C300
4300
6200
6600
2400
3400
1C00
1800
1800
1000
3000
E000
ENDCHAR
STARTCHAR 045F
ENCODING 1119
SWIDTH 514 0
DWIDTH 10 0
BBX 8 11 1 -2
BITMAP
C3
C3
C3
C3
C3
C3
C3
C3
FF
18
18
ENDCHAR
STARTCHAR 0460
ENCODING 1120
SWIDTH 514 0
DWIDTH 10 0
BBX 9 12 1 0
BITMAP
6600
C300
C100
8180
8180
8180
8180
9980
9980
9980
D900
7F00
ENDCHAR
STARTCHAR 0461
ENCODING 1121
SWIDTH 514 0
DWIDTH 10 0
BBX 9 9 1 0
BITMAP
9980
D980
C980
D980
5D00
5D00
5500
5700
7600
ENDCHAR
STARTCHAR 0462
ENCODING 1122
SWIDTH 514 0
DWIDTH 10 0
BBX 10 12 0 0
BITMAP
FE00
3000
3000
3000
3000
3F00
3180
30C0
30C0
30C0
3180
3F00
ENDCHAR
STARTCHAR 0463
ENCODING 1123
SWIDTH 514 0
DWIDTH 10 0
BBX 10 12 0 0
BITMAP
3000
3000
3000
FF00
3000
3000
3000
3F00
3080
30C0
3180
3F00
ENDCHAR
STARTCHAR 0464
ENCODING 1124
SWIDTH 514 0
DWIDTH 10 0
BBX 9 12 1 0
BITMAP
8780
8C00
9800
9800
9800
FF00
9800
9800
9800
8800
8C00
8780
ENDCHAR
STARTCHAR 0465
ENCODING 1125
SWIDTH 514 0
DWIDTH 10 0
BBX 9 9 1 0
BITMAP
8780
8800
9800
9800
FF00
9800
9800
8800
8780
ENDCHAR
STARTCHAR 0466
ENCODING 1126
SWIDTH 514 0
DWIDTH 10 0
BBX 10 12 0 0
BITMAP
0E00
0E00
1A00
1B00
1300
3F00
2D80
2D80
6C80
6CC0
4CC0
CCC0
ENDCHAR
STARTCHAR 0467
ENCODING 1127
SWIDTH 514 0
DWIDTH 10 0
BBX 9 9 1 0
BITMAP
1800
1C00
3400
2600
7E00
7B00
DB00
D900
9980
ENDCHAR
STARTCHAR 0468
ENCODING 1128
SWIDTH 514 0
DWIDTH 10 0
BBX 9 12 1 0
BITMAP
8E00
8A00
8A00
8A00
8B00
FF00
9500
9500
9500
B580
B580
A480
ENDCHAR
STARTCHAR 0469
ENCODING 1129
SWIDTH 514 0
DWIDTH 10 0
BBX 10 9 0 0
BITMAP
C700
C700
C500
CD00
FF80
CA80
DA80
DAC0
D240
ENDCHAR
STARTCHAR 046A
ENCODING 1130
SWIDTH 514 0
DWIDTH 10 0
BBX 10 12 0 0
BITMAP
7FC0
6180
3100
1300
1A00
1E00
1F00
3D00
2D80
6C80
4CC0
CC40
ENDCHAR
STARTCHAR 046B
ENCODING 1131
SWIDTH 514 0
DWIDTH 10 0
BBX 10 9 0 0
BITMAP
7F80
2180
3300
1A00
1E00
3F00
2D80
6C80
CCC0
ENDCHAR
STARTCHAR 046C
ENCODING 1132
SWIDTH 514 0
DWIDTH 10 0
BBX 9 12 1 0
BITMAP
BF80
9100
9900
8B00
8A00
FE00
8E00
9F00
9500
9500
B580
B480
ENDCHAR
STARTCHAR 046D
ENCODING 1133
SWIDTH 514 0
DWIDTH 10 0
BBX 9 9 1 0
BITMAP
BF80
9100
9B00
8A00
FA00
9F00
9500
9500
B580
ENDCHAR
STARTCHAR 046E
ENCODING 1134
SWIDTH 514 0
DWIDTH 10 0
BBX 8 17 1 -4
BITMAP
66
38
7E
03
03
03
06
7C
03
03
01
03
07
FC
80
80
FF
ENDCHAR
STARTCHAR 046F
ENCODING 1135
SWIDTH 514 0
DWIDTH 10 0
BBX 8 14 1 -3
BITMAP
64
38
FE
03
03
02
7C
03
03
03
7C
C0
C0
7F
ENDCHAR
STARTCHAR 0470
ENCODING 1136
SWIDTH 514 0
DWIDTH 10 0
BBX 9 12 1 0
BITMAP
9980
9980
9980
9980
9980
9980
DB00
7E00
1800
1800
1800
1800
ENDCHAR
STARTCHAR 0471
ENCODING 1137
SWIDTH 514 0
DWIDTH 10 0
BBX 9 17 1 -4
BITMAP
1800
1800
1800
1800
9980
9980
9980
9980
9980
9980
9900
DB00
7E00
1800
1800
1800
1800
ENDCHAR
STARTCHAR 0472
ENCODING 1138
SWIDTH 514 0
DWIDTH 10 0
BBX 9 12 1 0
BITMAP
3E00
6300
C100
C180
8180
FF80
8180
8180
C180
C300
6300
3C00
ENDCHAR
STARTCHAR 0473
ENCODING 1139
SWIDTH 514 0
DWIDTH 10 0
BBX 9 9 1 0
BITMAP
3E00
6300
C100
C180
FF80
C100
C100
6300
3C00
ENDCHAR
STARTCHAR 0474
ENCODING 1140
SWIDTH 514 0
DWIDTH 10 0
BBX 10 12 0 0
BITMAP
C0C0
4180
6180
6180
2100
3300
3300
3300
1A00
1E00
1E00
0C00
ENDCHAR
STARTCHAR 0475
ENCODING 1141
SWIDTH 514 0
DWIDTH 10 0
BBX 9 9 1 0
BITMAP
C180
C300
4300
6200
6600
3400
3400
1C00
1800
ENDCHAR
STARTCHAR 0476
ENCODING 1142
SWIDTH 514 0
DWIDTH 10 0
BBX 10 15 0 0
BITMAP
6600
3300
0000
C0C0
4180
6180
6180
2100
3300
3300
3300
1A00
1E00
1E00
0C00
ENDCHAR
STARTCHAR 0477
ENCODING 1143
SWIDTH 514 0
DWIDTH 10 0
BBX 9 13 1 0
BITMAP
CC00
6600
0000
0000
C180
C300
4300
6200
6600
3400
3400
1C00
1800
ENDCHAR
STARTCHAR 0478
ENCODING 1144
SWIDTH 514 0
DWIDTH 10 0
BBX 9 16 1 -4
BITMAP
F000
9000
9000
9480
9480
9780
9780
9300
9300
9300
B300
E300
0300
0200
0200
0E00
ENDCHAR
STARTCHAR 0479
ENCODING 1145
SWIDTH 514 0
DWIDTH 10 0
BBX 9 13 1 -4
BITMAP
7480
9480
9780
9780
9300
9300
9300
9300
7300
0300
0200
0200
0E00
ENDCHAR
STARTCHAR 047A
ENCODING 1146
SWIDTH 514 0
DWIDTH 10 0
BBX 9 14 1 -1
BITMAP
1800
3E00
7F00
CB00
C180
8180
8180
8180
8180
C180
CB00
7F00
3E00
1C00
ENDCHAR
STARTCHAR 047B
ENCODING 1147
SWIDTH 514 0
DWIDTH 10 0
BBX 9 11 1 -1
BITMAP
1800
3E00
4B00
C100
C180
C180
C180
C100
4B00
3E00
1800
ENDCHAR
STARTCHAR 047C
ENCODING 1148
SWIDTH 514 0
DWIDTH 10 0
BBX 9 17 1 0
BITMAP
3800
6600
1800
0800
1800
6600
C300
C100
8180
8180
8180
8180
8180
8180
8180
D900
7F00
ENDCHAR
STARTCHAR 047D
ENCODING 1149
SWIDTH 514 0
DWIDTH 10 0
BBX 9 15 1 0
BITMAP
3800
6600
1800
0800
1800
0000
6600
C100
C180
8180
8180
8180
D980
D900
7700
ENDCHAR
STARTCHAR 047E
ENCODING 1150
SWIDTH 514 0
DWIDTH 10 0
BBX 9 15 1 0
BITMAP
FF00
8900
0000
6600
C300
C100
8180
8180
8180
8180
9980
9980
9980
D900
7F00
ENDCHAR
STARTCHAR 047F
ENCODING 1151
SWIDTH 514 0
DWIDTH 10 0
BBX 9 12 1 0
BITMAP
FF00
8900
0000
9980
D980
C980
D980
5D00
5D00
5500
5700
7600
ENDCHAR
STARTCHAR 0480
ENCODING 1152
SWIDTH 514 0
DWIDTH 10 0
BBX 8 16 1 -4
BITMAP
1E
61
40
C0
C0
C0
C0
C0
C0
40
60
1E
06
06
06
06
ENDCHAR
STARTCHAR 0481
ENCODING 1153
SWIDTH 514 0
DWIDTH 10 0
BBX 8 13 1 -4
BITMAP
1E
31
60
40
C0
40
60
60
1E
06
06
06
06
ENDCHAR
STARTCHAR 0482
ENCODING 1154
SWIDTH 514 0
DWIDTH 10 0
BBX 9 13 1 0
BITMAP
0200
0200
3600
1E00
0F00
0D80
1800
D800
7000
3C00
6C00
6000
4000
ENDCHAR
STARTCHAR 0483
ENCODING 1155
SWIDTH 514 0
DWIDTH 10 0
BBX 7 3 2 9
BITMAP
06
FE
C0
ENDCHAR
STARTCHAR 0484
ENCODING 1156
SWIDTH 514 0
DWIDTH 10 0
BBX 7 2 2 9
BITMAP
1C
E6
ENDCHAR
STARTCHAR 0485
ENCODING 1157
SWIDTH 514 0
DWIDTH 10 0
BBX 2 3 4 9
BITMAP
C0
80
40
ENDCHAR
STARTCHAR 0486
ENCODING 1158
SWIDTH 514 0
DWIDTH 10 0
BBX 2 3 4 9
BITMAP
C0
40
C0
ENDCHAR
STARTCHAR 0488
ENCODING 1160
SWIDTH 514 0
DWIDTH 10 0
BBX 10 11 0 -1
BITMAP
0C00
0A00
7180
5240
0000
E0C0
A140
7180
5240
0C00
0A00
ENDCHAR
STARTCHAR 0489
ENCODING 1161
SWIDTH 514 0
DWIDTH 10 0
BBX 10 11 0 -1
BITMAP
0400
2400
2D80
1200
8080
6040
0000
1100
7500
0480
0800
ENDCHAR
STARTCHAR 048A
ENCODING 1162
SWIDTH 514 0
DWIDTH 10 0
BBX 9 18 1 -3
BITMAP
6200
3C00
0000
C300
C300
C700
C700
CF00
CB00
DB00
D300
F300
E300
E300
C380
0180
0180
0100
ENDCHAR
STARTCHAR 048B
ENCODING 1163
SWIDTH 514 0
DWIDTH 10 0
BBX 8 14 2 -2
BITMAP
CC
78
00
86
8E
8E
9E
B6
A6
E6
C6
87
03
02
ENDCHAR
STARTCHAR 048C
ENCODING 1164
SWIDTH 514 0
DWIDTH 10 0
BBX 10 12 0 0
BITMAP
6000
FC00
6000
6000
6000
7F00
6180
6080
60C0
6080
6180
7F00
ENDCHAR
STARTCHAR 048D
ENCODING 1165
SWIDTH 514 0
DWIDTH 10 0
BBX 10 13 0 0
BITMAP
3000
3000
FE00
3000
3000
3000
3000
3F00
3180
30C0
30C0
3180
3F00
ENDCHAR
STARTCHAR 048E
ENCODING 1166
SWIDTH 514 0
DWIDTH 10 0
BBX 8 12 1 0
BITMAP
FC
C3
C3
C1
C9
CF
C6
FE
C2
C0
C0
C0
ENDCHAR
STARTCHAR 048F
ENCODING 1167
SWIDTH 514 0
DWIDTH 10 0
BBX 8 13 1 -4
BITMAP
DE
F3
C1
C1
C1
C5
C7
C6
FE
C2
C0
C0
C0
ENDCHAR
STARTCHAR 0490
ENCODING 1168
SWIDTH 514 0
DWIDTH 10 0
BBX 7 14 2 0
BITMAP
02
02
FE
C0
C0
C0
C0
C0
C0
C0
C0
C0
C0
C0
ENDCHAR
STARTCHAR 0491
ENCODING 1169
SWIDTH 514 0
DWIDTH 10 0
BBX 7 11 2 0
BITMAP
02
02
FE
C0
C0
C0
C0
C0
C0
C0
C0
ENDCHAR
STARTCHAR 0492
ENCODING 1170
SWIDTH 514 0
DWIDTH 10 0
BBX 9 12 0 0
BITMAP
3F80
3000
3000
3000
3000
FE00
3000
3000
3000
3000
3000
3000
ENDCHAR
STARTCHAR 0493
ENCODING 1171
SWIDTH 514 0
DWIDTH 10 0
BBX 8 9 1 0
BITMAP
3F
20
20
20
FC
20
20
20
20
ENDCHAR
STARTCHAR 0494
ENCODING 1172
SWIDTH 514 0
DWIDTH 10 0
BBX 9 16 1 -4
BITMAP
FE00
C000
C000
C000
C000
FC00
C700
C300
C100
C180
C180
C100
0100
0300
0200
1C00
ENDCHAR
STARTCHAR 0495
ENCODING 1173
SWIDTH 514 0
DWIDTH 10 0
BBX 7 13 2 -4
BITMAP
FC
80
80
F8
8C
86
86
86
86
06
06
0C
38
ENDCHAR
STARTCHAR 0496
ENCODING 1174
SWIDTH 514 0
DWIDTH 10 0
BBX 10 15 0 -3
BITMAP
CCC0
4C80
6D80
2D00
3F00
3E00
3E00
2F00
6D00
6D80
4C80
CCC0
0040
0040
0040
ENDCHAR
STARTCHAR 0497
ENCODING 1175
SWIDTH 514 0
DWIDTH 10 0
BBX 11 11 0 -2
BITMAP
CCC0
6C80
2D00
3F00
1E00
3F00
2D00
6D80
CCE0
0060
0040
ENDCHAR
STARTCHAR 0498
ENCODING 1176
SWIDTH 514 0
DWIDTH 10 0
BBX 8 16 1 -4
BITMAP
7C
86
03
03
06
7C
03
03
03
03
86
7C
08
0C
0C
38
ENDCHAR
STARTCHAR 0499
ENCODING 1177
SWIDTH 514 0
DWIDTH 10 0
BBX 8 13 1 -4
BITMAP
FE
03
03
02
7C
03
03
03
FE
08
0C
0C
38
ENDCHAR
STARTCHAR 049A
ENCODING 1178
SWIDTH 514 0
DWIDTH 10 0
BBX 9 15 1 -3
BITMAP
C300
C600
C400
CC00
D800
D000
F000
D800
CC00
C600
C600
C380
0080
0080
0080
ENDCHAR
STARTCHAR 049B
ENCODING 1179
SWIDTH 514 0
DWIDTH 10 0
BBX 8 11 2 -2
BITMAP
86
8C
98
B0
F0
90
98
8C
87
03
03
ENDCHAR
STARTCHAR 049C
ENCODING 1180
SWIDTH 514 0
DWIDTH 10 0
BBX 8 12 1 0
BITMAP
C3
C3
C6
D4
DC
F8
DC
D4
C6
C2
C3
C3
ENDCHAR
STARTCHAR 049D
ENCODING 1181
SWIDTH 514 0
DWIDTH 10 0
BBX 7 9 2 0
BITMAP
86
86
AC
B8
F0
B8
AC
86
86
ENDCHAR
STARTCHAR 049E
ENCODING 1182
SWIDTH 514 0
DWIDTH 10 0
BBX 9 12 0 0
BITMAP
6180
6300
FA00
6600
6C00
6800
7800
6C00
6600
6300
6300
6180
ENDCHAR
STARTCHAR 049F
ENCODING 1183
SWIDTH 514 0
DWIDTH 10 0
BBX 9 13 0 0
BITMAP
2000
FC00
2000
2000
2180
2300
2600
2C00
3C00
2E00
2600
2300
2180
ENDCHAR
STARTCHAR 04A0
ENCODING 1184
SWIDTH 514 0
DWIDTH 10 0
BBX 10 12 0 0
BITMAP
F180
3180
3300
3200
3600
3C00
3C00
3600
3200
3300
3180
30C0
ENDCHAR
STARTCHAR 04A1
ENCODING 1185
SWIDTH 514 0
DWIDTH 10 0
BBX 9 9 0 0
BITMAP
F180
3300
3600
3C00
3C00
3600
3300
3180
3180
ENDCHAR
STARTCHAR 04A2
ENCODING 1186
SWIDTH 514 0
DWIDTH 10 0
BBX 9 15 1 -3
BITMAP
C100
C100
C100
C100
C100
FF00
C100
C100
C100
C100
C100
C180
0080
0080
0080
ENDCHAR
STARTCHAR 04A3
ENCODING 1187
SWIDTH 514 0
DWIDTH 10 0
BBX 9 11 1 -2
BITMAP
C300
C300
C300
C300
FF00
C300
C300
C300
C380
0180
0180
ENDCHAR
STARTCHAR 04A4
ENCODING 1188
SWIDTH 514 0
DWIDTH 10 0
BBX 9 12 1 0
BITMAP
C380
C200
C200
C200
C200
FE00
C200
C200
C200
C200
C200
C200
ENDCHAR
STARTCHAR 04A5
ENCODING 1189
SWIDTH 514 0
DWIDTH 10 0
BBX 9 9 1 0
BITMAP
C380
C300
C300
C300
FF00
C300
C300
C300
C300
ENDCHAR
STARTCHAR 04A6
ENCODING 1190
SWIDTH 514 0
DWIDTH 10 0
BBX 9 16 1 -4
BITMAP
F800
C800
C800
C800
C800
CF00
C900
C980
C980
C980
C980
C980
0180
0180
0100
0700
ENDCHAR
STARTCHAR 04A7
ENCODING 1191
SWIDTH 514 0
DWIDTH 10 0
BBX 9 13 1 -4
BITMAP
F800
C800
C800
C800
CF00
C900
C980
C980
C980
0180
0180
0180
0700
ENDCHAR
STARTCHAR 04A8
ENCODING 1192
SWIDTH 514 0
DWIDTH 10 0
BBX 9 13 1 -1
BITMAP
3C00
6000
C000
C700
8900
8980
8980
8980
8980
CD00
6F00
3E00
0380
ENDCHAR
STARTCHAR 04A9
ENCODING 1193
SWIDTH 514 0
DWIDTH 10 0
BBX 9 10 1 -1
BITMAP
3800
6000
C700
C900
C900
C900
CF00
6E00
3E00
0380
ENDCHAR
STARTCHAR 04AA
ENCODING 1194
SWIDTH 514 0
DWIDTH 10 0
BBX 8 16 1 -4
BITMAP
1E
61
40
C0
C0
C0
C0
C0
C0
40
61
1E
04
06
06
1C
ENDCHAR
STARTCHAR 04AB
ENCODING 1195
SWIDTH 514 0
DWIDTH 10 0
BBX 8 13 1 -4
BITMAP
1E
31
60
40
C0
40
60
61
1E
0C
04
06
1C
ENDCHAR
STARTCHAR 04AC
ENCODING 1196
SWIDTH 514 0
DWIDTH 10 0
BBX 9 15 1 -3
BITMAP
FF80
1800
1800
1800
1800
1800
1800
1800
1800
1800
1800
1C00
0400
0400
0400
ENDCHAR
STARTCHAR 04AD
ENCODING 1197
SWIDTH 514 0
DWIDTH 10 0
BBX 9 11 1 -2
BITMAP
FF80
1800
1800
1800
1800
1800
1800
1800
1C00
0C00
0C00
ENDCHAR
STARTCHAR 04AE
ENCODING 1198
SWIDTH 514 0
DWIDTH 10 0
BBX 10 12 0 0
BITMAP
C0C0
60C0
6180
3180
3300
1A00
0E00
0C00
0C00
0C00
0C00
0C00
ENDCHAR
STARTCHAR 04AF
ENCODING 1199
SWIDTH 514 0
DWIDTH 10 0
BBX 9 13 1 -4
BITMAP
C180
C300
4300
6200
6600
2600
3400
1C00
1800
1800
1800
1800
1800
ENDCHAR
STARTCHAR 04B0
ENCODING 1200
SWIDTH 514 0
DWIDTH 10 0
BBX 10 12 0 0
BITMAP
C0C0
60C0
6180
3100
1300
1A00
0E00
0C00
3F80
0C00
0C00
0C00
ENDCHAR
STARTCHAR 04B1
ENCODING 1201
SWIDTH 514 0
DWIDTH 10 0
BBX 9 13 1 -4
BITMAP
C180
C300
4300
6200
6600
3600
3400
1C00
1800
7F00
1800
1800
1800
ENDCHAR
STARTCHAR 04B2
ENCODING 1202
SWIDTH 514 0
DWIDTH 10 0
BBX 10 15 0 -3
BITMAP
60C0
6180
3300
1B00
1E00
0C00
0E00
1E00
3300
3100
6180
E0C0
0040
0040
0040
ENDCHAR
STARTCHAR 04B3
ENCODING 1203
SWIDTH 514 0
DWIDTH 10 0
BBX 9 11 1 -2
BITMAP
C300
6300
3600
1C00
1800
3C00
3600
6200
C380
0080
0080
ENDCHAR
STARTCHAR 04B4
ENCODING 1204
SWIDTH 514 0
DWIDTH 10 0
BBX 10 15 0 -3
BITMAP
F980
2180
2180
2180
2180
2180
2180
2180
2180
2180
2180
3FC0
0040
0040
0040
ENDCHAR
STARTCHAR 04B5
ENCODING 1205
SWIDTH 514 0
DWIDTH 10 0
BBX 10 11 0 -2
BITMAP
F980
2180
2180
2180
2180
2180
2180
2180
3FC0
00C0
00C0
ENDCHAR
STARTCHAR 04B6
ENCODING 1206
SWIDTH 514 0
DWIDTH 10 0
BBX 9 15 1 -3
BITMAP
C100
C100
C100
C100
C100
4100
3F00
0100
0100
0100
0100
0180
0080
0080
0080
ENDCHAR
STARTCHAR 04B7
ENCODING 1207
SWIDTH 514 0
DWIDTH 10 0
BBX 9 11 1 -2
BITMAP
C300
C300
C300
4300
3F00
0300
0300
0300
0380
0180
0180
ENDCHAR
STARTCHAR 04B8
ENCODING 1208
SWIDTH 514 0
DWIDTH 10 0
BBX 8 12 1 0
BITMAP
C1
C1
C1
C9
C9
49
3F
09
09
01
01
01
ENDCHAR
STARTCHAR 04B9
ENCODING 1209
SWIDTH 514 0
DWIDTH 10 0
BBX 8 9 1 0
BITMAP
C3
C3
CB
4B
3F
0B
0B
03
03
ENDCHAR
STARTCHAR 04BA
ENCODING 1210
SWIDTH 514 0
DWIDTH 10 0
BBX 9 12 1 0
BITMAP
C000
C000
C000
C000
C000
FE00
C300
C100
C100
C180
C180
C180
ENDCHAR
STARTCHAR 04BB
ENCODING 1211
SWIDTH 514 0
DWIDTH 10 0
BBX 8 9 1 0
BITMAP
C0
C0
C0
FE
C3
C3
C1
C1
C1
ENDCHAR
STARTCHAR 04BC
ENCODING 1212
SWIDTH 514 0
DWIDTH 10 0
BBX 10 12 0 0
BITMAP
0F00
1980
10C0
30C0
B0C0
B0C0
FFC0
3000
3000
1000
1840
0F80
ENDCHAR
STARTCHAR 04BD
ENCODING 1213
SWIDTH 514 0
DWIDTH 10 0
BBX 10 9 0 0
BITMAP
0F00
1980
B080
B0C0
FFC0
3000
3000
1800
0F80
ENDCHAR
STARTCHAR 04BE
ENCODING 1214
SWIDTH 514 0
DWIDTH 10 0
BBX 10 15 0 -3
BITMAP
0F00
1980
10C0
30C0
B0C0
B0C0
FFC0
3000
3000
1000
1840
0F80
0600
0600
0600
ENDCHAR
STARTCHAR 04BF
ENCODING 1215
SWIDTH 514 0
DWIDTH 10 0
BBX 10 11 0 -2
BITMAP
0F00
1980
B080
B0C0
FFC0
3000
3000
1800
0F80
0600
0600
ENDCHAR
STARTCHAR 04C0
ENCODING 1216
SWIDTH 514 0
DWIDTH 10 0
BBX 7 12 2 0
BITMAP
FE
30
30
30
30
30
30
30
30
30
30
FE
ENDCHAR
STARTCHAR 04C1
ENCODING 1217
SWIDTH 514 0
DWIDTH 10 0
BBX 10 15 0 0
BITMAP
3100
1E00
0000
CC40
4CC0
6C80
2D80
3D00
1F00
1F00
3D00
2D80
6C80
4CC0
CC40
ENDCHAR
STARTCHAR 04C2
ENCODING 1218
SWIDTH 514 0
DWIDTH 10 0
BBX 10 13 0 0
BITMAP
3100
1300
1E00
0000
CCC0
6C80
2D80
3D00
1E00
3D00
2D80
6C80
CCC0
ENDCHAR
STARTCHAR 04C3
ENCODING 1219
SWIDTH 514 0
DWIDTH 10 0
BBX 9 16 1 -4
BITMAP
C300
C600
C600
CC00
D800
F000
FC00
C700
C300
C100
C180
C180
0100
0100
0300
1C00
ENDCHAR
STARTCHAR 04C4
ENCODING 1220
SWIDTH 514 0
DWIDTH 10 0
BBX 8 13 2 -4
BITMAP
86
8C
98
B0
F8
86
82
83
83
03
02
06
3C
ENDCHAR
STARTCHAR 04C5
ENCODING 1221
SWIDTH 514 0
DWIDTH 10 0
BBX 10 15 0 -3
BITMAP
1F80
1980
1980
1980
1180
1180
1180
3180
3180
3180
6180
C1C0
00C0
0080
0180
ENDCHAR
STARTCHAR 04C6
ENCODING 1222
SWIDTH 514 0
DWIDTH 10 0
BBX 10 11 0 -2
BITMAP
1F80
1980
1980
1180
1180
1180
3180
2180
E1C0
00C0
0080
ENDCHAR
STARTCHAR 04C7
ENCODING 1223
SWIDTH 514 0
DWIDTH 10 0
BBX 8 16 1 -4
BITMAP
C1
C1
C1
C1
C1
FF
C1
C1
C1
C1
C1
C1
01
03
03
3C
ENDCHAR
STARTCHAR 04C8
ENCODING 1224
SWIDTH 514 0
DWIDTH 10 0
BBX 8 13 1 -4
BITMAP
C3
C3
C3
C3
FF
C3
C3
C3
C3
03
03
06
1C
ENDCHAR
STARTCHAR 04C9
ENCODING 1225
SWIDTH 514 0
DWIDTH 10 0
BBX 10 15 1 -3
BITMAP
C100
C100
C100
C100
C100
FF00
C100
C100
C100
C100
C100
C1C0
0080
0180
0100
ENDCHAR
STARTCHAR 04CA
ENCODING 1226
SWIDTH 514 0
DWIDTH 10 0
BBX 9 11 1 -2
BITMAP
C300
C300
C300
C300
FF00
C300
C300
C300
C380
0180
0100
ENDCHAR
STARTCHAR 04CB
ENCODING 1227
SWIDTH 514 0
DWIDTH 10 0
BBX 8 15 1 -3
BITMAP
C1
C1
C1
C1
C1
41
3F
01
01
01
01
07
04
04
04
ENDCHAR
STARTCHAR 04CC
ENCODING 1228
SWIDTH 514 0
DWIDTH 10 0
BBX 8 11 1 -2
BITMAP
C3
C3
C3
C3
63
3F
03
03
07
04
04
ENDCHAR
STARTCHAR 04CD
ENCODING 1229
SWIDTH 514 0
DWIDTH 10 0
BBX 10 15 1 -3
BITMAP
C300
E300
A500
A500
A500
9900
9900
9900
8180
8180
8180
81C0
0080
0080
0180
ENDCHAR
STARTCHAR 04CE
ENCODING 1230
SWIDTH 514 0
DWIDTH 10 0
BBX 11 11 0 -2
BITMAP
6180
7180
5280
5A80
5EC0
4CC0
4CC0
40C0
C0E0
0060
0040
ENDCHAR
STARTCHAR 04CF
ENCODING 1231
SWIDTH 514 0
DWIDTH 10 0
BBX 7 12 2 0
BITMAP
FE
30
30
30
30
30
30
30
30
30
30
FE
ENDCHAR
STARTCHAR 04D0
ENCODING 1232
SWIDTH 514 0
DWIDTH 10 0
BBX 10 15 0 0
BITMAP
1300
1E00
0000
0E00
0E00
1A00
1300
1300
3100
3180
2180
7F80
60C0
40C0
C0C0
ENDCHAR
STARTCHAR 04D1
ENCODING 1233
SWIDTH 514 0
DWIDTH 10 0
BBX 8 13 1 0
BITMAP
24
1C
00
00
3E
43
03
03
3F
43
C3
C7
7B
ENDCHAR
STARTCHAR 04D2
ENCODING 1234
SWIDTH 514 0
DWIDTH 10 0
BBX 10 15 0 0
BITMAP
3300
3300
0000
0E00
0E00
1A00
1300
1300
3100
3180
2180
7F80
60C0
40C0
C0C0
ENDCHAR
STARTCHAR 04D3
ENCODING 1235
SWIDTH 514 0
DWIDTH 10 0
BBX 8 13 1 0
BITMAP
33
33
00
00
3E
43
03
03
3F
43
C3
C7
7B
ENDCHAR
STARTCHAR 04D4
ENCODING 1236
SWIDTH 514 0
DWIDTH 10 0
BBX 10 12 0 0
BITMAP
0FC0
0E00
0E00
1600
1600
37C0
2600
6600
7E00
4600
C600
87C0
ENDCHAR
STARTCHAR 04D5
ENCODING 1237
SWIDTH 514 0
DWIDTH 10 0
BBX 10 9 0 0
BITMAP
3B80
4CC0
0CC0
0C40
7FC0
CC00
CC00
CE00
73C0
ENDCHAR
STARTCHAR 04D6
ENCODING 1238
SWIDTH 514 0
DWIDTH 10 0
BBX 7 15 2 0
BITMAP
4C
78
00
FE
C0
C0
C0
C0
FE
C0
C0
C0
C0
C0
FE
ENDCHAR
STARTCHAR 04D7
ENCODING 1239
SWIDTH 514 0
DWIDTH 10 0
BBX 8 13 1 0
BITMAP
24
1C
00
00
3E
63
C3
C1
FF
C0
C0
60
3F
ENDCHAR
STARTCHAR 04D8
ENCODING 1240
SWIDTH 514 0
DWIDTH 10 0
BBX 9 12 1 0
BITMAP
7C00
8300
0100
0180
0180
FF80
8180
8180
8180
C100
6300
3C00
ENDCHAR
STARTCHAR 04D9
ENCODING 1241
SWIDTH 514 0
DWIDTH 10 0
BBX 8 9 1 0
BITMAP
7C
03
03
01
FF
C1
C3
62
3C
ENDCHAR
STARTCHAR 04DA
ENCODING 1242
SWIDTH 514 0
DWIDTH 10 0
BBX 9 15 1 0
BITMAP
6600
6600
0000
7C00
8300
0100
0180
0180
FF80
8180
8180
8180
C100
6300
3C00
ENDCHAR
STARTCHAR 04DB
ENCODING 1243
SWIDTH 514 0
DWIDTH 10 0
BBX 8 13 1 0
BITMAP
66
66
00
00
7C
03
03
01
FF
C1
C3
62
3C
ENDCHAR
STARTCHAR 04DC
ENCODING 1244
SWIDTH 514 0
DWIDTH 10 0
BBX 10 15 0 0
BITMAP
3300
3300
0000
CC40
4CC0
6C80
2D80
3D00
1F00
1F00
3D00
2D80
6C80
4CC0
CC40
ENDCHAR
STARTCHAR 04DD
ENCODING 1245
SWIDTH 514 0
DWIDTH 10 0
BBX 10 13 0 0
BITMAP
3300
3300
0000
0000
CCC0
6C80
2D80
3D00
1E00
3D00
2D80
6C80
CCC0
ENDCHAR
STARTCHAR 04DE
ENCODING 1246
SWIDTH 514 0
DWIDTH 10 0
BBX 8 15 1 0
BITMAP
66
66
00
7C
86
03
03
06
7C
03
03
03
03
86
7C
ENDCHAR
STARTCHAR 04DF
ENCODING 1247
SWIDTH 514 0
DWIDTH 10 0
BBX 8 13 1 0
BITMAP
66
66
00
00
FE
03
03
02
7C
03
03
03
FE
ENDCHAR
STARTCHAR 04E0
ENCODING 1248
SWIDTH 514 0
DWIDTH 10 0
BBX 7 12 2 0
BITMAP
FC
0C
18
10
30
78
0C
06
06
06
0C
F8
ENDCHAR
STARTCHAR 04E1
ENCODING 1249
SWIDTH 514 0
DWIDTH 10 0
BBX 7 12 2 -3
BITMAP
FC
0C
18
10
30
78
0C
06
06
06
0C
F8
ENDCHAR
STARTCHAR 04E2
ENCODING 1250
SWIDTH 514 0
DWIDTH 10 0
BBX 8 15 1 0
BITMAP
3E
00
00
C1
C3
C7
C5
CD
C9
D9
D1
F1
E1
E1
C1
ENDCHAR
STARTCHAR 04E3
ENCODING 1251
SWIDTH 514 0
DWIDTH 10 0
BBX 7 12 2 0
BITMAP
7C
00
00
86
8E
8E
9E
B6
A6
E6
C6
86
ENDCHAR
STARTCHAR 04E4
ENCODING 1252
SWIDTH 514 0
DWIDTH 10 0
BBX 8 15 1 0
BITMAP
66
66
00
C1
C3
C7
C5
CD
C9
D9
D1
F1
E1
E1
C1
ENDCHAR
STARTCHAR 04E5
ENCODING 1253
SWIDTH 514 0
DWIDTH 10 0
BBX 7 13 2 0
BITMAP
CC
CC
00
00
86
8E
8E
9E
B6
A6
E6
C6
86
ENDCHAR
STARTCHAR 04E6
ENCODING 1254
SWIDTH 514 0
DWIDTH 10 0
BBX 9 15 1 0
BITMAP
6600
6600
0000
3E00
6300
C100
C180
8180
8180
8180
8180
C180
C100
6300
3C00
ENDCHAR
STARTCHAR 04E7
ENCODING 1255
SWIDTH 514 0
DWIDTH 10 0
BBX 9 13 1 0
BITMAP
6600
6600
0000
0000
3E00
6300
C100
C180
C180
C100
C100
6300
3C00
ENDCHAR
STARTCHAR 04E8
ENCODING 1256
SWIDTH 514 0
DWIDTH 10 0
BBX 9 12 1 0
BITMAP
3E00
6300
C100
C180
8180
FF80
8180
8180
C180
C300
6300
3C00
ENDCHAR
STARTCHAR 04E9
ENCODING 1257
SWIDTH 514 0
DWIDTH 10 0
BBX 9 9 1 0
BITMAP
3E00
6300
C100
C180
FF80
C100
C100
6300
3C00
ENDCHAR
STARTCHAR 04EA
ENCODING 1258
SWIDTH 514 0
DWIDTH 10 0
BBX 9 15 1 0
BITMAP
6600
6600
0000
3E00
6300
C100
C180
8180
FF80
8180
8180
C180
C300
6300
3C00
ENDCHAR
STARTCHAR 04EB
ENCODING 1259
SWIDTH 514 0
DWIDTH 10 0
BBX 9 13 1 0
BITMAP
6600
6600
0000
0000
3E00
6300
C100
C180
FF80
C100
C100
6300
3C00
ENDCHAR
STARTCHAR 04EC
ENCODING 1260
SWIDTH 514 0
DWIDTH 10 0
BBX 9 15 1 0
BITMAP
6600
6600
0000
7C00
8600
0300
0100
0180
7F80
0180
0100
0100
0300
8600
7C00
ENDCHAR
STARTCHAR 04ED
ENCODING 1261
SWIDTH 514 0
DWIDTH 10 0
BBX 8 13 1 0
BITMAP
66
66
00
00
7C
86
03
03
7F
01
03
86
7C
ENDCHAR
STARTCHAR 04EE
ENCODING 1262
SWIDTH 514 0
DWIDTH 10 0
BBX 9 15 1 0
BITMAP
3E00
0000
0000
C180
C100
6300
6300
3600
3600
1C00
1C00
0C00
1800
1800
F000
ENDCHAR
STARTCHAR 04EF
ENCODING 1263
SWIDTH 514 0
DWIDTH 10 0
BBX 9 16 1 -4
BITMAP
3E00
0000
0000
C180
C300
4300
6200
6600
2400
3400
1C00
1800
1800
1000
3000
E000
ENDCHAR
STARTCHAR 04F0
ENCODING 1264
SWIDTH 514 0
DWIDTH 10 0
BBX 9 15 1 0
BITMAP
6600
6600
0000
C180
C100
6300
6300
3600
3600
1C00
1C00
0C00
1800
1800
F000
ENDCHAR
STARTCHAR 04F1
ENCODING 1265
SWIDTH 514 0
DWIDTH 10 0
BBX 9 17 1 -4
BITMAP
6600
6600
0000
0000
C180
C300
4300
6200
6600
2400
3400
1C00
1800
1800
1000
3000
E000
ENDCHAR
STARTCHAR 04F2
ENCODING 1266
SWIDTH 514 0
DWIDTH 10 0
BBX 9 15 1 0
BITMAP
1980
3300
0000
C180
C100
6300
6300
3600
3600
1C00
1C00
0C00
1800
1800
F000
ENDCHAR
STARTCHAR 04F3
ENCODING 1267
SWIDTH 514 0
DWIDTH 10 0
BBX 9 17 1 -4
BITMAP
1980
3300
0000
0000
C180
C300
4300
6200
6600
2400
3400
1C00
1800
1800
1000
3000
E000
ENDCHAR
STARTCHAR 04F4
ENCODING 1268
SWIDTH 514 0
DWIDTH 10 0
BBX 8 15 1 0
BITMAP
66
66
00
C1
C1
C1
C1
C1
41
3F
01
01
01
01
01
ENDCHAR
STARTCHAR 04F5
ENCODING 1269
SWIDTH 514 0
DWIDTH 10 0
BBX 8 13 1 0
BITMAP
32
32
00
00
C3
C3
C3
C3
63
3F
03
03
03
ENDCHAR
STARTCHAR 04F6
ENCODING 1270
SWIDTH 514 0
DWIDTH 10 0
BBX 7 15 2 -3
BITMAP
FE
C0
C0
C0
C0
C0
C0
C0
C0
C0
C0
F0
20
20
20
ENDCHAR
STARTCHAR 04F7
ENCODING 1271
SWIDTH 514 0
DWIDTH 10 0
BBX 7 11 2 -2
BITMAP
FE
C0
C0
C0
C0
C0
C0
C0
F0
30
20
ENDCHAR
STARTCHAR 04F8
ENCODING 1272
SWIDTH 514 0
DWIDTH 10 0
BBX 9 15 1 0
BITMAP
6600
6600
0000
8180
8180
8180
8180
8180
F980
8D80
8D80
8580
8D80
8D80
F980
ENDCHAR
STARTCHAR 04F9
ENCODING 1273
SWIDTH 514 0
DWIDTH 10 0
BBX 9 13 1 0
BITMAP
6600
6600
0000
0000
8180
8180
8180
8180
F980
8D80
8D80
8D80
F980
ENDCHAR
STARTCHAR 04FA
ENCODING 1274
SWIDTH 514 0
DWIDTH 10 0
BBX 9 16 0 -4
BITMAP
3F80
3000
3000
3000
3000
FE00
3000
3000
3000
3000
3000
3C00
0C00
0800
0800
3800
ENDCHAR
STARTCHAR 04FB
ENCODING 1275
SWIDTH 514 0
DWIDTH 10 0
BBX 8 13 1 -4
BITMAP
3F
20
20
20
FC
20
20
20
38
18
18
18
70
ENDCHAR
STARTCHAR 04FC
ENCODING 1276
SWIDTH 514 0
DWIDTH 10 0
BBX 10 16 0 -4
BITMAP
60C0
6180
3300
1B00
1E00
0C00
0E00
1E00
3300
3100
6180
E0C0
0040
0040
0040
01C0
ENDCHAR
STARTCHAR 04FD
ENCODING 1277
SWIDTH 514 0
DWIDTH 10 0
BBX 9 13 1 -4
BITMAP
C300
6300
3600
1C00
1800
3C00
3600
6200
C380
0080
0080
0080
0380
ENDCHAR
STARTCHAR 04FE
ENCODING 1278
SWIDTH 514 0
DWIDTH 10 0
BBX 9 12 1 0
BITMAP
C180
C300
6300
6600
3400
3C00
FF80
3C00
3600
6600
C300
C180
ENDCHAR
STARTCHAR 04FF
ENCODING 1279
SWIDTH 514 0
DWIDTH 10 0
BBX 8 9 1 0
BITMAP
C3
63
36
3C
FF
3C
26
63
C3
ENDCHAR
STARTCHAR 0500
ENCODING 1280
SWIDTH 514 0
DWIDTH 10 0
BBX 8 12 1 0
BITMAP
03
03
03
03
03
3F
C3
C3
C3
C3
43
3F
ENDCHAR
STARTCHAR 0501
ENCODING 1281
SWIDTH 514 0
DWIDTH 10 0
BBX 8 13 1 0
BITMAP
03
03
03
03
3F
63
C3
C3
C3
C3
C3
47
3B
ENDCHAR
STARTCHAR 0502
ENCODING 1282
SWIDTH 514 0
DWIDTH 10 0
BBX 9 12 1 0
BITMAP
0800
0800
0800
0800
0800
7980
C980
C980
8980
8980
C900
7700
ENDCHAR
STARTCHAR 0503
ENCODING 1283
SWIDTH 514 0
DWIDTH 10 0
BBX 8 13 1 0
BITMAP
08
08
08
08
78
C8
C8
C9
C9
C9
C9
D9
7F
ENDCHAR
STARTCHAR 0504
ENCODING 1284
SWIDTH 514 0
DWIDTH 10 0
BBX 10 12 0 0
BITMAP
F800
0C00
0C00
0C00
0800
70C0
0CC0
04C0
04C0
04C0
0480
0780
ENDCHAR
STARTCHAR 0505
ENCODING 1285
SWIDTH 514 0
DWIDTH 10 0
BBX 8 9 1 0
BITMAP
F0
10
18
11
E1
19
19
19
0F
ENDCHAR
STARTCHAR 0506
ENCODING 1286
SWIDTH 514 0
DWIDTH 10 0
BBX 9 15 1 -3
BITMAP
F800
0C00
0600
0600
0C00
7800
0600
0600
0600
0600
0600
0780
0180
0180
0180
ENDCHAR
STARTCHAR 0507
ENCODING 1287
SWIDTH 514 0
DWIDTH 10 0
BBX 9 11 1 -2
BITMAP
FC00
0600
0600
0400
7800
0600
0600
0600
0780
0180
0180
ENDCHAR
STARTCHAR 0508
ENCODING 1288
SWIDTH 514 0
DWIDTH 10 0
BBX 10 12 0 0
BITMAP
3E00
3600
3600
3600
2600
26C0
26C0
26C0
26C0
66C0
66C0
C380
ENDCHAR
STARTCHAR 0509
ENCODING 1289
SWIDTH 514 0
DWIDTH 10 0
BBX 10 9 0 0
BITMAP
3E00
3600
3600
26C0
26C0
26C0
26C0
66C0
C380
ENDCHAR
STARTCHAR 050A
ENCODING 1290
SWIDTH 514 0
DWIDTH 10 0
BBX 9 12 1 0
BITMAP
CC00
CC00
CC00
CC00
CC00
FD80
CD80
CD80
CD80
CD80
CD80
C700
ENDCHAR
STARTCHAR 050B
ENCODING 1291
SWIDTH 514 0
DWIDTH 10 0
BBX 9 9 1 0
BITMAP
C800
C800
C800
C980
F980
C980
C980
C980
C700
ENDCHAR
STARTCHAR 050C
ENCODING 1292
SWIDTH 514 0
DWIDTH 10 0
BBX 9 12 1 0
BITMAP
1F00
6100
C000
C000
8000
8000
8780
8180
C180
C180
6300
3E00
ENDCHAR
STARTCHAR 050D
ENCODING 1293
SWIDTH 514 0
DWIDTH 10 0
BBX 9 9 1 0
BITMAP
1F00
2100
6000
4000
C780
4180
6180
6100
1E00
ENDCHAR
STARTCHAR 050E
ENCODING 1294
SWIDTH 514 0
DWIDTH 10 0
BBX 8 12 1 0
BITMAP
FF
18
18
18
18
19
19
19
19
19
19
0F
ENDCHAR
STARTCHAR 050F
ENCODING 1295
SWIDTH 514 0
DWIDTH 10 0
BBX 8 9 1 0
BITMAP
FC
30
30
31
31
31
31
33
1E
ENDCHAR
STARTCHAR 0510
ENCODING 1296
SWIDTH 514 0
DWIDTH 10 0
BBX 8 12 1 0
BITMAP
3E
61
C0
40
60
3E
60
C0
C0
C0
61
3E
ENDCHAR
STARTCHAR 0511
ENCODING 1297
SWIDTH 514 0
DWIDTH 10 0
BBX 8 9 1 0
BITMAP
3F
60
40
60
3E
C0
C0
C0
3F
ENDCHAR
STARTCHAR 0512
ENCODING 1298
SWIDTH 514 0
DWIDTH 10 0
BBX 10 16 0 -4
BITMAP
1F80
1980
1980
1980
1180
1180
1180
3180
3180
3180
6180
C1C0
0040
0040
0040
01C0
ENDCHAR
STARTCHAR 0513
ENCODING 1299
SWIDTH 514 0
DWIDTH 10 0
BBX 10 13 0 -4
BITMAP
1F00
1900
1900
1100
1100
1100
3100
2100
E1C0
0040
0040
00C0
0180
ENDCHAR
STARTCHAR 0E3F
ENCODING 3647
SWIDTH 514 0
DWIDTH 10 0
BBX 8 18 1 -3
BITMAP
18
18
18
FE
DB
DB
DB
DA
FC
DB
D9
D9
D9
DB
FC
18
18
18
ENDCHAR
STARTCHAR 1D00
ENCODING 7424
SWIDTH 514 0
DWIDTH 10 0
BBX 9 9 1 0
BITMAP
1C00
1C00
3400
2600
6600
6300
7F00
C100
8180
ENDCHAR
STARTCHAR 1D01
ENCODING 7425
SWIDTH 514 0
DWIDTH 10 0
BBX 10 9 0 0
BITMAP
0F80
0E00
1E00
1600
3780
2600
7E00
4600
C7C0
ENDCHAR
STARTCHAR 1D02
ENCODING 7426
SWIDTH 514 0
DWIDTH 10 0
BBX 10 9 0 0
BITMAP
7B80
0EC0
0C40
0CC0
FF80
CC00
CC00
4C40
7FC0
ENDCHAR
STARTCHAR 1D03
ENCODING 7427
SWIDTH 514 0
DWIDTH 10 0
BBX 8 9 1 0
BITMAP
7E
63
63
63
FE
63
61
63
7E
ENDCHAR
STARTCHAR 1D04
ENCODING 7428
SWIDTH 514 0
DWIDTH 10 0
BBX 8 9 1 0
BITMAP
1E
61
40
C0
C0
C0
C0
61
3E
ENDCHAR
STARTCHAR 1D05
ENCODING 7429
SWIDTH 514 0
DWIDTH 10 0
BBX 8 9 2 0
BITMAP
F8
86
82
83
83
82
86
86
F8
ENDCHAR
STARTCHAR 1D06
ENCODING 7430
SWIDTH 514 0
DWIDTH 10 0
BBX 9 9 1 0
BITMAP
7C00
6300
6100
6180
F980
6100
6300
6300
7C00
ENDCHAR
STARTCHAR 1D07
ENCODING 7431
SWIDTH 514 0
DWIDTH 10 0
BBX 7 9 2 0
BITMAP
FE
C0
C0
C0
FC
C0
C0
C0
FE
ENDCHAR
STARTCHAR 1D08
ENCODING 7432
SWIDTH 514 0
DWIDTH 10 0
BBX 7 9 2 0
BITMAP
FC
86
06
06
78
04
06
86
FC
ENDCHAR
STARTCHAR 1D09
ENCODING 7433
SWIDTH 514 0
DWIDTH 10 0
BBX 7 12 2 -3
BITMAP
FE
30
30
30
30
30
30
30
3E
00
38
38
ENDCHAR
STARTCHAR 1D0A
ENCODING 7434
SWIDTH 514 0
DWIDTH 10 0
BBX 6 9 2 0
BITMAP
FC
04
04
04
04
04
04
8C
78
ENDCHAR
STARTCHAR 1D0B
ENCODING 7435
SWIDTH 514 0
DWIDTH 10 0
BBX 7 9 2 0
BITMAP
86
8C
98
B0
F0
98
98
8C
86
ENDCHAR
STARTCHAR 1D0C
ENCODING 7436
SWIDTH 514 0
DWIDTH 10 0
BBX 8 9 1 0
BITMAP
60
60
64
7C
70
E0
E0
60
7F
ENDCHAR
STARTCHAR 1D0D
ENCODING 7437
SWIDTH 514 0
DWIDTH 10 0
BBX 10 9 0 0
BITMAP
6180
71C0
53C0
5AC0
4EC0
4CC0
4CC0
40C0
C0C0
ENDCHAR
STARTCHAR 1D0E
ENCODING 7438
SWIDTH 514 0
DWIDTH 10 0
BBX 7 9 2 0
BITMAP
86
8E
8E
9E
B6
A6
E6
C6
86
ENDCHAR
STARTCHAR 1D0F
ENCODING 7439
SWIDTH 514 0
DWIDTH 10 0
BBX 9 9 1 0
BITMAP
3E00
6300
C100
8180
8180
8180
C100
6300
3C00
ENDCHAR
STARTCHAR 1D10
ENCODING 7440
SWIDTH 514 0
DWIDTH 10 0
BBX 8 9 1 0
BITMAP
7C
86
03
03
03
03
03
86
7C
ENDCHAR
STARTCHAR 1D11
ENCODING 7441
SWIDTH 514 0
DWIDTH 10 0
BBX 9 9 1 0
BITMAP
3C00
C300
8100
8180
8180
8180
8180
4300
3E00
ENDCHAR
STARTCHAR 1D12
ENCODING 7442
SWIDTH 514 0
DWIDTH 10 0
BBX 9 8 1 1
BITMAP
3C00
4300
8100
8180
8180
8180
8180
C180
ENDCHAR
STARTCHAR 1D13
ENCODING 7443
SWIDTH 514 0
DWIDTH 10 0
BBX 11 9 0 0
BITMAP
1E00
3180
E080
F0C0
5EC0
43C0
60E0
2180
1E00
ENDCHAR
STARTCHAR 1D14
ENCODING 7444
SWIDTH 514 0
DWIDTH 10 0
BBX 10 9 0 0
BITMAP
7B80
0CC0
0CC0
0C40
FC40
CC40
4CC0
4CC0
3380
ENDCHAR
STARTCHAR 1D15
ENCODING 7445
SWIDTH 514 0
DWIDTH 10 0
BBX 8 9 1 0
BITMAP
43
43
66
3C
67
C3
C3
43
3E
ENDCHAR
STARTCHAR 1D16
ENCODING 7446
SWIDTH 514 0
DWIDTH 10 0
BBX 9 4 1 5
BITMAP
3E00
C300
C180
8180
ENDCHAR
STARTCHAR 1D17
ENCODING 7447
SWIDTH 514 0
DWIDTH 10 0
BBX 9 5 1 0
BITMAP
8180
C180
C100
6300
3C00
ENDCHAR
STARTCHAR 1D18
ENCODING 7448
SWIDTH 514 0
DWIDTH 10 0
BBX 8 9 1 0
BITMAP
FE
C3
C3
C3
C3
FE
C0
C0
C0
ENDCHAR
STARTCHAR 1D19
ENCODING 7449
SWIDTH 514 0
DWIDTH 10 0
BBX 8 9 1 0
BITMAP
3F
63
63
63
1F
33
63
63
C3
ENDCHAR
STARTCHAR 1D1A
ENCODING 7450
SWIDTH 514 0
DWIDTH 10 0
BBX 8 9 1 0
BITMAP
C3
63
63
33
1F
63
63
63
3F
ENDCHAR
STARTCHAR 1D1B
ENCODING 7451
SWIDTH 514 0
DWIDTH 10 0
BBX 8 9 1 0
BITMAP
FF
18
18
18
18
18
18
18
18
ENDCHAR
STARTCHAR 1D1C
ENCODING 7452
SWIDTH 514 0
DWIDTH 10 0
BBX 8 9 1 0
BITMAP
C3
C3
C3
C3
C3
C3
C3
63
3C
ENDCHAR
STARTCHAR 1D1D
ENCODING 7453
SWIDTH 514 0
DWIDTH 10 0
BBX 10 7 0 1
BITMAP
FFC0
0180
00C0
0040
0040
00C0
FF80
ENDCHAR
STARTCHAR 1D1E
ENCODING 7454
SWIDTH 514 0
DWIDTH 10 0
BBX 9 7 1 1
BITMAP
BF80
8300
0180
0080
0080
8180
BF00
ENDCHAR
STARTCHAR 1D1F
ENCODING 7455
SWIDTH 514 0
DWIDTH 10 0
BBX 9 9 1 0
BITMAP
FF80
0300
0180
0180
FF00
0300
0180
0180
FF00
ENDCHAR
STARTCHAR 1D20
ENCODING 7456
SWIDTH 514 0
DWIDTH 10 0
BBX 9 9 1 0
BITMAP
C180
C300
4300
6200
6600
3600
3400
1C00
1800
ENDCHAR
STARTCHAR 1D21
ENCODING 7457
SWIDTH 514 0
DWIDTH 10 0
BBX 10 9 0 0
BITMAP
C0C0
40C0
4CC0
4CC0
6E80
7A80
7280
7380
3180
ENDCHAR
STARTCHAR 1D22
ENCODING 7458
SWIDTH 514 0
DWIDTH 10 0
BBX 7 9 2 0
BITMAP
FE
0C
0C
18
30
60
60
C0
FE
ENDCHAR
STARTCHAR 1D23
ENCODING 7459
SWIDTH 514 0
DWIDTH 10 0
BBX 8 9 1 0
BITMAP
FE
0E
1C
30
3E
03
03
03
FE
ENDCHAR
STARTCHAR 1D24
ENCODING 7460
SWIDTH 514 0
DWIDTH 10 0
BBX 7 9 2 0
BITMAP
FC
06
0E
1C
70
C0
80
C0
7E
ENDCHAR
STARTCHAR 1D25
ENCODING 7461
SWIDTH 514 0
DWIDTH 10 0
BBX 9 9 1 0
BITMAP
3C00
7E00
7E00
7E00
3E00
3C00
1C00
3600
C380
ENDCHAR
STARTCHAR 1D26
ENCODING 7462
SWIDTH 514 0
DWIDTH 10 0
BBX 7 9 2 0
BITMAP
FE
C0
C0
C0
C0
C0
C0
C0
C0
ENDCHAR
STARTCHAR 1D27
ENCODING 7463
SWIDTH 514 0
DWIDTH 10 0
BBX 9 9 1 0
BITMAP
1C00
1C00
3400
2600
6600
6300
4300
C100
8180
ENDCHAR
STARTCHAR 1D28
ENCODING 7464
SWIDTH 514 0
DWIDTH 10 0
BBX 8 9 1 0
BITMAP
FF
C3
C3
C3
C3
C3
C3
C3
C3
ENDCHAR
STARTCHAR 1D29
ENCODING 7465
SWIDTH 514 0
DWIDTH 10 0
BBX 7 9 2 0
BITMAP
FC
C6
C6
C6
C6
FC
C0
C0
C0
ENDCHAR
STARTCHAR 1D2A
ENCODING 7466
SWIDTH 514 0
DWIDTH 10 0
BBX 8 9 1 0
BITMAP
99
99
99
D9
DB
7E
18
18
18
ENDCHAR
STARTCHAR 1D2B
ENCODING 7467
SWIDTH 514 0
DWIDTH 10 0
BBX 9 9 0 0
BITMAP
1F80
1180
1180
1180
1180
3180
3180
2180
C180
ENDCHAR
STARTCHAR 1D2C
ENCODING 7468
SWIDTH 514 0
DWIDTH 10 0
BBX 6 7 2 7
BITMAP
30
38
28
48
7C
C4
84
ENDCHAR
STARTCHAR 1D2D
ENCODING 7469
SWIDTH 514 0
DWIDTH 10 0
BBX 8 7 1 7
BITMAP
1E
1C
2C
2E
7C
4C
CF
ENDCHAR
STARTCHAR 1D2E
ENCODING 7470
SWIDTH 514 0
DWIDTH 10 0
BBX 5 7 3 7
BITMAP
F0
98
98
F0
88
88
F0
ENDCHAR
STARTCHAR 1D2F
ENCODING 7471
SWIDTH 514 0
DWIDTH 10 0
BBX 6 7 2 7
BITMAP
78
44
44
F8
44
44
7C
ENDCHAR
STARTCHAR 1D30
ENCODING 7472
SWIDTH 514 0
DWIDTH 10 0
BBX 6 7 3 7
BITMAP
F0
88
8C
8C
8C
88
F0
ENDCHAR
STARTCHAR 1D31
ENCODING 7473
SWIDTH 514 0
DWIDTH 10 0
BBX 5 7 3 7
BITMAP
F8
80
80
F0
80
80
F8
ENDCHAR
STARTCHAR 1D32
ENCODING 7474
SWIDTH 514 0
DWIDTH 10 0
BBX 5 7 3 7
BITMAP
F8
18
18
F8
18
18
F8
ENDCHAR
STARTCHAR 1D33
ENCODING 7475
SWIDTH 514 0
DWIDTH 10 0
BBX 6 7 2 7
BITMAP
3C
40
C0
9C
84
44
3C
ENDCHAR
STARTCHAR 1D34
ENCODING 7476
SWIDTH 514 0
DWIDTH 10 0
BBX 6 7 2 7
BITMAP
C4
C4
C4
FC
C4
C4
C4
ENDCHAR
STARTCHAR 1D35
ENCODING 7477
SWIDTH 514 0
DWIDTH 10 0
BBX 5 7 3 7
BITMAP
F8
20
20
20
20
20
F8
ENDCHAR
STARTCHAR 1D36
ENCODING 7478
SWIDTH 514 0
DWIDTH 10 0
BBX 4 7 3 7
BITMAP
F0
10
10
10
10
10
E0
ENDCHAR
STARTCHAR 1D37
ENCODING 7479
SWIDTH 514 0
DWIDTH 10 0
BBX 5 7 3 7
BITMAP
98
B0
E0
C0
A0
90
98
ENDCHAR
STARTCHAR 1D38
ENCODING 7480
SWIDTH 514 0
DWIDTH 10 0
BBX 5 7 3 7
BITMAP
C0
C0
C0
C0
C0
C0
F8
ENDCHAR
STARTCHAR 1D39
ENCODING 7481
SWIDTH 514 0
DWIDTH 10 0
BBX 7 7 2 7
BITMAP
CC
CC
AC
B4
B4
84
86
ENDCHAR
STARTCHAR 1D3A
ENCODING 7482
SWIDTH 514 0
DWIDTH 10 0
BBX 6 7 2 7
BITMAP
C4
A4
A4
D4
D4
CC
CC
ENDCHAR
STARTCHAR 1D3B
ENCODING 7483
SWIDTH 514 0
DWIDTH 10 0
BBX 6 7 2 7
BITMAP
C4
CC
D4
D4
E4
E4
C4
ENDCHAR
STARTCHAR 1D3C
ENCODING 7484
SWIDTH 514 0
DWIDTH 10 0
BBX 6 7 2 7
BITMAP
78
C4
84
84
84
C4
78
ENDCHAR
STARTCHAR 1D3D
ENCODING 7485
SWIDTH 514 0
DWIDTH 10 0
BBX 6 7 2 7
BITMAP
44
4C
30
4C
C4
44
78
ENDCHAR
STARTCHAR 1D3E
ENCODING 7486
SWIDTH 514 0
DWIDTH 10 0
BBX 5 7 3 7
BITMAP
F0
88
88
88
F0
80
80
ENDCHAR
STARTCHAR 1D3F
ENCODING 7487
SWIDTH 514 0
DWIDTH 10 0
BBX 5 7 3 7
BITMAP
F0
98
98
F0
90
98
88
ENDCHAR
STARTCHAR 1D40
ENCODING 7488
SWIDTH 514 0
DWIDTH 10 0
BBX 6 7 2 7
BITMAP
FC
10
10
10
10
10
10
ENDCHAR
STARTCHAR 1D41
ENCODING 7489
SWIDTH 514 0
DWIDTH 10 0
BBX 6 7 2 7
BITMAP
C4
C4
C4
C4
C4
4C
78
ENDCHAR
STARTCHAR 1D42
ENCODING 7490
SWIDTH 514 0
DWIDTH 10 0
BBX 7 7 2 7
BITMAP
86
84
94
B4
BC
AC
CC
ENDCHAR
STARTCHAR 1D43
ENCODING 7491
SWIDTH 514 0
DWIDTH 10 0
BBX 5 6 3 7
BITMAP
F0
18
F8
98
98
E8
ENDCHAR
STARTCHAR 1D44
ENCODING 7492
SWIDTH 514 0
DWIDTH 10 0
BBX 5 6 3 7
BITMAP
F0
98
98
F0
80
F0
ENDCHAR
STARTCHAR 1D45
ENCODING 7493
SWIDTH 514 0
DWIDTH 10 0
BBX 5 6 3 7
BITMAP
78
88
88
88
98
E8
ENDCHAR
STARTCHAR 1D46
ENCODING 7494
SWIDTH 514 0
DWIDTH 10 0
BBX 7 6 2 7
BITMAP
EC
36
16
FC
90
FC
ENDCHAR
STARTCHAR 1D47
ENCODING 7495
SWIDTH 514 0
DWIDTH 10 0
BBX 5 8 3 7
BITMAP
80
80
F0
88
88
88
98
F0
ENDCHAR
STARTCHAR 1D48
ENCODING 7496
SWIDTH 514 0
DWIDTH 10 0
BBX 5 8 3 7
BITMAP
08
08
78
88
88
88
98
E8
ENDCHAR
STARTCHAR 1D49
ENCODING 7497
SWIDTH 514 0
DWIDTH 10 0
BBX 5 6 3 7
BITMAP
70
88
F8
80
80
78
ENDCHAR
STARTCHAR 1D4A
ENCODING 7498
SWIDTH 514 0
DWIDTH 10 0
BBX 6 6 2 7
BITMAP
78
0C
04
FC
4C
78
ENDCHAR
STARTCHAR 1D4B
ENCODING 7499
SWIDTH 514 0
DWIDTH 10 0
BBX 5 6 3 7
BITMAP
F8
80
70
80
80
78
ENDCHAR
STARTCHAR 1D4C
ENCODING 7500
SWIDTH 514 0
DWIDTH 10 0
BBX 5 6 3 7
BITMAP
F0
08
08
70
18
F0
ENDCHAR
STARTCHAR 1D4D
ENCODING 7501
SWIDTH 514 0
DWIDTH 10 0
BBX 5 8 3 5
BITMAP
78
88
88
F0
80
F8
88
F8
ENDCHAR
STARTCHAR 1D4E
ENCODING 7502
SWIDTH 514 0
DWIDTH 10 0
BBX 5 9 3 4
BITMAP
F8
20
20
20
20
38
00
20
20
ENDCHAR
STARTCHAR 1D4F
ENCODING 7503
SWIDTH 514 0
DWIDTH 10 0
BBX 5 8 3 7
BITMAP
80
80
98
B0
E0
A0
90
98
ENDCHAR
STARTCHAR 1D50
ENCODING 7504
SWIDTH 514 0
DWIDTH 10 0
BBX 6 6 2 7
BITMAP
AC
D4
94
94
94
94
ENDCHAR
STARTCHAR 1D51
ENCODING 7505
SWIDTH 514 0
DWIDTH 10 0
BBX 5 8 3 5
BITMAP
F0
D8
98
98
98
98
18
30
ENDCHAR
STARTCHAR 1D52
ENCODING 7506
SWIDTH 514 0
DWIDTH 10 0
BBX 6 6 2 7
BITMAP
38
4C
C4
C4
4C
78
ENDCHAR
STARTCHAR 1D53
ENCODING 7507
SWIDTH 514 0
DWIDTH 10 0
BBX 5 6 3 7
BITMAP
E0
10
18
10
10
E0
ENDCHAR
STARTCHAR 1D54
ENCODING 7508
SWIDTH 514 0
DWIDTH 10 0
BBX 6 3 2 10
BITMAP
78
4C
C4
ENDCHAR
STARTCHAR 1D55
ENCODING 7509
SWIDTH 514 0
DWIDTH 10 0
BBX 6 3 2 6
BITMAP
C4
4C
78
ENDCHAR
STARTCHAR 1D56
ENCODING 7510
SWIDTH 514 0
DWIDTH 10 0
BBX 5 8 3 5
BITMAP
F0
88
88
88
98
F0
80
80
ENDCHAR
STARTCHAR 1D57
ENCODING 7511
SWIDTH 514 0
DWIDTH 10 0
BBX 5 8 2 7
BITMAP
60
60
F8
60
60
60
20
38
ENDCHAR
STARTCHAR 1D58
ENCODING 7512
SWIDTH 514 0
DWIDTH 10 0
BBX 5 6 3 7
BITMAP
98
98
98
98
98
E8
ENDCHAR
STARTCHAR 1D59
ENCODING 7513
SWIDTH 514 0
DWIDTH 10 0
BBX 6 5 2 7
BITMAP
FC
0C
04
04
FC
ENDCHAR
STARTCHAR 1D5A
ENCODING 7514
SWIDTH 514 0
DWIDTH 10 0
BBX 6 6 2 7
BITMAP
94
94
94
94
B4
DC
ENDCHAR
STARTCHAR 1D5B
ENCODING 7515
SWIDTH 514 0
DWIDTH 10 0
BBX 6 6 2 7
BITMAP
C4
4C
48
28
30
30
ENDCHAR
STARTCHAR 1D5C
ENCODING 7516
SWIDTH 514 0
DWIDTH 10 0
BBX 6 6 2 7
BITMAP
38
78
78
38
38
CC
ENDCHAR
STARTCHAR 1D5D
ENCODING 7517
SWIDTH 514 0
DWIDTH 10 0
BBX 5 10 3 5
BITMAP
F0
90
90
B0
98
88
88
F0
80
80
ENDCHAR
STARTCHAR 1D5E
ENCODING 7518
SWIDTH 514 0
DWIDTH 10 0
BBX 6 8 2 5
BITMAP
C4
64
24
28
38
30
10
10
ENDCHAR
STARTCHAR 1D5F
ENCODING 7519
SWIDTH 514 0
DWIDTH 10 0
BBX 6 8 2 7
BITMAP
38
20
30
48
C4
C4
4C
78
ENDCHAR
STARTCHAR 1D60
ENCODING 7520
SWIDTH 514 0
DWIDTH 10 0
BBX 6 10 2 5
BITMAP
10
10
94
94
94
94
D4
78
10
10
ENDCHAR
STARTCHAR 1D61
ENCODING 7521
SWIDTH 514 0
DWIDTH 10 0
BBX 6 8 2 5
BITMAP
C4
68
28
30
30
78
48
CC
ENDCHAR
STARTCHAR 1D62
ENCODING 7522
SWIDTH 514 0
DWIDTH 10 0
BBX 5 9 3 -2
BITMAP
60
60
00
E0
20
20
20
20
F8
ENDCHAR
STARTCHAR 1D63
ENCODING 7523
SWIDTH 514 0
DWIDTH 10 0
BBX 5 6 3 -2
BITMAP
B8
C8
80
80
80
80
ENDCHAR
STARTCHAR 1D64
ENCODING 7524
SWIDTH 514 0
DWIDTH 10 0
BBX 5 6 3 -2
BITMAP
98
98
98
98
98
E8
ENDCHAR
STARTCHAR 1D65
ENCODING 7525
SWIDTH 514 0
DWIDTH 10 0
BBX 6 6 2 -2
BITMAP
C4
4C
48
28
30
30
ENDCHAR
STARTCHAR 1D66
ENCODING 7526
SWIDTH 514 0
DWIDTH 10 0
BBX 5 10 3 -4
BITMAP
F0
90
90
B0
98
88
88
F0
80
80
ENDCHAR
STARTCHAR 1D67
ENCODING 7527
SWIDTH 514 0
DWIDTH 10 0
BBX 6 8 2 -4
BITMAP
C4
64
24
28
38
30
10
10
ENDCHAR
STARTCHAR 1D68
ENCODING 7528
SWIDTH 514 0
DWIDTH 10 0
BBX 5 8 3 -4
BITMAP
70
98
88
88
98
F0
80
80
ENDCHAR
STARTCHAR 1D69
ENCODING 7529
SWIDTH 514 0
DWIDTH 10 0
BBX 6 10 2 -4
BITMAP
10
10
94
94
94
94
D4
78
10
10
ENDCHAR
STARTCHAR 1D6A
ENCODING 7530
SWIDTH 514 0
DWIDTH 10 0
BBX 6 8 2 -4
BITMAP
C4
68
28
30
30
78
48
CC
ENDCHAR
STARTCHAR 1D6B
ENCODING 7531
SWIDTH 514 0
DWIDTH 10 0
BBX 9 9 1 0
BITMAP
9F00
9980
9980
9880
9F80
9800
9800
9C00
F780
ENDCHAR
STARTCHAR 1D6C
ENCODING 7532
SWIDTH 514 0
DWIDTH 10 0
BBX 10 13 -1 0
BITMAP
3000
7400
BC00
3000
3780
3CC0
3040
3040
3040
3040
30C0
3080
1F00
ENDCHAR
STARTCHAR 1D6D
ENCODING 7533
SWIDTH 514 0
DWIDTH 10 0
BBX 10 13 1 0
BITMAP
0300
0F40
0BC0
0300
3F00
6300
C300
C300
C300
C300
C300
4700
3B00
ENDCHAR
STARTCHAR 1D6E
ENCODING 7534
SWIDTH 514 0
DWIDTH 10 0
BBX 9 13 1 0
BITMAP
0F80
1800
1000
1000
1000
FF00
1000
7200
5E00
1000
1000
1000
1000
ENDCHAR
STARTCHAR 1D6F
ENCODING 7535
SWIDTH 514 0
DWIDTH 10 0
BBX 10 9 0 0
BITMAP
5B80
6E80
6C80
6C80
7CC0
EF80
6C80
6C80
6C80
ENDCHAR
STARTCHAR 1D70
ENCODING 7536
SWIDTH 514 0
DWIDTH 10 0
BBX 10 9 0 0
BITMAP
2F00
3900
3180
2180
79C0
E780
2180
2180
2180
ENDCHAR
STARTCHAR 1D71
ENCODING 7537
SWIDTH 514 0
DWIDTH 10 0
BBX 10 13 -1 -5
BITMAP
3780
3CC0
3040
3040
3040
3040
30C0
3080
3F00
3000
F400
BC00
3000
ENDCHAR
STARTCHAR 1D72
ENCODING 7538
SWIDTH 514 0
DWIDTH 10 0
BBX 10 9 0 0
BITMAP
2780
3880
30C0
3000
F400
BC00
3000
3000
3000
ENDCHAR
STARTCHAR 1D73
ENCODING 7539
SWIDTH 514 0
DWIDTH 10 0
BBX 10 9 0 0
BITMAP
1F00
3180
3080
30C0
F400
BC00
3000
3000
3000
ENDCHAR
STARTCHAR 1D74
ENCODING 7540
SWIDTH 514 0
DWIDTH 10 0
BBX 10 9 0 0
BITMAP
1F00
3000
2000
30C0
5F80
C380
0180
0180
3E00
ENDCHAR
STARTCHAR 1D75
ENCODING 7541
SWIDTH 514 0
DWIDTH 10 0
BBX 8 12 1 0
BITMAP
30
30
30
FF
30
30
74
BC
30
30
10
1F
ENDCHAR
STARTCHAR 1D76
ENCODING 7542
SWIDTH 514 0
DWIDTH 10 0
BBX 7 9 2 0
BITMAP
FE
0C
08
7A
BC
20
60
C0
FE
ENDCHAR
STARTCHAR 1D77
ENCODING 7543
SWIDTH 514 0
DWIDTH 10 0
BBX 9 13 1 -4
BITMAP
3E00
C180
C180
C100
7F00
0100
0100
3F00
6300
6300
6300
6300
FE00
ENDCHAR
STARTCHAR 1D78
ENCODING 7544
SWIDTH 514 0
DWIDTH 10 0
BBX 6 5 2 7
BITMAP
C4
C4
FC
C4
C4
ENDCHAR
STARTCHAR 1D79
ENCODING 7545
SWIDTH 514 0
DWIDTH 10 0
BBX 9 13 1 -4
BITMAP
FF00
1800
3000
6000
4000
6000
3C00
6700
C100
C180
C180
C300
7E00
ENDCHAR
STARTCHAR 1D7A
ENCODING 7546
SWIDTH 514 0
DWIDTH 10 0
BBX 10 15 0 -2
BITMAP
0640
66C0
6780
6700
FFC0
66C0
66C0
6EC0
6EC0
7EC0
76C0
76C0
3EC0
4000
4000
ENDCHAR
STARTCHAR 1D7B
ENCODING 7547
SWIDTH 514 0
DWIDTH 10 0
BBX 7 9 2 0
BITMAP
F0
10
10
10
FC
10
10
10
FE
ENDCHAR
STARTCHAR 1D7C
ENCODING 7548
SWIDTH 514 0
DWIDTH 10 0
BBX 8 9 1 0
BITMAP
F8
18
18
18
7E
18
18
08
0F
ENDCHAR
STARTCHAR 1D7D
ENCODING 7549
SWIDTH 514 0
DWIDTH 10 0
BBX 10 13 -1 -4
BITMAP
3780
3CC0
3040
3040
3040
3040
30C0
3080
3F00
3000
FC00
3000
3000
ENDCHAR
STARTCHAR 1D7E
ENCODING 7550
SWIDTH 514 0
DWIDTH 10 0
BBX 10 9 0 0
BITMAP
6180
6180
6180
6180
FFC0
6180
6180
3180
1F00
ENDCHAR
STARTCHAR 1D7F
ENCODING 7551
SWIDTH 514 0
DWIDTH 10 0
BBX 10 9 0 0
BITMAP
6180
6180
6180
6180
FFC0
6180
2180
3300
1E00
ENDCHAR
STARTCHAR 1D80
ENCODING 7552
SWIDTH 514 0
DWIDTH 10 0
BBX 8 17 1 -4
BITMAP
C0
C0
C0
C0
DE
F3
C1
C1
C1
C1
C3
C2
7C
04
04
04
38
ENDCHAR
STARTCHAR 1D81
ENCODING 7553
SWIDTH 514 0
DWIDTH 10 0
BBX 9 17 1 -4
BITMAP
0300
0300
0300
0300
3F00
6300
C300
C300
C300
C300
C300
4700
3B80
0080
0080
0080
0780
ENDCHAR
STARTCHAR 1D82
ENCODING 7554
SWIDTH 514 0
DWIDTH 10 0
BBX 9 17 1 -4
BITMAP
0F80
1800
1000
1000
1000
FF00
1000
1000
1000
1000
1000
1000
1C00
0400
0400
0C00
3800
ENDCHAR
STARTCHAR 1D83
ENCODING 7555
SWIDTH 514 0
DWIDTH 10 0
BBX 11 13 0 -4
BITMAP
3F80
6300
4300
4300
6300
7C00
4000
4000
7FE0
4660
C260
C660
7CC0
ENDCHAR
STARTCHAR 1D84
ENCODING 7556
SWIDTH 514 0
DWIDTH 10 0
BBX 9 17 2 -4
BITMAP
8000
8000
8000
8000
8600
8C00
9800
B000
F000
9800
9C00
8C00
8780
0180
0180
0100
0700
ENDCHAR
STARTCHAR 1D85
ENCODING 7557
SWIDTH 514 0
DWIDTH 10 0
BBX 7 17 2 -4
BITMAP
F0
10
10
10
10
10
10
10
10
10
10
10
FE
08
08
08
38
ENDCHAR
STARTCHAR 1D86
ENCODING 7558
SWIDTH 514 0
DWIDTH 10 0
BBX 10 13 1 -4
BITMAP
B300
DD80
D980
9980
9980
9980
9980
9980
99C0
0040
0040
00C0
0380
ENDCHAR
STARTCHAR 1D87
ENCODING 7559
SWIDTH 514 0
DWIDTH 10 0
BBX 9 13 1 -4
BITMAP
DE00
E300
C300
C300
C300
C300
C300
C300
C380
0080
0080
0080
0700
ENDCHAR
STARTCHAR 1D88
ENCODING 7560
SWIDTH 514 0
DWIDTH 10 0
BBX 8 13 1 -4
BITMAP
DE
F3
C1
C1
C1
C1
C3
C2
FE
C2
C2
C6
DC
ENDCHAR
STARTCHAR 1D89
ENCODING 7561
SWIDTH 514 0
DWIDTH 10 0
BBX 9 13 1 -4
BITMAP
4F00
7100
6180
6000
6000
6000
6000
6000
7000
1000
1000
3000
E000
ENDCHAR
STARTCHAR 1D8A
ENCODING 7562
SWIDTH 514 0
DWIDTH 10 0
BBX 7 13 2 -4
BITMAP
78
C4
80
E0
7C
0E
06
86
7E
02
02
02
1E
ENDCHAR
STARTCHAR 1D8B
ENCODING 7563
SWIDTH 514 0
DWIDTH 10 0
BBX 9 17 1 -4
BITMAP
0700
0800
1800
1800
1800
1800
1800
1800
1800
1800
1800
1800
1F80
1880
1880
1880
F380
ENDCHAR
STARTCHAR 1D8C
ENCODING 7564
SWIDTH 514 0
DWIDTH 10 0
BBX 9 13 1 -4
BITMAP
C180
C300
4300
6200
6600
2600
3400
1C00
1E00
0600
0400
0400
1C00
ENDCHAR
STARTCHAR 1D8D
ENCODING 7565
SWIDTH 514 0
DWIDTH 10 0
BBX 10 13 1 -4
BITMAP
C300
6300
3600
1C00
1800
3C00
2600
6300
C3C0
00C0
00C0
0080
0380
ENDCHAR
STARTCHAR 1D8E
ENCODING 7566
SWIDTH 514 0
DWIDTH 10 0
BBX 7 13 2 -4
BITMAP
FE
0C
08
18
30
20
60
C0
FE
02
02
06
1C
ENDCHAR
STARTCHAR 1D8F
ENCODING 7567
SWIDTH 514 0
DWIDTH 10 0
BBX 11 13 1 -4
BITMAP
3E00
4300
0300
0300
3F00
4300
C300
C700
7B80
0080
0080
0080
00E0
ENDCHAR
STARTCHAR 1D90
ENCODING 7568
SWIDTH 514 0
DWIDTH 10 0
BBX 11 13 1 -4
BITMAP
3F00
6300
C300
C300
C300
C300
C300
4700
3B80
0080
0080
0080
00E0
ENDCHAR
STARTCHAR 1D91
ENCODING 7569
SWIDTH 514 0
DWIDTH 10 0
BBX 10 17 1 -4
BITMAP
01C0
0100
0300
0300
3F00
6300
C300
C300
C300
C300
C300
4700
3B00
0300
0300
0100
01C0
ENDCHAR
STARTCHAR 1D92
ENCODING 7570
SWIDTH 514 0
DWIDTH 10 0
BBX 10 13 1 -4
BITMAP
3E00
6300
C300
C100
FF00
C000
C000
6000
3F00
0300
0300
0100
01C0
ENDCHAR
STARTCHAR 1D93
ENCODING 7571
SWIDTH 514 0
DWIDTH 10 0
BBX 10 13 1 -4
BITMAP
3F00
6000
4000
6000
3E00
C000
C000
C000
3F00
0100
0100
0100
01C0
ENDCHAR
STARTCHAR 1D94
ENCODING 7572
SWIDTH 514 0
DWIDTH 10 0
BBX 8 13 1 -4
BITMAP
FE
03
03
02
7C
03
03
03
FE
C0
C0
C0
70
ENDCHAR
STARTCHAR 1D95
ENCODING 7573
SWIDTH 514 0
DWIDTH 10 0
BBX 10 13 1 -4
BITMAP
7C00
0300
0300
0100
FF00
C100
C300
6200
3F00
0300
0100
0100
01C0
ENDCHAR
STARTCHAR 1D96
ENCODING 7574
SWIDTH 514 0
DWIDTH 10 0
BBX 7 17 2 -4
BITMAP
30
30
00
00
F0
10
10
10
10
10
10
10
FE
08
08
0C
06
ENDCHAR
STARTCHAR 1D97
ENCODING 7575
SWIDTH 514 0
DWIDTH 10 0
BBX 7 13 2 -4
BITMAP
F8
0C
06
06
06
06
06
0C
F8
80
80
80
60
ENDCHAR
STARTCHAR 1D98
ENCODING 7576
SWIDTH 514 0
DWIDTH 10 0
BBX 8 17 1 -4
BITMAP
07
08
18
18
18
18
18
18
18
18
18
18
F0
C0
C0
C0
70
ENDCHAR
STARTCHAR 1D99
ENCODING 7577
SWIDTH 514 0
DWIDTH 10 0
BBX 11 13 1 -4
BITMAP
C300
C300
C300
C300
C300
C300
4300
6700
3980
0080
0080
0080
00E0
ENDCHAR
STARTCHAR 1D9A
ENCODING 7578
SWIDTH 514 0
DWIDTH 10 0
BBX 8 13 1 -4
BITMAP
FE
0E
1C
30
3E
03
03
03
FE
C0
C0
C0
70
ENDCHAR
STARTCHAR 1D9B
ENCODING 7579
SWIDTH 514 0
DWIDTH 10 0
BBX 5 6 3 7
BITMAP
F0
D8
88
88
98
F0
ENDCHAR
STARTCHAR 1D9C
ENCODING 7580
SWIDTH 514 0
DWIDTH 10 0
BBX 5 6 3 7
BITMAP
78
C0
80
80
80
78
ENDCHAR
STARTCHAR 1D9D
ENCODING 7581
SWIDTH 514 0
DWIDTH 10 0
BBX 5 7 3 6
BITMAP
70
80
80
98
A8
70
20
ENDCHAR
STARTCHAR 1D9E
ENCODING 7582
SWIDTH 514 0
DWIDTH 10 0
BBX 5 8 3 7
BITMAP
70
60
10
F8
88
88
98
F0
ENDCHAR
STARTCHAR 1D9F
ENCODING 7583
SWIDTH 514 0
DWIDTH 10 0
BBX 5 6 3 7
BITMAP
F0
08
08
70
18
F0
ENDCHAR
STARTCHAR 1DA0
ENCODING 7584
SWIDTH 514 0
DWIDTH 10 0
BBX 6 8 2 7
BITMAP
1C
30
30
FC
30
30
30
30
ENDCHAR
STARTCHAR 1DA1
ENCODING 7585
SWIDTH 514 0
DWIDTH 10 0
BBX 6 8 2 5
BITMAP
10
10
10
10
7C
10
10
F0
ENDCHAR
STARTCHAR 1DA2
ENCODING 7586
SWIDTH 514 0
DWIDTH 10 0
BBX 5 8 3 5
BITMAP
78
88
88
F0
80
F8
88
F8
ENDCHAR
STARTCHAR 1DA3
ENCODING 7587
SWIDTH 514 0
DWIDTH 10 0
BBX 5 8 3 5
BITMAP
98
98
98
98
98
F8
18
18
ENDCHAR
STARTCHAR 1DA4
ENCODING 7588
SWIDTH 514 0
DWIDTH 10 0
BBX 5 9 3 7
BITMAP
60
60
00
E0
20
F0
20
20
F8
ENDCHAR
STARTCHAR 1DA5
ENCODING 7589
SWIDTH 514 0
DWIDTH 10 0
BBX 5 6 3 7
BITMAP
E0
20
20
20
20
38
ENDCHAR
STARTCHAR 1DA6
ENCODING 7590
SWIDTH 514 0
DWIDTH 10 0
BBX 5 7 3 7
BITMAP
F8
20
20
20
20
20
F8
ENDCHAR
STARTCHAR 1DA7
ENCODING 7591
SWIDTH 514 0
DWIDTH 10 0
BBX 5 7 3 7
BITMAP
F8
20
20
F0
20
20
F8
ENDCHAR
STARTCHAR 1DA8
ENCODING 7592
SWIDTH 514 0
DWIDTH 10 0
BBX 5 11 2 5
BITMAP
08
08
00
78
08
08
08
08
68
98
70
ENDCHAR
STARTCHAR 1DA9
ENCODING 7593
SWIDTH 514 0
DWIDTH 10 0
BBX 5 10 3 5
BITMAP
E0
20
20
20
20
20
20
20
20
38
ENDCHAR
STARTCHAR 1DAA
ENCODING 7594
SWIDTH 514 0
DWIDTH 10 0
BBX 5 10 3 5
BITMAP
E0
20
20
20
20
20
20
F8
10
30
ENDCHAR
STARTCHAR 1DAB
ENCODING 7595
SWIDTH 514 0
DWIDTH 10 0
BBX 5 6 3 7
BITMAP
C0
C0
C0
C0
C0
F8
ENDCHAR
STARTCHAR 1DAC
ENCODING 7596
SWIDTH 514 0
DWIDTH 10 0
BBX 6 8 2 5
BITMAP
AC
D4
94
94
94
94
04
0C
ENDCHAR
STARTCHAR 1DAD
ENCODING 7597
SWIDTH 514 0
DWIDTH 10 0
BBX 6 8 2 5
BITMAP
94
94
94
94
B4
DC
04
04
ENDCHAR
STARTCHAR 1DAE
ENCODING 7598
SWIDTH 514 0
DWIDTH 10 0
BBX 6 8 2 5
BITMAP
78
6C
4C
4C
4C
4C
40
C0
ENDCHAR
STARTCHAR 1DAF
ENCODING 7599
SWIDTH 514 0
DWIDTH 10 0
BBX 6 8 3 5
BITMAP
F0
D8
98
98
98
98
18
0C
ENDCHAR
STARTCHAR 1DB0
ENCODING 7600
SWIDTH 514 0
DWIDTH 10 0
BBX 5 6 3 7
BITMAP
88
C8
C8
A8
B8
98
ENDCHAR
STARTCHAR 1DB1
ENCODING 7601
SWIDTH 514 0
DWIDTH 10 0
BBX 6 6 2 7
BITMAP
38
44
FC
C4
4C
78
ENDCHAR
STARTCHAR 1DB2
ENCODING 7602
SWIDTH 514 0
DWIDTH 10 0
BBX 6 10 2 5
BITMAP
10
10
78
D4
94
94
D4
78
10
10
ENDCHAR
STARTCHAR 1DB3
ENCODING 7603
SWIDTH 514 0
DWIDTH 10 0
BBX 4 8 3 5
BITMAP
F0
80
E0
30
10
F0
80
C0
ENDCHAR
STARTCHAR 1DB4
ENCODING 7604
SWIDTH 514 0
DWIDTH 10 0
BBX 5 10 3 5
BITMAP
38
20
20
20
20
20
20
20
60
C0
ENDCHAR
STARTCHAR 1DB5
ENCODING 7605
SWIDTH 514 0
DWIDTH 10 0
BBX 5 10 2 5
BITMAP
60
60
F8
60
60
60
20
38
08
18
ENDCHAR
STARTCHAR 1DB6
ENCODING 7606
SWIDTH 514 0
DWIDTH 10 0
BBX 7 6 2 7
BITMAP
4C
4C
FE
4C
4C
74
ENDCHAR
STARTCHAR 1DB7
ENCODING 7607
SWIDTH 514 0
DWIDTH 10 0
BBX 6 6 2 7
BITMAP
EC
48
44
C4
4C
78
ENDCHAR
STARTCHAR 1DB8
ENCODING 7608
SWIDTH 514 0
DWIDTH 10 0
BBX 5 6 3 7
BITMAP
88
88
88
88
98
F0
ENDCHAR
STARTCHAR 1DB9
ENCODING 7609
SWIDTH 514 0
DWIDTH 10 0
BBX 5 6 3 7
BITMAP
B0
88
88
88
98
F0
ENDCHAR
STARTCHAR 1DBA
ENCODING 7610
SWIDTH 514 0
DWIDTH 10 0
BBX 6 6 2 7
BITMAP
30
38
68
48
4C
C4
ENDCHAR
STARTCHAR 1DBB
ENCODING 7611
SWIDTH 514 0
DWIDTH 10 0
BBX 5 6 3 7
BITMAP
F0
10
20
40
C0
F8
ENDCHAR
STARTCHAR 1DBC
ENCODING 7612
SWIDTH 514 0
DWIDTH 10 0
BBX 6 8 3 5
BITMAP
F0
10
20
40
C0
F8
18
0C
ENDCHAR
STARTCHAR 1DBD
ENCODING 7613
SWIDTH 514 0
DWIDTH 10 0
BBX 6 7 3 6
BITMAP
F0
10
20
58
D4
F8
20
ENDCHAR
STARTCHAR 1DBE
ENCODING 7614
SWIDTH 514 0
DWIDTH 10 0
BBX 5 8 3 5
BITMAP
F0
30
20
70
18
18
18
F0
ENDCHAR
STARTCHAR 1DBF
ENCODING 7615
SWIDTH 514 0
DWIDTH 10 0
BBX 6 8 2 7
BITMAP
38
4C
44
FC
C4
44
48
38
ENDCHAR
STARTCHAR 1DC0
ENCODING 7616
SWIDTH 514 0
DWIDTH 10 0
BBX 6 5 2 9
BITMAP
4C
6C
30
D8
C8
ENDCHAR
STARTCHAR 1DC1
ENCODING 7617
SWIDTH 514 0
DWIDTH 10 0
BBX 6 5 2 9
BITMAP
C8
D8
30
6C
4C
ENDCHAR
STARTCHAR 1DC2
ENCODING 7618
SWIDTH 514 0
DWIDTH 10 0
BBX 2 4 4 -4
BITMAP
C0
40
40
40
ENDCHAR
STARTCHAR 1DC3
ENCODING 7619
SWIDTH 514 0
DWIDTH 10 0
BBX 6 3 3 9
BITMAP
0C
88
F0
ENDCHAR
STARTCHAR 1DC4
ENCODING 7620
SWIDTH 514 0
DWIDTH 10 0
BBX 7 2 1 11
BITMAP
06
FC
ENDCHAR
STARTCHAR 1DC5
ENCODING 7621
SWIDTH 514 0
DWIDTH 10 0
BBX 7 2 2 11
BITMAP
C0
3E
ENDCHAR
STARTCHAR 1DC6
ENCODING 7622
SWIDTH 514 0
DWIDTH 10 0
BBX 6 2 2 12
BITMAP
F8
0C
ENDCHAR
STARTCHAR 1DC7
ENCODING 7623
SWIDTH 514 0
DWIDTH 10 0
BBX 7 2 2 12
BITMAP
7E
C0
ENDCHAR
STARTCHAR 1DC8
ENCODING 7624
SWIDTH 514 0
DWIDTH 10 0
BBX 9 2 1 12
BITMAP
CE00
3980
ENDCHAR
STARTCHAR 1DC9
ENCODING 7625
SWIDTH 514 0
DWIDTH 10 0
BBX 8 2 1 12
BITMAP
73
CE
ENDCHAR
STARTCHAR 1DCA
ENCODING 7626
SWIDTH 514 0
DWIDTH 10 0
BBX 4 5 3 -5
BITMAP
F0
90
80
80
80
ENDCHAR
STARTCHAR 1DFE
ENCODING 7678
SWIDTH 514 0
DWIDTH 10 0
BBX 3 4 4 9
BITMAP
20
C0
C0
20
ENDCHAR
STARTCHAR 1DFF
ENCODING 7679
SWIDTH 514 0
DWIDTH 10 0
BBX 6 4 2 -4
BITMAP
80
54
54
88
ENDCHAR
STARTCHAR 1E00
ENCODING 7680
SWIDTH 514 0
DWIDTH 10 0
BBX 10 16 0 -4
BITMAP
0E00
0E00
1A00
1300
1300
3100
3180
2180
7F80
60C0
40C0
C0C0
0000
0E00
1200
0E00
ENDCHAR
STARTCHAR 1E01
ENCODING 7681
SWIDTH 514 0
DWIDTH 10 0
BBX 8 13 1 -4
BITMAP
3E
43
03
03
3F
43
C3
C7
7B
00
1C
24
1C
ENDCHAR
STARTCHAR 1E02
ENCODING 7682
SWIDTH 514 0
DWIDTH 10 0
BBX 8 15 1 0
BITMAP
18
18
00
FE
C3
C3
C3
C2
FE
C3
C1
C1
C1
C3
FC
ENDCHAR
STARTCHAR 1E03
ENCODING 7683
SWIDTH 514 0
DWIDTH 10 0
BBX 8 13 1 0
BITMAP
CC
CC
C0
C0
DE
F3
C1
C1
C1
C1
C3
C2
7C
ENDCHAR
STARTCHAR 1E04
ENCODING 7684
SWIDTH 514 0
DWIDTH 10 0
BBX 8 16 1 -4
BITMAP
FE
C3
C3
C3
C2
FE
C3
C1
C1
C1
C3
FC
00
00
18
18
ENDCHAR
STARTCHAR 1E05
ENCODING 7685
SWIDTH 514 0
DWIDTH 10 0
BBX 8 17 1 -4
BITMAP
C0
C0
C0
C0
DE
F3
C1
C1
C1
C1
C3
C2
7C
00
00
18
18
ENDCHAR
STARTCHAR 1E06
ENCODING 7686
SWIDTH 514 0
DWIDTH 10 0
BBX 8 14 1 -5
BITMAP
FE
C3
C3
C3
C2
FE
C3
C1
C1
C1
C3
FC
00
3E
ENDCHAR
STARTCHAR 1E07
ENCODING 7687
SWIDTH 514 0
DWIDTH 10 0
BBX 8 15 1 -5
BITMAP
C0
C0
C0
C0
DE
F3
C1
C1
C1
C1
C3
C2
7C
00
3E
ENDCHAR
STARTCHAR 1E08
ENCODING 7688
SWIDTH 514 0
DWIDTH 10 0
BBX 8 18 1 -3
BITMAP
06
0C
00
1E
61
40
C0
C0
C0
C0
C0
C0
40
61
3E
08
18
18
ENDCHAR
STARTCHAR 1E09
ENCODING 7689
SWIDTH 514 0
DWIDTH 10 0
BBX 8 16 1 -3
BITMAP
06
0C
00
00
1E
31
60
40
C0
40
60
61
3E
08
18
18
ENDCHAR
STARTCHAR 1E0A
ENCODING 7690
SWIDTH 514 0
DWIDTH 10 0
BBX 9 15 1 0
BITMAP
1800
1800
0000
FC00
C600
C300
C100
C180
C180
C180
C180
C100
C300
C600
FC00
ENDCHAR
STARTCHAR 1E0B
ENCODING 7691
SWIDTH 514 0
DWIDTH 10 0
BBX 8 13 1 0
BITMAP
1B
1B
03
03
3F
63
C3
C3
C3
C3
C3
47
3B
ENDCHAR
STARTCHAR 1E0C
ENCODING 7692
SWIDTH 514 0
DWIDTH 10 0
BBX 9 16 1 -4
BITMAP
FC00
C600
C300
C100
C180
C180
C180
C180
C100
C300
C600
FC00
0000
0000
1800
1800
ENDCHAR
STARTCHAR 1E0D
ENCODING 7693
SWIDTH 514 0
DWIDTH 10 0
BBX 8 17 1 -4
BITMAP
03
03
03
03
3F
63
C3
C3
C3
C3
C3
47
3B
00
00
18
18
ENDCHAR
STARTCHAR 1E0E
ENCODING 7694
SWIDTH 514 0
DWIDTH 10 0
BBX 9 14 1 -5
BITMAP
FC00
C600
C300
C100
C180
C180
C180
C180
C100
C300
C600
FC00
0000
3E00
ENDCHAR
STARTCHAR 1E0F
ENCODING 7695
SWIDTH 514 0
DWIDTH 10 0
BBX 8 15 1 -5
BITMAP
03
03
03
03
3F
63
C3
C3
C3
C3
C3
47
3B
00
3E
ENDCHAR
STARTCHAR 1E10
ENCODING 7696
SWIDTH 514 0
DWIDTH 10 0
BBX 9 16 1 -4
BITMAP
FC00
C600
C300
C100
C180
C180
C180
C180
C100
C300
C600
FC00
0000
1800
0800
1800
ENDCHAR
STARTCHAR 1E11
ENCODING 7697
SWIDTH 514 0
DWIDTH 10 0
BBX 8 17 1 -4
BITMAP
03
03
03
03
3F
63
C3
C3
C3
C3
C3
47
3B
00
18
08
18
ENDCHAR
STARTCHAR 1E12
ENCODING 7698
SWIDTH 514 0
DWIDTH 10 0
BBX 9 15 1 -5
BITMAP
FC00
C600
C300
C100
C180
C180
C180
C180
C100
C300
C600
FC00
0000
1800
3600
ENDCHAR
STARTCHAR 1E13
ENCODING 7699
SWIDTH 514 0
DWIDTH 10 0
BBX 8 16 1 -5
BITMAP
03
03
03
03
3F
63
C3
C3
C3
C3
C3
47
3B
00
18
36
ENDCHAR
STARTCHAR 1E14
ENCODING 7700
SWIDTH 514 0
DWIDTH 10 0
BBX 7 18 2 0
BITMAP
60
30
00
7C
00
00
FE
C0
C0
C0
C0
FE
C0
C0
C0
C0
C0
FE
ENDCHAR
STARTCHAR 1E15
ENCODING 7701
SWIDTH 514 0
DWIDTH 10 0
BBX 8 15 1 0
BITMAP
30
18
00
3E
00
00
3E
63
C3
C1
FF
C0
C0
60
3F
ENDCHAR
STARTCHAR 1E16
ENCODING 7702
SWIDTH 514 0
DWIDTH 10 0
BBX 7 18 2 0
BITMAP
08
10
00
7C
00
00
FE
C0
C0
C0
C0
FE
C0
C0
C0
C0
C0
FE
ENDCHAR
STARTCHAR 1E17
ENCODING 7703
SWIDTH 514 0
DWIDTH 10 0
BBX 8 15 1 0
BITMAP
04
08
00
3E
00
00
3E
63
C3
C1
FF
C0
C0
60
3F
ENDCHAR
STARTCHAR 1E18
ENCODING 7704
SWIDTH 514 0
DWIDTH 10 0
BBX 7 15 2 -5
BITMAP
FE
C0
C0
C0
C0
FE
C0
C0
C0
C0
C0
FE
00
30
6C
ENDCHAR
STARTCHAR 1E19
ENCODING 7705
SWIDTH 514 0
DWIDTH 10 0
BBX 8 12 1 -5
BITMAP
3E
63
C3
C1
FF
C0
C0
60
3F
00
1C
36
ENDCHAR
STARTCHAR 1E1A
ENCODING 7706
SWIDTH 514 0
DWIDTH 10 0
BBX 7 15 2 -5
BITMAP
FE
C0
C0
C0
C0
FE
C0
C0
C0
C0
C0
FE
00
E4
9C
ENDCHAR
STARTCHAR 1E1B
ENCODING 7707
SWIDTH 514 0
DWIDTH 10 0
BBX 8 12 1 -5
BITMAP
3E
63
C3
C1
FF
C0
C0
60
3F
00
39
4E
ENDCHAR
STARTCHAR 1E1C
ENCODING 7708
SWIDTH 514 0
DWIDTH 10 0
BBX 7 18 2 -3
BITMAP
4C
78
00
FE
C0
C0
C0
C0
FE
C0
C0
C0
C0
C0
FE
10
30
30
ENDCHAR
STARTCHAR 1E1D
ENCODING 7709
SWIDTH 514 0
DWIDTH 10 0
BBX 8 16 1 -3
BITMAP
24
1C
00
00
3E
63
C3
C1
FF
C0
C0
60
3F
08
18
18
ENDCHAR
STARTCHAR 1E1E
ENCODING 7710
SWIDTH 514 0
DWIDTH 10 0
BBX 7 15 2 0
BITMAP
30
30
00
FE
C0
C0
C0
C0
C0
FC
C0
C0
C0
C0
C0
ENDCHAR
STARTCHAR 1E1F
ENCODING 7711
SWIDTH 514 0
DWIDTH 10 0
BBX 9 16 1 0
BITMAP
0600
0600
0000
0F80
1800
1000
1000
1000
FF00
1000
1000
1000
1000
1000
1000
1000
ENDCHAR
STARTCHAR 1E20
ENCODING 7712
SWIDTH 514 0
DWIDTH 10 0
BBX 8 15 1 0
BITMAP
3E
00
00
1F
61
40
C0
80
80
8F
81
C1
C1
61
3F
ENDCHAR
STARTCHAR 1E21
ENCODING 7713
SWIDTH 514 0
DWIDTH 10 0
BBX 9 16 1 -4
BITMAP
3E00
0000
0000
3F80
6600
C300
C300
6600
7C00
C000
C000
7F00
C180
C180
C300
7E00
ENDCHAR
STARTCHAR 1E22
ENCODING 7714
SWIDTH 514 0
DWIDTH 10 0
BBX 8 15 1 0
BITMAP
18
18
00
C1
C1
C1
C1
C1
FF
C1
C1
C1
C1
C1
C1
ENDCHAR
STARTCHAR 1E23
ENCODING 7715
SWIDTH 514 0
DWIDTH 10 0
BBX 8 13 1 0
BITMAP
CC
CC
C0
C0
DE
E3
C3
C3
C3
C3
C3
C3
C3
ENDCHAR
STARTCHAR 1E24
ENCODING 7716
SWIDTH 514 0
DWIDTH 10 0
BBX 8 16 1 -4
BITMAP
C1
C1
C1
C1
C1
FF
C1
C1
C1
C1
C1
C1
00
00
18
18
ENDCHAR
STARTCHAR 1E25
ENCODING 7717
SWIDTH 514 0
DWIDTH 10 0
BBX 8 17 1 -4
BITMAP
C0
C0
C0
C0
DE
E3
C3
C3
C3
C3
C3
C3
C3
00
00
18
18
ENDCHAR
STARTCHAR 1E26
ENCODING 7718
SWIDTH 514 0
DWIDTH 10 0
BBX 8 15 1 0
BITMAP
66
66
00
C1
C1
C1
C1
C1
FF
C1
C1
C1
C1
C1
C1
ENDCHAR
STARTCHAR 1E27
ENCODING 7719
SWIDTH 514 0
DWIDTH 10 0
BBX 8 16 1 0
BITMAP
66
66
00
C0
C0
C0
C0
DE
E3
C3
C3
C3
C3
C3
C3
C3
ENDCHAR
STARTCHAR 1E28
ENCODING 7720
SWIDTH 514 0
DWIDTH 10 0
BBX 8 15 1 -3
BITMAP
C1
C1
C1
C1
C1
FF
C1
C1
C1
C1
C1
C1
C0
80
80
ENDCHAR
STARTCHAR 1E29
ENCODING 7721
SWIDTH 514 0
DWIDTH 10 0
BBX 8 16 1 -3
BITMAP
C0
C0
C0
C0
DE
E3
C3
C3
C3
C3
C3
C3
C3
C0
C0
80
ENDCHAR
STARTCHAR 1E2A
ENCODING 7722
SWIDTH 514 0
DWIDTH 10 0
BBX 8 15 1 -5
BITMAP
C1
C1
C1
C1
C1
FF
C1
C1
C1
C1
C1
C1
00
24
1C
ENDCHAR
STARTCHAR 1E2B
ENCODING 7723
SWIDTH 514 0
DWIDTH 10 0
BBX 8 16 1 -5
BITMAP
C0
C0
C0
C0
DE
E3
C3
C3
C3
C3
C3
C3
C3
00
24
1C
ENDCHAR
STARTCHAR 1E2C
ENCODING 7724
SWIDTH 514 0
DWIDTH 10 0
BBX 7 15 2 -5
BITMAP
FE
30
30
30
30
30
30
30
30
30
30
FE
00
E4
9C
ENDCHAR
STARTCHAR 1E2D
ENCODING 7725
SWIDTH 514 0
DWIDTH 10 0
BBX 7 16 2 -5
BITMAP
30
30
00
00
F0
10
10
10
10
10
10
10
FE
00
E4
9C
ENDCHAR
STARTCHAR 1E2E
ENCODING 7726
SWIDTH 514 0
DWIDTH 10 0
BBX 7 18 2 0
BITMAP
08
10
00
CC
CC
00
FE
30
30
30
30
30
30
30
30
30
30
FE
ENDCHAR
STARTCHAR 1E2F
ENCODING 7727
SWIDTH 514 0
DWIDTH 10 0
BBX 7 15 2 0
BITMAP
08
10
00
CC
CC
00
F0
10
10
10
10
10
10
10
FE
ENDCHAR
STARTCHAR 1E30
ENCODING 7728
SWIDTH 514 0
DWIDTH 10 0
BBX 8 15 1 0
BITMAP
06
0C
00
C3
C6
C4
CC
D8
D0
F0
D8
CC
C6
C6
C3
ENDCHAR
STARTCHAR 1E31
ENCODING 7729
SWIDTH 514 0
DWIDTH 10 0
BBX 7 15 2 0
BITMAP
0C
18
80
80
80
80
86
8C
98
B0
F0
98
9C
8C
86
ENDCHAR
STARTCHAR 1E32
ENCODING 7730
SWIDTH 514 0
DWIDTH 10 0
BBX 8 16 1 -4
BITMAP
C3
C6
C4
CC
D8
D0
F0
D8
CC
C6
C6
C3
00
00
18
18
ENDCHAR
STARTCHAR 1E33
ENCODING 7731
SWIDTH 514 0
DWIDTH 10 0
BBX 7 17 2 -4
BITMAP
80
80
80
80
86
8C
98
B0
F0
98
9C
8C
86
00
00
30
30
ENDCHAR
STARTCHAR 1E34
ENCODING 7732
SWIDTH 514 0
DWIDTH 10 0
BBX 8 14 1 -5
BITMAP
C3
C6
C4
CC
D8
D0
F0
D8
CC
C6
C6
C3
00
3E
ENDCHAR
STARTCHAR 1E35
ENCODING 7733
SWIDTH 514 0
DWIDTH 10 0
BBX 7 15 2 -5
BITMAP
80
80
80
80
86
8C
98
B0
F0
98
9C
8C
86
00
7C
ENDCHAR
STARTCHAR 1E36
ENCODING 7734
SWIDTH 514 0
DWIDTH 10 0
BBX 7 16 2 -4
BITMAP
C0
C0
C0
C0
C0
C0
C0
C0
C0
C0
C0
FE
00
00
18
18
ENDCHAR
STARTCHAR 1E37
ENCODING 7735
SWIDTH 514 0
DWIDTH 10 0
BBX 7 17 2 -4
BITMAP
F0
10
10
10
10
10
10
10
10
10
10
10
FE
00
00
38
38
ENDCHAR
STARTCHAR 1E38
ENCODING 7736
SWIDTH 514 0
DWIDTH 10 0
BBX 7 19 2 -4
BITMAP
7C
00
00
C0
C0
C0
C0
C0
C0
C0
C0
C0
C0
C0
FE
00
00
18
18
ENDCHAR
STARTCHAR 1E39
ENCODING 7737
SWIDTH 514 0
DWIDTH 10 0
BBX 7 19 2 -4
BITMAP
78
00
F0
10
10
10
10
10
10
10
10
10
10
10
FE
00
00
38
38
ENDCHAR
STARTCHAR 1E3A
ENCODING 7738
SWIDTH 514 0
DWIDTH 10 0
BBX 7 14 2 -5
BITMAP
C0
C0
C0
C0
C0
C0
C0
C0
C0
C0
C0
FE
00
7C
ENDCHAR
STARTCHAR 1E3B
ENCODING 7739
SWIDTH 514 0
DWIDTH 10 0
BBX 7 15 2 -5
BITMAP
F0
10
10
10
10
10
10
10
10
10
10
10
FE
00
7C
ENDCHAR
STARTCHAR 1E3C
ENCODING 7740
SWIDTH 514 0
DWIDTH 10 0
BBX 7 15 2 -5
BITMAP
C0
C0
C0
C0
C0
C0
C0
C0
C0
C0
C0
FE
00
38
6C
ENDCHAR
STARTCHAR 1E3D
ENCODING 7741
SWIDTH 514 0
DWIDTH 10 0
BBX 7 16 2 -5
BITMAP
F0
10
10
10
10
10
10
10
10
10
10
10
FE
00
38
6C
ENDCHAR
STARTCHAR 1E3E
ENCODING 7742
SWIDTH 514 0
DWIDTH 10 0
BBX 10 15 0 0
BITMAP
0300
0600
0000
6180
6180
51C0
52C0
52C0
4AC0
4CC0
4CC0
40C0
40C0
40C0
C0C0
ENDCHAR
STARTCHAR 1E3F
ENCODING 7743
SWIDTH 514 0
DWIDTH 10 0
BBX 9 13 1 0
BITMAP
0600
0C00
0000
0000
B300
DD80
D980
9980
9980
9980
9980
9980
9980
ENDCHAR
STARTCHAR 1E40
ENCODING 7744
SWIDTH 514 0
DWIDTH 10 0
BBX 10 15 0 0
BITMAP
0C00
0C00
0000
6180
6180
51C0
52C0
52C0
4AC0
4CC0
4CC0
40C0
40C0
40C0
C0C0
ENDCHAR
STARTCHAR 1E41
ENCODING 7745
SWIDTH 514 0
DWIDTH 10 0
BBX 9 13 1 0
BITMAP
1800
1800
0000
0000
B300
DD80
D980
9980
9980
9980
9980
9980
9980
ENDCHAR
STARTCHAR 1E42
ENCODING 7746
SWIDTH 514 0
DWIDTH 10 0
BBX 10 16 0 -4
BITMAP
6180
6180
51C0
52C0
52C0
4AC0
4CC0
4CC0
40C0
40C0
40C0
C0C0
0000
0000
0C00
0C00
ENDCHAR
STARTCHAR 1E43
ENCODING 7747
SWIDTH 514 0
DWIDTH 10 0
BBX 9 13 1 -4
BITMAP
B300
DD80
D980
9980
9980
9980
9980
9980
9980
0000
0000
1800
1800
ENDCHAR
STARTCHAR 1E44
ENCODING 7748
SWIDTH 514 0
DWIDTH 10 0
BBX 8 15 1 0
BITMAP
18
18
00
C1
E1
E1
F1
D1
D9
C9
CD
C5
C7
C7
C3
ENDCHAR
STARTCHAR 1E45
ENCODING 7749
SWIDTH 514 0
DWIDTH 10 0
BBX 8 13 1 0
BITMAP
18
18
00
00
DE
E3
C3
C3
C3
C3
C3
C3
C3
ENDCHAR
STARTCHAR 1E46
ENCODING 7750
SWIDTH 514 0
DWIDTH 10 0
BBX 8 16 1 -4
BITMAP
C1
E1
E1
F1
D1
D9
C9
CD
C5
C7
C7
C3
00
00
18
18
ENDCHAR
STARTCHAR 1E47
ENCODING 7751
SWIDTH 514 0
DWIDTH 10 0
BBX 8 13 1 -4
BITMAP
DE
E3
C3
C3
C3
C3
C3
C3
C3
00
00
18
18
ENDCHAR
STARTCHAR 1E48
ENCODING 7752
SWIDTH 514 0
DWIDTH 10 0
BBX 8 14 1 -5
BITMAP
C1
E1
E1
F1
D1
D9
C9
CD
C5
C7
C7
C3
00
3E
ENDCHAR
STARTCHAR 1E49
ENCODING 7753
SWIDTH 514 0
DWIDTH 10 0
BBX 8 11 1 -5
BITMAP
DE
E3
C3
C3
C3
C3
C3
C3
C3
00
3E
ENDCHAR
STARTCHAR 1E4A
ENCODING 7754
SWIDTH 514 0
DWIDTH 10 0
BBX 8 15 1 -5
BITMAP
C1
E1
E1
F1
D1
D9
C9
CD
C5
C7
C7
C3
00
18
36
ENDCHAR
STARTCHAR 1E4B
ENCODING 7755
SWIDTH 514 0
DWIDTH 10 0
BBX 8 12 1 -5
BITMAP
DE
E3
C3
C3
C3
C3
C3
C3
C3
00
18
36
ENDCHAR
STARTCHAR 1E4C
ENCODING 7756
SWIDTH 514 0
DWIDTH 10 0
BBX 9 18 1 0
BITMAP
0400
0800
0000
3200
4E00
0000
3E00
6300
C100
C180
8180
8180
8180
8180
C180
C100
6300
3C00
ENDCHAR
STARTCHAR 1E4D
ENCODING 7757
SWIDTH 514 0
DWIDTH 10 0
BBX 9 16 1 0
BITMAP
0400
0800
0000
3200
4E00
0000
0000
3E00
6300
C100
C180
C180
C100
C100
6300
3C00
ENDCHAR
STARTCHAR 1E4E
ENCODING 7758
SWIDTH 514 0
DWIDTH 10 0
BBX 9 18 1 0
BITMAP
6600
6600
0000
3200
4E00
0000
3E00
6300
C100
C180
8180
8180
8180
8180
C180
C100
6300
3C00
ENDCHAR
STARTCHAR 1E4F
ENCODING 7759
SWIDTH 514 0
DWIDTH 10 0
BBX 9 16 1 0
BITMAP
6600
6600
0000
7200
4E00
0000
0000
3E00
6300
C100
C180
C180
C100
C100
6300
3C00
ENDCHAR
STARTCHAR 1E50
ENCODING 7760
SWIDTH 514 0
DWIDTH 10 0
BBX 9 18 1 0
BITMAP
3000
1800
0000
3E00
0000
0000
3E00
6300
C100
C180
8180
8180
8180
8180
C180
C100
6300
3C00
ENDCHAR
STARTCHAR 1E51
ENCODING 7761
SWIDTH 514 0
DWIDTH 10 0
BBX 9 15 1 0
BITMAP
3000
1800
0000
3E00
0000
0000
3E00
6300
C100
C180
C180
C100
C100
6300
3C00
ENDCHAR
STARTCHAR 1E52
ENCODING 7762
SWIDTH 514 0
DWIDTH 10 0
BBX 9 18 1 0
BITMAP
0400
0800
0000
3E00
0000
0000
3E00
6300
C100
C180
8180
8180
8180
8180
C180
C100
6300
3C00
ENDCHAR
STARTCHAR 1E53
ENCODING 7763
SWIDTH 514 0
DWIDTH 10 0
BBX 9 15 1 0
BITMAP
0400
0800
0000
3E00
0000
0000
3E00
6300
C100
C180
C180
C100
C100
6300
3C00
ENDCHAR
STARTCHAR 1E54
ENCODING 7764
SWIDTH 514 0
DWIDTH 10 0
BBX 8 15 1 0
BITMAP
06
0C
00
FC
C3
C3
C1
C1
C3
C2
FC
C0
C0
C0
C0
ENDCHAR
STARTCHAR 1E55
ENCODING 7765
SWIDTH 514 0
DWIDTH 10 0
BBX 8 17 1 -4
BITMAP
06
0C
00
00
DE
F3
C1
C1
C1
C1
C3
C2
FC
C0
C0
C0
C0
ENDCHAR
STARTCHAR 1E56
ENCODING 7766
SWIDTH 514 0
DWIDTH 10 0
BBX 8 15 1 0
BITMAP
18
18
00
FC
C3
C3
C1
C1
C3
C2
FC
C0
C0
C0
C0
ENDCHAR
STARTCHAR 1E57
ENCODING 7767
SWIDTH 514 0
DWIDTH 10 0
BBX 8 17 1 -4
BITMAP
18
18
00
00
DE
F3
C1
C1
C1
C1
C3
C2
FC
C0
C0
C0
C0
ENDCHAR
STARTCHAR 1E58
ENCODING 7768
SWIDTH 514 0
DWIDTH 10 0
BBX 8 15 2 0
BITMAP
30
30
00
F8
86
86
86
8C
F8
98
8C
8C
86
86
83
ENDCHAR
STARTCHAR 1E59
ENCODING 7769
SWIDTH 514 0
DWIDTH 10 0
BBX 8 13 2 0
BITMAP
30
30
00
00
9E
E2
C3
C0
C0
C0
C0
C0
C0
ENDCHAR
STARTCHAR 1E5A
ENCODING 7770
SWIDTH 514 0
DWIDTH 10 0
BBX 8 16 2 -4
BITMAP
F8
86
86
86
8C
F8
98
8C
8C
86
86
83
00
00
30
30
ENDCHAR
STARTCHAR 1E5B
ENCODING 7771
SWIDTH 514 0
DWIDTH 10 0
BBX 8 13 2 -4
BITMAP
9E
E2
C3
C0
C0
C0
C0
C0
C0
00
00
C0
C0
ENDCHAR
STARTCHAR 1E5C
ENCODING 7772
SWIDTH 514 0
DWIDTH 10 0
BBX 8 19 2 -4
BITMAP
7C
00
00
F8
86
86
86
8C
F8
98
8C
8C
86
86
83
00
00
30
30
ENDCHAR
STARTCHAR 1E5D
ENCODING 7773
SWIDTH 514 0
DWIDTH 10 0
BBX 8 16 2 -4
BITMAP
7C
00
00
9E
E2
C3
C0
C0
C0
C0
C0
C0
00
00
C0
C0
ENDCHAR
STARTCHAR 1E5E
ENCODING 7774
SWIDTH 514 0
DWIDTH 10 0
BBX 8 14 2 -5
BITMAP
F8
86
86
86
8C
F8
98
8C
8C
86
86
83
00
7C
ENDCHAR
STARTCHAR 1E5F
ENCODING 7775
SWIDTH 514 0
DWIDTH 10 0
BBX 10 11 0 -5
BITMAP
2780
3880
30C0
3000
3000
3000
3000
3000
3000
0000
F800
ENDCHAR
STARTCHAR 1E60
ENCODING 7776
SWIDTH 514 0
DWIDTH 10 0
BBX 8 15 1 0
BITMAP
18
18
00
3E
61
C0
C0
E0
78
0E
03
01
03
83
7C
ENDCHAR
STARTCHAR 1E61
ENCODING 7777
SWIDTH 514 0
DWIDTH 10 0
BBX 7 13 2 0
BITMAP
30
30
00
00
78
C4
80
E0
7C
0E
06
86
78
ENDCHAR
STARTCHAR 1E62
ENCODING 7778
SWIDTH 514 0
DWIDTH 10 0
BBX 8 16 1 -4
BITMAP
3E
61
C0
C0
E0
78
0E
03
01
03
83
7C
00
00
18
18
ENDCHAR
STARTCHAR 1E63
ENCODING 7779
SWIDTH 514 0
DWIDTH 10 0
BBX 7 13 2 -4
BITMAP
78
C4
80
E0
7C
0E
06
86
78
00
00
30
30
ENDCHAR
STARTCHAR 1E64
ENCODING 7780
SWIDTH 514 0
DWIDTH 10 0
BBX 8 17 1 0
BITMAP
30
30
06
0C
00
3E
61
C0
C0
E0
78
0E
03
01
03
83
7C
ENDCHAR
STARTCHAR 1E65
ENCODING 7781
SWIDTH 514 0
DWIDTH 10 0
BBX 7 14 2 0
BITMAP
60
6C
18
00
00
78
C4
80
E0
7C
0E
06
86
78
ENDCHAR
STARTCHAR 1E66
ENCODING 7782
SWIDTH 514 0
DWIDTH 10 0
BBX 8 18 1 0
BITMAP
18
18
00
36
1C
00
3E
61
C0
C0
E0
78
0E
03
01
03
83
7C
ENDCHAR
STARTCHAR 1E67
ENCODING 7783
SWIDTH 514 0
DWIDTH 10 0
BBX 7 16 2 0
BITMAP
30
30
00
6C
30
00
00
78
C4
80
E0
7C
0E
06
86
78
ENDCHAR
STARTCHAR 1E68
ENCODING 7784
SWIDTH 514 0
DWIDTH 10 0
BBX 8 19 1 -4
BITMAP
18
18
00
3E
61
C0
C0
E0
78
0E
03
01
03
83
7C
00
00
18
18
ENDCHAR
STARTCHAR 1E69
ENCODING 7785
SWIDTH 514 0
DWIDTH 10 0
BBX 7 17 2 -4
BITMAP
30
30
00
00
78
C4
80
E0
7C
0E
06
86
78
00
00
30
30
ENDCHAR
STARTCHAR 1E6A
ENCODING 7786
SWIDTH 514 0
DWIDTH 10 0
BBX 9 15 1 0
BITMAP
1800
1800
0000
FF80
1800
1800
1800
1800
1800
1800
1800
1800
1800
1800
1800
ENDCHAR
STARTCHAR 1E6B
ENCODING 7787
SWIDTH 514 0
DWIDTH 10 0
BBX 8 16 1 0
BITMAP
30
30
00
00
30
30
30
FF
30
30
30
30
30
30
10
1F
ENDCHAR
STARTCHAR 1E6C
ENCODING 7788
SWIDTH 514 0
DWIDTH 10 0
BBX 9 16 1 -4
BITMAP
FF80
1800
1800
1800
1800
1800
1800
1800
1800
1800
1800
1800
0000
0000
1800
1800
ENDCHAR
STARTCHAR 1E6D
ENCODING 7789
SWIDTH 514 0
DWIDTH 10 0
BBX 8 16 1 -4
BITMAP
30
30
30
FF
30
30
30
30
30
30
10
1F
00
00
18
18
ENDCHAR
STARTCHAR 1E6E
ENCODING 7790
SWIDTH 514 0
DWIDTH 10 0
BBX 9 14 1 -5
BITMAP
FF80
1800
1800
1800
1800
1800
1800
1800
1800
1800
1800
1800
0000
3E00
ENDCHAR
STARTCHAR 1E6F
ENCODING 7791
SWIDTH 514 0
DWIDTH 10 0
BBX 8 14 1 -5
BITMAP
30
30
30
FF
30
30
30
30
30
30
10
1F
00
3E
ENDCHAR
STARTCHAR 1E70
ENCODING 7792
SWIDTH 514 0
DWIDTH 10 0
BBX 9 15 1 -5
BITMAP
FF80
1800
1800
1800
1800
1800
1800
1800
1800
1800
1800
1800
0000
1800
3600
ENDCHAR
STARTCHAR 1E71
ENCODING 7793
SWIDTH 514 0
DWIDTH 10 0
BBX 8 15 1 -5
BITMAP
30
30
30
FF
30
30
30
30
30
30
10
1F
00
18
36
ENDCHAR
STARTCHAR 1E72
ENCODING 7794
SWIDTH 514 0
DWIDTH 10 0
BBX 8 15 1 -3
BITMAP
C1
C1
C1
C1
C1
C1
C1
C1
C1
C1
43
3C
00
66
66
ENDCHAR
STARTCHAR 1E73
ENCODING 7795
SWIDTH 514 0
DWIDTH 10 0
BBX 8 12 1 -3
BITMAP
C3
C3
C3
C3
C3
C3
43
67
39
00
66
66
ENDCHAR
STARTCHAR 1E74
ENCODING 7796
SWIDTH 514 0
DWIDTH 10 0
BBX 8 15 1 -5
BITMAP
C1
C1
C1
C1
C1
C1
C1
C1
C1
C1
43
3C
00
72
4E
ENDCHAR
STARTCHAR 1E75
ENCODING 7797
SWIDTH 514 0
DWIDTH 10 0
BBX 8 12 1 -5
BITMAP
C3
C3
C3
C3
C3
C3
43
67
39
00
72
4E
ENDCHAR
STARTCHAR 1E76
ENCODING 7798
SWIDTH 514 0
DWIDTH 10 0
BBX 8 15 1 -5
BITMAP
C1
C1
C1
C1
C1
C1
C1
C1
C1
C1
43
3C
00
18
36
ENDCHAR
STARTCHAR 1E77
ENCODING 7799
SWIDTH 514 0
DWIDTH 10 0
BBX 8 12 1 -5
BITMAP
C3
C3
C3
C3
C3
C3
43
67
39
00
18
36
ENDCHAR
STARTCHAR 1E78
ENCODING 7800
SWIDTH 514 0
DWIDTH 10 0
BBX 8 18 1 0
BITMAP
04
08
00
72
4E
00
C1
C1
C1
C1
C1
C1
C1
C1
C1
C1
43
3C
ENDCHAR
STARTCHAR 1E79
ENCODING 7801
SWIDTH 514 0
DWIDTH 10 0
BBX 8 16 1 0
BITMAP
04
08
00
32
4E
00
00
C3
C3
C3
C3
C3
C3
43
67
39
ENDCHAR
STARTCHAR 1E7A
ENCODING 7802
SWIDTH 514 0
DWIDTH 10 0
BBX 8 18 1 0
BITMAP
66
66
00
3E
00
00
C1
C1
C1
C1
C1
C1
C1
C1
C1
C1
43
3C
ENDCHAR
STARTCHAR 1E7B
ENCODING 7803
SWIDTH 514 0
DWIDTH 10 0
BBX 8 15 1 0
BITMAP
66
66
00
3E
00
00
C3
C3
C3
C3
C3
C3
43
67
39
ENDCHAR
STARTCHAR 1E7C
ENCODING 7804
SWIDTH 514 0
DWIDTH 10 0
BBX 10 15 0 0
BITMAP
3900
2700
0000
C0C0
40C0
60C0
6080
2180
3180
3100
1300
1A00
1A00
0E00
0C00
ENDCHAR
STARTCHAR 1E7D
ENCODING 7805
SWIDTH 514 0
DWIDTH 10 0
BBX 9 13 1 0
BITMAP
7200
4E00
0000
0000
C180
C300
4300
6200
6600
2600
3400
1C00
1800
ENDCHAR
STARTCHAR 1E7E
ENCODING 7806
SWIDTH 514 0
DWIDTH 10 0
BBX 10 16 0 -4
BITMAP
C0C0
40C0
60C0
6080
2180
3180
3100
1300
1A00
1A00
0E00
0C00
0000
0000
0C00
0C00
ENDCHAR
STARTCHAR 1E7F
ENCODING 7807
SWIDTH 514 0
DWIDTH 10 0
BBX 9 13 1 -4
BITMAP
C180
C300
4300
6200
6600
2600
3400
1C00
1800
0000
0000
1800
1800
ENDCHAR
STARTCHAR 1E80
ENCODING 7808
SWIDTH 514 0
DWIDTH 10 0
BBX 10 15 0 0
BITMAP
1800
0C00
0000
C040
40C0
40C0
40C0
4CC0
4CC0
4EC0
4AC0
5280
7380
7180
6180
ENDCHAR
STARTCHAR 1E81
ENCODING 7809
SWIDTH 514 0
DWIDTH 10 0
BBX 10 13 0 0
BITMAP
3800
0C00
0000
0000
C0C0
40C0
4CC0
4CC0
4E80
6A80
7280
7380
3180
ENDCHAR
STARTCHAR 1E82
ENCODING 7810
SWIDTH 514 0
DWIDTH 10 0
BBX 10 15 0 0
BITMAP
0300
0600
0000
C040
40C0
40C0
40C0
4CC0
4CC0
4EC0
4AC0
5280
7380
7180
6180
ENDCHAR
STARTCHAR 1E83
ENCODING 7811
SWIDTH 514 0
DWIDTH 10 0
BBX 10 13 0 0
BITMAP
0300
0600
0000
0000
C0C0
40C0
4CC0
4CC0
4E80
6A80
7280
7380
3180
ENDCHAR
STARTCHAR 1E84
ENCODING 7812
SWIDTH 514 0
DWIDTH 10 0
BBX 10 15 0 0
BITMAP
3300
3300
0000
C040
40C0
40C0
40C0
4CC0
4CC0
4EC0
4AC0
5280
7380
7180
6180
ENDCHAR
STARTCHAR 1E85
ENCODING 7813
SWIDTH 514 0
DWIDTH 10 0
BBX 10 13 0 0
BITMAP
3300
3300
0000
0000
C0C0
40C0
4CC0
4CC0
4E80
6A80
7280
7380
3180
ENDCHAR
STARTCHAR 1E86
ENCODING 7814
SWIDTH 514 0
DWIDTH 10 0
BBX 10 15 0 0
BITMAP
0C00
0C00
0000
C040
40C0
40C0
40C0
4CC0
4CC0
4EC0
4AC0
5280
7380
7180
6180
ENDCHAR
STARTCHAR 1E87
ENCODING 7815
SWIDTH 514 0
DWIDTH 10 0
BBX 10 13 0 0
BITMAP
0C00
0C00
0000
0000
C0C0
40C0
4CC0
4CC0
4E80
6A80
7280
7380
3180
ENDCHAR
STARTCHAR 1E88
ENCODING 7816
SWIDTH 514 0
DWIDTH 10 0
BBX 10 16 0 -4
BITMAP
C040
40C0
40C0
40C0
4CC0
4CC0
4EC0
4AC0
5280
7380
7180
6180
0000
0000
0C00
0C00
ENDCHAR
STARTCHAR 1E89
ENCODING 7817
SWIDTH 514 0
DWIDTH 10 0
BBX 10 13 0 -4
BITMAP
C0C0
40C0
4CC0
4CC0
4E80
6A80
7280
7380
3180
0000
0000
0C00
0C00
ENDCHAR
STARTCHAR 1E8A
ENCODING 7818
SWIDTH 514 0
DWIDTH 10 0
BBX 10 15 0 0
BITMAP
0C00
0C00
0000
60C0
6180
3300
1B00
1E00
0C00
0E00
1E00
3300
3180
6180
E0C0
ENDCHAR
STARTCHAR 1E8B
ENCODING 7819
SWIDTH 514 0
DWIDTH 10 0
BBX 8 13 1 0
BITMAP
18
18
00
00
C3
63
36
1C
18
3C
26
63
C3
ENDCHAR
STARTCHAR 1E8C
ENCODING 7820
SWIDTH 514 0
DWIDTH 10 0
BBX 10 15 0 0
BITMAP
3300
3300
0000
60C0
6180
3300
1B00
1E00
0C00
0E00
1E00
3300
3180
6180
E0C0
ENDCHAR
STARTCHAR 1E8D
ENCODING 7821
SWIDTH 514 0
DWIDTH 10 0
BBX 8 13 1 0
BITMAP
66
66
00
00
C3
63
36
1C
18
3C
26
63
C3
ENDCHAR
STARTCHAR 1E8E
ENCODING 7822
SWIDTH 514 0
DWIDTH 10 0
BBX 10 15 0 0
BITMAP
0C00
0C00
0000
C0C0
60C0
6180
3180
3300
1A00
0E00
0C00
0C00
0C00
0C00
0C00
ENDCHAR
STARTCHAR 1E8F
ENCODING 7823
SWIDTH 514 0
DWIDTH 10 0
BBX 9 17 1 -4
BITMAP
1800
1800
0000
0000
C180
C300
4300
6200
6600
2400
3400
1C00
1800
1800
1000
3000
E000
ENDCHAR
STARTCHAR 1E90
ENCODING 7824
SWIDTH 514 0
DWIDTH 10 0
BBX 8 15 1 0
BITMAP
1C
36
00
FF
03
06
04
0C
08
18
10
30
60
40
FF
ENDCHAR
STARTCHAR 1E91
ENCODING 7825
SWIDTH 514 0
DWIDTH 10 0
BBX 7 13 2 0
BITMAP
30
6C
00
00
FE
0C
08
18
30
20
60
C0
FE
ENDCHAR
STARTCHAR 1E92
ENCODING 7826
SWIDTH 514 0
DWIDTH 10 0
BBX 8 16 1 -4
BITMAP
FF
03
06
04
0C
08
18
10
30
60
40
FF
00
00
18
18
ENDCHAR
STARTCHAR 1E93
ENCODING 7827
SWIDTH 514 0
DWIDTH 10 0
BBX 7 13 2 -4
BITMAP
FE
0C
08
18
30
20
60
C0
FE
00
00
30
30
ENDCHAR
STARTCHAR 1E94
ENCODING 7828
SWIDTH 514 0
DWIDTH 10 0
BBX 8 14 1 -5
BITMAP
FF
03
06
04
0C
08
18
10
30
60
40
FF
00
3E
ENDCHAR
STARTCHAR 1E95
ENCODING 7829
SWIDTH 514 0
DWIDTH 10 0
BBX 7 11 2 -5
BITMAP
FE
0C
08
18
30
20
60
C0
FE
00
7C
ENDCHAR
STARTCHAR 1E96
ENCODING 7830
SWIDTH 514 0
DWIDTH 10 0
BBX 8 15 1 -5
BITMAP
C0
C0
C0
C0
DE
E3
C3
C3
C3
C3
C3
C3
C3
00
3E
ENDCHAR
STARTCHAR 1E97
ENCODING 7831
SWIDTH 514 0
DWIDTH 10 0
BBX 8 15 1 0
BITMAP
66
66
00
30
30
30
FF
30
30
30
30
30
30
10
1F
ENDCHAR
STARTCHAR 1E98
ENCODING 7832
SWIDTH 514 0
DWIDTH 10 0
BBX 10 14 0 0
BITMAP
0E00
1200
1200
0E00
0000
C0C0
40C0
4CC0
4CC0
4E80
6A80
7280
7380
3180
ENDCHAR
STARTCHAR 1E99
ENCODING 7833
SWIDTH 514 0
DWIDTH 10 0
BBX 9 18 1 -4
BITMAP
1C00
2400
2400
1C00
0000
C180
C300
4300
6200
6600
2400
3400
1C00
1800
1800
1000
3000
E000
ENDCHAR
STARTCHAR 1E9A
ENCODING 7834
SWIDTH 514 0
DWIDTH 10 0
BBX 8 14 1 0
BITMAP
08
08
08
08
00
3E
43
03
03
3F
43
C3
C7
7B
ENDCHAR
STARTCHAR 1E9B
ENCODING 7835
SWIDTH 514 0
DWIDTH 10 0
BBX 7 16 3 0
BITMAP
30
30
00
3E
C0
C0
80
80
80
80
80
80
80
80
80
80
ENDCHAR
STARTCHAR 1EA0
ENCODING 7840
SWIDTH 514 0
DWIDTH 10 0
BBX 10 16 0 -4
BITMAP
0E00
0E00
1A00
1300
1300
3100
3180
2180
7F80
60C0
40C0
C0C0
0000
0000
0C00
0C00
ENDCHAR
STARTCHAR 1EA1
ENCODING 7841
SWIDTH 514 0
DWIDTH 10 0
BBX 8 13 1 -4
BITMAP
3E
43
03
03
3F
43
C3
C7
7B
00
00
18
18
ENDCHAR
STARTCHAR 1EA2
ENCODING 7842
SWIDTH 514 0
DWIDTH 10 0
BBX 10 17 0 0
BITMAP
0C00
0200
0400
0400
0000
0E00
0E00
1A00
1300
1300
3100
3180
2180
7F80
60C0
40C0
C0C0
ENDCHAR
STARTCHAR 1EA3
ENCODING 7843
SWIDTH 514 0
DWIDTH 10 0
BBX 8 15 1 0
BITMAP
18
04
0C
08
00
00
3E
43
03
03
3F
43
C3
C7
7B
ENDCHAR
STARTCHAR 1EA4
ENCODING 7844
SWIDTH 514 0
DWIDTH 10 0
BBX 10 16 0 0
BITMAP
00C0
0D80
1A00
0000
0E00
0E00
1A00
1300
1300
3100
3180
2180
7F80
60C0
40C0
C0C0
ENDCHAR
STARTCHAR 1EA5
ENCODING 7845
SWIDTH 514 0
DWIDTH 10 0
BBX 9 14 1 0
BITMAP
0180
1B00
3400
0000
0000
3E00
4300
0300
0300
3F00
4300
C300
C700
7B00
ENDCHAR
STARTCHAR 1EA6
ENCODING 7846
SWIDTH 514 0
DWIDTH 10 0
BBX 10 16 0 0
BITMAP
C000
6C00
1A00
0000
0E00
0E00
1A00
1300
1300
3100
3180
2180
7F80
60C0
40C0
C0C0
ENDCHAR
STARTCHAR 1EA7
ENCODING 7847
SWIDTH 514 0
DWIDTH 10 0
BBX 9 14 0 0
BITMAP
C000
6C00
1A00
0000
0000
1F00
2180
0180
0180
1F80
2180
6180
6380
3D80
ENDCHAR
STARTCHAR 1EA8
ENCODING 7848
SWIDTH 514 0
DWIDTH 10 0
BBX 10 17 0 0
BITMAP
0180
0080
0D00
1A00
0000
0E00
0E00
1A00
1300
1300
3100
3180
2180
7F80
60C0
40C0
C0C0
ENDCHAR
STARTCHAR 1EA9
ENCODING 7849
SWIDTH 514 0
DWIDTH 10 0
BBX 8 15 1 0
BITMAP
03
01
1A
34
00
00
3E
43
03
03
3F
43
C3
C7
7B
ENDCHAR
STARTCHAR 1EAA
ENCODING 7850
SWIDTH 514 0
DWIDTH 10 0
BBX 10 18 0 0
BITMAP
3900
2700
0000
0C00
1B00
0000
0E00
0E00
1A00
1300
1300
3100
3180
2180
7F80
60C0
40C0
C0C0
ENDCHAR
STARTCHAR 1EAB
ENCODING 7851
SWIDTH 514 0
DWIDTH 10 0
BBX 8 15 1 0
BITMAP
72
4E
18
36
00
00
3E
43
03
03
3F
43
C3
C7
7B
ENDCHAR
STARTCHAR 1EAC
ENCODING 7852
SWIDTH 514 0
DWIDTH 10 0
BBX 10 19 0 -4
BITMAP
0E00
1B00
0000
0E00
0E00
1A00
1300
1300
3100
3180
2180
7F80
60C0
40C0
C0C0
0000
0000
0C00
0C00
ENDCHAR
ENDFONT
